<svg width="256" height="385" viewBox="0 0 256 385" fill="none" xmlns="http://www.w3.org/2000/svg">
<g clip-path="url(#clip0)">
<rect width="255.801" height="384.133" transform="translate(0 0.132843) rotate(-0.0297571)" fill="#E5E5E5"/>
<rect width="256" height="384" fill="#FFE7D6"/>
<path d="M40.9834 137L39.7119 137L39.7119 128.571L37.1621 129.508L37.1621 128.359L40.7852 126.999L40.9834 126.999L40.9834 137ZM50.9297 132.755C50.9297 134.236 50.6768 135.337 50.1709 136.057C49.665 136.777 48.8743 137.137 47.7988 137.137C46.737 137.137 45.9508 136.786 45.4404 136.084C44.93 135.378 44.6657 134.325 44.6475 132.926L44.6475 131.237C44.6475 129.774 44.9004 128.688 45.4062 127.977C45.9121 127.266 46.7051 126.91 47.7852 126.91C48.8561 126.91 49.6445 127.254 50.1504 127.942C50.6562 128.626 50.916 129.683 50.9297 131.114L50.9297 132.755ZM49.665 131.025C49.665 129.954 49.5146 129.175 49.2139 128.688C48.9131 128.195 48.4368 127.949 47.7852 127.949C47.138 127.949 46.6663 128.193 46.3701 128.681C46.0739 129.168 45.9212 129.918 45.9121 130.93L45.9121 132.953C45.9121 134.029 46.0671 134.824 46.377 135.339C46.6914 135.849 47.1654 136.104 47.7988 136.104C48.4232 136.104 48.8857 135.863 49.1865 135.38C49.4919 134.897 49.6514 134.136 49.665 133.097L49.665 131.025ZM52.9326 137.854L51.8457 137.854L56.002 127.047L57.082 127.047L52.9326 137.854ZM64.5605 132.755C64.5605 134.236 64.3076 135.337 63.8018 136.057C63.2959 136.777 62.5052 137.137 61.4297 137.137C60.3678 137.137 59.5817 136.786 59.0713 136.084C58.5609 135.378 58.2965 134.325 58.2783 132.926L58.2783 131.237C58.2783 129.774 58.5312 128.688 59.0371 127.977C59.543 127.266 60.3359 126.91 61.416 126.91C62.487 126.91 63.2754 127.254 63.7812 127.942C64.2871 128.626 64.5469 129.683 64.5605 131.114L64.5605 132.755ZM63.2959 131.025C63.2959 129.954 63.1455 129.175 62.8447 128.688C62.5439 128.195 62.0677 127.949 61.416 127.949C60.7689 127.949 60.2972 128.193 60.001 128.681C59.7048 129.168 59.5521 129.918 59.543 130.93L59.543 132.953C59.543 134.029 59.6979 134.824 60.0078 135.339C60.3223 135.849 60.7962 136.104 61.4297 136.104C62.054 136.104 62.5166 135.863 62.8174 135.38C63.1227 134.897 63.2822 134.136 63.2959 133.097L63.2959 131.025ZM71.1436 127.04L71.1436 128.113L70.9111 128.113C69.9268 128.132 69.1429 128.423 68.5596 128.988C67.9762 129.553 67.639 130.349 67.5478 131.374C68.0719 130.772 68.7874 130.472 69.6943 130.472C70.5602 130.472 71.2506 130.777 71.7656 131.388C72.2852 131.998 72.5449 132.787 72.5449 133.753C72.5449 134.778 72.2646 135.599 71.7041 136.214C71.1481 136.829 70.4007 137.137 69.4619 137.137C68.5094 137.137 67.737 136.772 67.1445 136.043C66.5521 135.309 66.2559 134.366 66.2559 133.213L66.2559 132.728C66.2559 130.896 66.6455 129.496 67.4248 128.53C68.2087 127.56 69.373 127.063 70.918 127.04L71.1436 127.04ZM69.4824 131.524C69.0495 131.524 68.6507 131.654 68.2861 131.914C67.9215 132.174 67.6686 132.5 67.5273 132.892L67.5273 133.356C67.5273 134.177 67.7119 134.838 68.0811 135.339C68.4502 135.84 68.9105 136.091 69.4619 136.091C70.0316 136.091 70.4782 135.881 70.8018 135.462C71.1299 135.043 71.2939 134.493 71.2939 133.814C71.2939 133.131 71.1276 132.579 70.7949 132.16C70.4668 131.736 70.0293 131.524 69.4824 131.524ZM74.4248 137.854L73.3379 137.854L77.4941 127.047L78.5742 127.047L74.4248 137.854ZM86.333 137L79.8115 137L79.8115 136.091L83.2568 132.263C83.7673 131.684 84.1182 131.215 84.3096 130.854C84.5055 130.49 84.6035 130.114 84.6035 129.727C84.6035 129.207 84.4463 128.781 84.1318 128.448C83.8174 128.116 83.3981 127.949 82.874 127.949C82.2451 127.949 81.7552 128.129 81.4043 128.489C81.0579 128.845 80.8848 129.341 80.8848 129.979L79.6201 129.979C79.6201 129.063 79.9141 128.323 80.502 127.758C81.0944 127.193 81.8851 126.91 82.874 126.91C83.7992 126.91 84.5306 127.154 85.0684 127.642C85.6061 128.125 85.875 128.77 85.875 129.576C85.875 130.556 85.2506 131.723 84.002 133.076L81.3359 135.968L86.333 135.968L86.333 137ZM93.9141 132.755C93.9141 134.236 93.6611 135.337 93.1553 136.057C92.6494 136.777 91.8587 137.137 90.7832 137.137C89.7214 137.137 88.9352 136.786 88.4248 136.084C87.9144 135.378 87.6501 134.325 87.6318 132.926L87.6318 131.237C87.6318 129.774 87.8848 128.688 88.3906 127.977C88.8965 127.266 89.6895 126.91 90.7695 126.91C91.8405 126.91 92.6289 127.254 93.1348 127.942C93.6406 128.626 93.9004 129.683 93.9141 131.114L93.9141 132.755ZM92.6494 131.025C92.6494 129.954 92.499 129.175 92.1982 128.688C91.8975 128.195 91.4212 127.949 90.7695 127.949C90.1224 127.949 89.6507 128.193 89.3545 128.681C89.0583 129.168 88.9056 129.918 88.8965 130.93L88.8965 132.953C88.8965 134.029 89.0514 134.824 89.3613 135.339C89.6758 135.849 90.1497 136.104 90.7832 136.104C91.4076 136.104 91.8701 135.863 92.1709 135.38C92.4762 134.897 92.6357 134.136 92.6494 133.097L92.6494 131.025ZM102.056 137L95.5342 137L95.5342 136.091L98.9795 132.263C99.4899 131.684 99.8408 131.215 100.032 130.854C100.228 130.49 100.326 130.114 100.326 129.727C100.326 129.207 100.169 128.781 99.8545 128.448C99.54 128.116 99.1208 127.949 98.5967 127.949C97.9678 127.949 97.4779 128.129 97.127 128.489C96.7806 128.845 96.6074 129.341 96.6074 129.979L95.3428 129.979C95.3428 129.063 95.6367 128.323 96.2246 127.758C96.8171 127.193 97.6077 126.91 98.5967 126.91C99.5218 126.91 100.253 127.154 100.791 127.642C101.329 128.125 101.598 128.77 101.598 129.576C101.598 130.556 100.973 131.723 99.7246 133.076L97.0586 135.968L102.056 135.968L102.056 137ZM109.637 132.755C109.637 134.236 109.384 135.337 108.878 136.057C108.372 136.777 107.581 137.137 106.506 137.137C105.444 137.137 104.658 136.786 104.147 136.084C103.637 135.378 103.373 134.325 103.354 132.926L103.354 131.237C103.354 129.774 103.607 128.688 104.113 127.977C104.619 127.266 105.412 126.91 106.492 126.91C107.563 126.91 108.352 127.254 108.857 127.942C109.363 128.626 109.623 129.683 109.637 131.114L109.637 132.755ZM108.372 131.025C108.372 129.954 108.222 129.175 107.921 128.688C107.62 128.195 107.144 127.949 106.492 127.949C105.845 127.949 105.373 128.193 105.077 128.681C104.781 129.168 104.628 129.918 104.619 130.93L104.619 132.953C104.619 134.029 104.774 134.824 105.084 135.339C105.398 135.849 105.872 136.104 106.506 136.104C107.13 136.104 107.593 135.863 107.894 135.38C108.199 134.897 108.358 134.136 108.372 133.097L108.372 131.025Z" fill="black"/>
<path d="M156.042 56.296C155.658 55.936 155.292 55.66 154.944 55.468C154.596 55.288 154.17 55.198 153.666 55.198C153.174 55.198 152.784 55.288 152.496 55.468C152.196 55.66 152.046 55.924 152.046 56.26C152.046 56.608 152.244 56.884 152.64 57.088C153.024 57.304 153.48 57.412 154.008 57.412C154.536 57.412 155.004 57.364 155.412 57.268C155.652 57.052 155.862 56.728 156.042 56.296ZM159.084 58.114C159.288 58.186 159.504 58.234 159.732 58.258C159.96 58.282 160.26 58.294 160.632 58.294C161.016 58.294 161.406 58.192 161.802 57.988C162.198 57.784 162.51 57.544 162.738 57.268C162.978 57.004 163.188 56.704 163.368 56.368C163.596 55.972 163.764 55.576 163.872 55.18L164.304 55.324C163.992 56.344 163.494 57.154 162.81 57.754C162.138 58.354 161.352 58.654 160.452 58.654C159.744 58.654 159.252 58.6 158.976 58.492C158.712 58.396 158.52 58.33 158.4 58.294C158.28 58.27 158.118 58.18 157.914 58.024C157.722 57.88 157.608 57.796 157.572 57.772C157.476 57.7 157.23 57.466 156.834 57.07C156.066 57.526 155.238 57.754 154.35 57.754C153.462 57.754 152.784 57.61 152.316 57.322C151.848 57.046 151.614 56.692 151.614 56.26C151.614 55.84 151.788 55.498 152.136 55.234C152.472 54.982 152.982 54.856 153.666 54.856C154.602 54.856 155.442 55.204 156.186 55.9C156.33 55.456 156.45 54.964 156.546 54.424L157.752 47.458C158.04 45.658 158.664 44.446 159.624 43.822C160.464 43.282 161.418 43.012 162.486 43.012C163.554 43.012 164.424 43.318 165.096 43.93C165.78 44.542 166.122 45.508 166.122 46.828L165.69 46.828C165.69 45.76 165.432 44.95 164.916 44.398C164.412 43.834 163.77 43.552 162.99 43.552C161.562 43.552 160.716 44.44 160.452 46.216C160.452 46.408 160.296 47.398 159.984 49.186C159.684 50.962 159.414 52.432 159.174 53.596C158.922 55 158.25 56.086 157.158 56.854C157.806 57.502 158.286 57.874 158.598 57.97C158.718 58.006 158.88 58.054 159.084 58.114ZM167.874 55.162C166.95 55.162 166.248 54.934 165.768 54.478C165.288 54.01 165.048 53.428 165.048 52.732C165.048 52.024 165.108 51.424 165.228 50.932C165.36 50.428 165.57 49.948 165.858 49.492C166.146 49.024 166.578 48.658 167.154 48.394C167.742 48.13 168.468 47.998 169.332 47.998C170.208 47.998 170.886 48.232 171.366 48.7C171.858 49.156 172.104 49.786 172.104 50.59C172.104 51.958 171.738 53.062 171.006 53.902C170.286 54.742 169.242 55.162 167.874 55.162ZM167.082 53.308C167.082 54.268 167.358 54.748 167.91 54.748C168.474 54.748 168.972 54.268 169.404 53.308C169.848 52.336 170.07 51.184 170.07 49.852C170.07 48.844 169.794 48.34 169.242 48.34C168.702 48.34 168.204 48.802 167.748 49.726C167.304 50.638 167.082 51.832 167.082 53.308ZM177.71 50.23C177.458 49.978 177.332 49.672 177.332 49.312C177.332 48.952 177.458 48.646 177.71 48.394C177.962 48.13 178.244 47.998 178.556 47.998C178.88 47.998 179.15 48.082 179.366 48.25C179.594 48.406 179.756 48.61 179.852 48.862C179.864 48.874 179.87 48.886 179.87 48.898L179.87 48.916C180.014 49.228 180.086 49.684 180.086 50.284C180.086 50.872 180.014 51.412 179.87 51.904C179.738 52.396 179.528 52.9 179.24 53.416C178.964 53.92 178.556 54.34 178.016 54.676C177.476 55 176.84 55.162 176.108 55.162C175.376 55.162 174.764 54.922 174.272 54.442C173.792 53.962 173.552 53.41 173.552 52.786C173.552 52.162 173.66 51.394 173.876 50.482C174.104 49.558 174.23 48.85 174.254 48.358C174.062 48.37 173.876 48.442 173.696 48.574C173.516 48.694 173.384 48.814 173.3 48.934L173.174 49.114L172.904 48.898C172.94 48.826 172.994 48.742 173.066 48.646C173.138 48.55 173.318 48.418 173.606 48.25C173.906 48.082 174.278 47.998 174.722 47.998C175.166 47.998 175.52 48.142 175.784 48.43C176.06 48.718 176.198 49.084 176.198 49.528C176.198 49.972 176.078 50.662 175.838 51.598C175.598 52.522 175.478 53.176 175.478 53.56C175.478 53.932 175.562 54.226 175.73 54.442C175.91 54.658 176.162 54.766 176.486 54.766C177.29 54.766 178.022 54.328 178.682 53.452C179.342 52.576 179.672 51.598 179.672 50.518C179.672 50.434 179.66 50.308 179.636 50.14C179.384 50.452 179.06 50.608 178.664 50.608C178.28 50.608 177.962 50.482 177.71 50.23ZM184.827 47.998C186.351 47.998 187.113 48.604 187.113 49.816C187.113 50.572 186.753 51.148 186.033 51.544C185.325 51.928 184.311 52.126 182.991 52.138C182.967 52.57 182.955 52.912 182.955 53.164C182.955 53.704 183.075 54.106 183.315 54.37C183.567 54.622 183.879 54.748 184.251 54.748C184.623 54.748 184.959 54.676 185.259 54.532C185.571 54.388 185.817 54.22 185.997 54.028C186.177 53.824 186.333 53.614 186.465 53.398C186.705 53.002 186.825 52.75 186.825 52.642L187.149 52.786C187.113 52.978 187.005 53.236 186.825 53.56C186.645 53.872 186.447 54.13 186.231 54.334C186.015 54.538 185.697 54.73 185.277 54.91C184.857 55.078 184.389 55.162 183.873 55.162C182.901 55.162 182.163 54.934 181.659 54.478C181.167 54.01 180.921 53.374 180.921 52.57C180.921 51.142 181.275 50.026 181.983 49.222C182.691 48.406 183.639 47.998 184.827 47.998ZM186.663 49.816C186.663 49.42 186.543 49.096 186.303 48.844C186.075 48.58 185.727 48.448 185.259 48.448C184.803 48.448 184.353 48.724 183.909 49.276C183.477 49.828 183.189 50.644 183.045 51.724C185.457 51.712 186.663 51.076 186.663 49.816ZM191.387 54.352C191.231 54.556 191.015 54.742 190.739 54.91C190.475 55.078 190.127 55.162 189.695 55.162C189.263 55.162 188.897 55.024 188.597 54.748C188.297 54.472 188.147 54.082 188.147 53.578C188.147 53.482 188.159 53.326 188.183 53.11L189.353 46.63C189.569 45.442 189.863 44.596 190.235 44.092C190.619 43.588 191.123 43.336 191.747 43.336C192.179 43.336 192.533 43.498 192.809 43.822C193.097 44.146 193.241 44.638 193.241 45.298C193.241 45.958 192.983 46.9 192.467 48.124C191.963 49.348 191.711 50.242 191.711 50.806L191.387 50.806C191.387 50.17 191.639 49.264 192.143 48.088C192.647 46.9 192.899 45.952 192.899 45.244C192.899 44.812 192.797 44.44 192.593 44.128C192.401 43.816 192.161 43.66 191.873 43.66C191.861 43.972 191.651 45.376 191.243 47.872C190.847 50.356 190.451 52.666 190.055 54.802C190.391 54.802 190.703 54.628 190.991 54.28C191.279 53.932 191.483 53.584 191.603 53.236L191.801 52.696L192.125 52.84C192.089 53.008 191.993 53.254 191.837 53.578C191.693 53.89 191.543 54.148 191.387 54.352ZM194.219 48.358C193.931 48.358 193.631 48.526 193.319 48.862L193.049 48.646C193.133 48.478 193.319 48.328 193.607 48.196C193.895 48.064 194.213 47.998 194.561 47.998C195.653 47.998 196.199 48.49 196.199 49.474C196.199 49.894 196.085 50.584 195.857 51.544C195.629 52.492 195.515 53.134 195.515 53.47C195.515 54.046 195.755 54.334 196.235 54.334C196.631 54.334 197.015 54.064 197.387 53.524C197.771 52.984 198.083 52.258 198.323 51.346L198.917 48.16C199.805 48.16 200.453 48.124 200.861 48.052L201.095 47.998L199.961 54.37C199.745 55.606 199.241 56.572 198.449 57.268C197.669 57.964 196.655 58.312 195.407 58.312C194.651 58.312 194.063 58.18 193.643 57.916C193.235 57.664 193.031 57.328 193.031 56.908C193.031 56.5 193.157 56.17 193.409 55.918C193.661 55.678 194.015 55.558 194.471 55.558C194.939 55.558 195.371 55.63 195.767 55.774C196.163 55.93 196.451 56.02 196.631 56.044L196.595 56.368C196.391 56.344 196.097 56.26 195.713 56.116C195.329 55.972 194.945 55.9 194.561 55.9C194.189 55.9 193.901 55.984 193.697 56.152C193.505 56.32 193.409 56.56 193.409 56.872C193.409 57.196 193.583 57.454 193.931 57.646C194.279 57.85 194.711 57.952 195.227 57.952C196.475 57.952 197.243 57.202 197.531 55.702L197.981 53.218C197.477 54.322 196.715 54.874 195.695 54.874C194.999 54.874 194.459 54.676 194.075 54.28C193.703 53.884 193.517 53.326 193.517 52.606C193.517 52.234 193.625 51.568 193.841 50.608C194.069 49.636 194.195 48.886 194.219 48.358ZM156.78 73.552C156.78 75.352 157.362 76.54 158.526 77.116C158.814 77.152 159.192 77.17 159.66 77.17C160.14 77.17 160.644 77.08 161.172 76.9C161.7 76.72 162.108 76.498 162.396 76.234C163.008 75.67 163.392 75.184 163.548 74.776L163.638 74.506L163.998 74.65C163.914 74.926 163.752 75.244 163.512 75.604C163.272 75.964 162.996 76.27 162.684 76.522C162.384 76.774 161.94 77.002 161.352 77.206C160.776 77.422 160.134 77.53 159.426 77.53C157.914 77.53 156.738 77.092 155.898 76.216C155.07 75.34 154.656 74.104 154.656 72.508C154.656 70.336 155.358 68.548 156.762 67.144C158.166 65.74 160.008 65.038 162.288 65.038C163.344 65.038 164.106 65.23 164.574 65.614C165.042 65.986 165.276 66.574 165.276 67.378C165.276 67.918 165.012 68.584 164.484 69.376C164.004 70.144 163.764 70.744 163.764 71.176L163.368 71.176C163.368 70.936 163.416 70.678 163.512 70.402C163.608 70.126 163.692 69.928 163.764 69.808C163.836 69.688 163.968 69.472 164.16 69.16C164.628 68.452 164.862 67.87 164.862 67.414C164.862 66.454 164.466 65.848 163.674 65.596C163.302 65.476 162.912 65.416 162.504 65.416C162.096 65.416 161.664 65.44 161.208 65.488C160.788 65.62 160.386 65.794 160.002 66.01C159.63 66.214 159.24 66.532 158.832 66.964C158.424 67.384 158.076 67.876 157.788 68.44C157.5 69.004 157.26 69.73 157.068 70.618C156.876 71.494 156.78 72.472 156.78 73.552ZM172 76.162C170.944 76.162 170.368 75.7 170.272 74.776C169.744 75.7 169.078 76.162 168.274 76.162C167.47 76.162 166.828 75.922 166.348 75.442C165.88 74.95 165.646 74.266 165.646 73.39C165.646 72.022 165.982 70.948 166.654 70.168C167.326 69.388 168.196 68.998 169.264 68.998C170.14 68.998 170.722 69.412 171.01 70.24C171.07 69.88 171.136 69.52 171.208 69.16C172.096 69.16 172.756 69.124 173.188 69.052L173.422 68.998L172.18 75.802C172.54 75.766 172.84 75.598 173.08 75.298L173.35 75.514C172.99 75.946 172.54 76.162 172 76.162ZM167.68 74.308C167.68 74.848 167.746 75.226 167.878 75.442C168.022 75.646 168.238 75.748 168.526 75.748C168.814 75.748 169.108 75.592 169.408 75.28C169.804 74.872 170.122 74.356 170.362 73.732C170.398 73.576 170.464 73.204 170.56 72.616C170.668 72.016 170.758 71.524 170.83 71.14C170.794 70.684 170.668 70.288 170.452 69.952C170.236 69.616 169.966 69.448 169.642 69.448C169.054 69.448 168.58 69.976 168.22 71.032C167.86 72.076 167.68 73.168 167.68 74.308ZM175.481 69.16L175.967 66.496C176.855 66.496 177.515 66.46 177.947 66.388L178.181 66.334C178.013 67.174 177.827 68.116 177.623 69.16L179.855 69.16L179.819 69.484L177.569 69.484C176.969 72.58 176.669 74.446 176.669 75.082C176.669 75.466 176.873 75.658 177.281 75.658C177.689 75.658 178.061 75.4 178.397 74.884C178.733 74.368 178.973 73.81 179.117 73.21L179.441 73.318C178.997 75.214 178.079 76.162 176.687 76.162C176.111 76.162 175.631 76.006 175.247 75.694C174.863 75.37 174.671 74.926 174.671 74.362C174.671 73.786 174.917 72.16 175.409 69.484L174.527 69.484L174.563 69.16L175.481 69.16ZM186.916 75.802C187.204 75.802 187.504 75.634 187.816 75.298L188.086 75.514C188.002 75.682 187.816 75.832 187.528 75.964C187.24 76.096 186.922 76.162 186.574 76.162C185.482 76.162 184.936 75.67 184.936 74.686C184.936 74.266 185.044 73.516 185.26 72.436C185.476 71.356 185.584 70.648 185.584 70.312C185.584 69.796 185.338 69.538 184.846 69.538C184.438 69.538 184.042 69.814 183.658 70.366C183.286 70.918 182.98 71.668 182.74 72.616L182.146 76L179.986 76L181.984 64.696C181.624 64.732 181.324 64.9 181.084 65.2L180.814 64.984C181.174 64.552 181.624 64.336 182.164 64.336C182.716 64.336 183.142 64.474 183.442 64.75C183.742 65.026 183.892 65.416 183.892 65.92C183.892 66.016 183.88 66.172 183.856 66.388L183.1 70.654C183.592 69.55 184.354 68.998 185.386 68.998C186.094 68.998 186.646 69.202 187.042 69.61C187.438 70.006 187.636 70.558 187.636 71.266C187.636 71.638 187.522 72.358 187.294 73.426C187.066 74.482 186.94 75.274 186.916 75.802ZM192.825 68.998C194.349 68.998 195.111 69.604 195.111 70.816C195.111 71.572 194.751 72.148 194.031 72.544C193.323 72.928 192.309 73.126 190.989 73.138C190.965 73.57 190.953 73.912 190.953 74.164C190.953 74.704 191.073 75.106 191.313 75.37C191.565 75.622 191.877 75.748 192.249 75.748C192.621 75.748 192.957 75.676 193.257 75.532C193.569 75.388 193.815 75.22 193.995 75.028C194.175 74.824 194.331 74.614 194.463 74.398C194.703 74.002 194.823 73.75 194.823 73.642L195.147 73.786C195.111 73.978 195.003 74.236 194.823 74.56C194.643 74.872 194.445 75.13 194.229 75.334C194.013 75.538 193.695 75.73 193.275 75.91C192.855 76.078 192.387 76.162 191.871 76.162C190.899 76.162 190.161 75.934 189.657 75.478C189.165 75.01 188.919 74.374 188.919 73.57C188.919 72.142 189.273 71.026 189.981 70.222C190.689 69.406 191.637 68.998 192.825 68.998ZM194.661 70.816C194.661 70.42 194.541 70.096 194.301 69.844C194.073 69.58 193.725 69.448 193.257 69.448C192.801 69.448 192.351 69.724 191.907 70.276C191.475 70.828 191.187 71.644 191.043 72.724C193.455 72.712 194.661 72.076 194.661 70.816ZM196.199 69.646C196.559 69.214 197.009 68.998 197.549 68.998C198.101 68.998 198.527 69.136 198.827 69.412C199.127 69.688 199.277 70.078 199.277 70.582L199.277 70.69C199.817 69.562 200.519 68.998 201.383 68.998C202.307 68.998 202.769 69.478 202.769 70.438C202.769 70.834 202.637 71.254 202.373 71.698C202.109 72.142 201.845 72.568 201.581 72.976C201.317 73.372 201.185 73.726 201.185 74.038L200.753 74.038C200.753 73.594 201.011 72.994 201.527 72.238C202.043 71.482 202.301 70.9 202.301 70.492C202.301 70.072 202.217 69.79 202.049 69.646C201.893 69.49 201.653 69.412 201.329 69.412C201.017 69.412 200.705 69.55 200.393 69.826C200.093 70.102 199.841 70.45 199.637 70.87C199.313 71.494 199.097 72.004 198.989 72.4L198.989 72.418L198.341 76L196.181 76L197.369 69.358C197.009 69.394 196.709 69.562 196.469 69.862L196.199 69.646ZM206.47 75.514C206.11 75.946 205.66 76.162 205.12 76.162C204.58 76.162 204.154 76.024 203.842 75.748C203.542 75.472 203.392 75.112 203.392 74.668C203.392 74.512 203.488 73.858 203.68 72.706L204.274 69.484L203.518 69.484L203.554 69.16L204.328 69.16C205.216 69.16 205.87 69.124 206.29 69.052L206.542 68.998L205.3 75.802C205.66 75.766 205.96 75.598 206.2 75.298L206.47 75.514ZM204.886 67.27C204.634 67.018 204.508 66.712 204.508 66.352C204.508 65.992 204.634 65.686 204.886 65.434C205.138 65.17 205.444 65.038 205.804 65.038C206.164 65.038 206.47 65.17 206.722 65.434C206.986 65.686 207.118 65.992 207.118 66.352C207.118 66.712 206.986 67.018 206.722 67.27C206.47 67.522 206.164 67.648 205.804 67.648C205.444 67.648 205.138 67.522 204.886 67.27ZM214.466 75.802C214.754 75.802 215.054 75.634 215.366 75.298L215.636 75.514C215.552 75.682 215.366 75.832 215.078 75.964C214.79 76.096 214.472 76.162 214.124 76.162C213.032 76.162 212.486 75.67 212.486 74.686C212.486 74.266 212.594 73.516 212.81 72.436C213.026 71.356 213.134 70.648 213.134 70.312C213.134 69.796 212.888 69.538 212.396 69.538C212 69.538 211.616 69.796 211.244 70.312C210.884 70.828 210.584 71.536 210.344 72.436L209.732 75.802C210.104 75.766 210.41 75.598 210.65 75.298L210.92 75.514C210.56 75.946 210.11 76.162 209.57 76.162C209.03 76.162 208.604 76.024 208.292 75.748C207.992 75.472 207.842 75.112 207.842 74.668C207.842 74.5 207.938 73.84 208.13 72.688L208.724 69.358C208.364 69.394 208.064 69.562 207.824 69.862L207.554 69.646C207.914 69.214 208.364 68.998 208.904 68.998C209.456 68.998 209.882 69.136 210.182 69.412C210.482 69.688 210.632 70.078 210.632 70.582L210.632 70.69C211.124 69.562 211.892 68.998 212.936 68.998C213.644 68.998 214.196 69.202 214.592 69.61C214.988 70.006 215.186 70.558 215.186 71.266C215.186 71.638 215.072 72.358 214.844 73.426C214.616 74.482 214.49 75.274 214.466 75.802ZM222.404 77.962C222.836 77.962 223.208 77.794 223.52 77.458L223.772 77.674C223.484 78.082 223.028 78.286 222.404 78.286C222.14 78.286 221.87 78.256 221.594 78.196C220.778 78.94 219.734 79.312 218.462 79.312C217.706 79.312 217.118 79.18 216.698 78.916C216.29 78.664 216.086 78.328 216.086 77.908C216.086 77.5 216.212 77.17 216.464 76.918C216.728 76.678 217.19 76.558 217.85 76.558C218.51 76.558 219.38 76.828 220.46 77.368L221.018 74.38C220.478 75.376 219.782 75.874 218.93 75.874C217.298 75.874 216.482 75.07 216.482 73.462C216.482 72.118 216.818 71.038 217.49 70.222C218.174 69.406 219.044 68.998 220.1 68.998C220.712 68.998 221.186 69.184 221.522 69.556C221.618 69.664 221.714 69.826 221.81 70.042L221.972 69.16C222.86 69.16 223.508 69.124 223.916 69.052L224.15 68.998L222.962 75.64C222.782 76.576 222.422 77.332 221.882 77.908C222.038 77.944 222.212 77.962 222.404 77.962ZM218.516 74.02C218.516 74.572 218.57 74.944 218.678 75.136C218.786 75.316 218.99 75.406 219.29 75.406C219.59 75.406 219.896 75.244 220.208 74.92C220.52 74.596 220.742 74.296 220.874 74.02C221.018 73.732 221.138 73.456 221.234 73.192L221.612 71.122L221.612 70.996C221.612 69.892 221.108 69.34 220.1 69.34C219.716 69.34 219.356 69.862 219.02 70.906C218.684 71.95 218.516 72.988 218.516 74.02ZM218.39 78.952C219.35 78.952 219.998 78.538 220.334 77.71L220.082 77.584C219.938 77.512 219.848 77.464 219.812 77.44C219.788 77.428 219.71 77.392 219.578 77.332C219.446 77.272 219.35 77.23 219.29 77.206C219.23 77.194 219.134 77.164 219.002 77.116C218.882 77.068 218.78 77.032 218.696 77.008C218.612 76.996 218.516 76.978 218.408 76.954C218.228 76.918 217.964 76.9 217.616 76.9C217.268 76.9 216.986 76.984 216.77 77.152C216.566 77.32 216.464 77.566 216.464 77.89C216.464 78.214 216.638 78.472 216.986 78.664C217.334 78.856 217.802 78.952 218.39 78.952Z" fill="black"/>
<path d="M208.448 174L200.063 174L200.063 172.831L204.493 167.909C205.149 167.165 205.601 166.562 205.847 166.099C206.099 165.63 206.225 165.146 206.225 164.648C206.225 163.98 206.022 163.433 205.618 163.005C205.214 162.577 204.675 162.363 204.001 162.363C203.192 162.363 202.562 162.595 202.111 163.058C201.666 163.515 201.443 164.153 201.443 164.974L199.817 164.974C199.817 163.796 200.195 162.844 200.951 162.117C201.713 161.391 202.729 161.027 204.001 161.027C205.19 161.027 206.131 161.341 206.822 161.968C207.514 162.589 207.859 163.418 207.859 164.455C207.859 165.715 207.057 167.215 205.451 168.955L202.023 172.673L208.448 172.673L208.448 174ZM210.918 167.584L211.568 161.203L218.125 161.203L218.125 162.706L212.948 162.706L212.562 166.195C213.188 165.826 213.9 165.642 214.697 165.642C215.863 165.642 216.789 166.028 217.475 166.802C218.16 167.569 218.503 168.609 218.503 169.922C218.503 171.24 218.146 172.28 217.431 173.042C216.722 173.798 215.729 174.176 214.451 174.176C213.32 174.176 212.397 173.862 211.683 173.235C210.968 172.608 210.561 171.741 210.461 170.634L211.999 170.634C212.099 171.366 212.359 171.92 212.781 172.295C213.203 172.664 213.76 172.849 214.451 172.849C215.207 172.849 215.799 172.591 216.227 172.075C216.66 171.56 216.877 170.848 216.877 169.939C216.877 169.084 216.643 168.398 216.174 167.883C215.711 167.361 215.093 167.101 214.319 167.101C213.61 167.101 213.054 167.256 212.649 167.566L212.219 167.918L210.918 167.584ZM223.1 169.597L222.08 170.66L222.08 174L220.454 174L220.454 160.5L222.08 160.5L222.08 168.665L222.95 167.619L225.912 164.49L227.89 164.49L224.189 168.463L228.32 174L226.413 174L223.1 169.597Z" fill="black"/>
<path d="M51.6582 103.029C51.6582 105.537 51.2363 107.729 50.3926 109.604C49.5488 111.467 48.3535 112.891 46.8066 113.875C45.2598 114.859 43.4551 115.352 41.3926 115.352C39.377 115.352 37.5898 114.859 36.0312 113.875C34.4727 112.879 33.2598 111.467 32.3926 109.639C31.5371 107.799 31.0977 105.672 31.0742 103.258L31.0742 101.412C31.0742 98.9512 31.502 96.7773 32.3574 94.8906C33.2129 93.0039 34.4199 91.5625 35.9785 90.5664C37.5488 89.5586 39.3418 89.0547 41.3574 89.0547C43.4082 89.0547 45.2129 89.5527 46.7715 90.5488C48.3418 91.5332 49.5488 92.9688 50.3926 94.8555C51.2363 96.7305 51.6582 98.916 51.6582 101.412L51.6582 103.029ZM48.3008 101.377C48.3008 98.3418 47.6914 96.0156 46.4727 94.3984C45.2539 92.7695 43.5488 91.9551 41.3574 91.9551C39.2246 91.9551 37.543 92.7695 36.3125 94.3984C35.0937 96.0156 34.4668 98.2656 34.4316 101.148L34.4316 103.029C34.4316 105.971 35.0469 108.285 36.2773 109.973C37.5195 111.648 39.2246 112.486 41.3926 112.486C43.5723 112.486 45.2598 111.695 46.4551 110.113C47.6504 108.52 48.2656 106.24 48.3008 103.275L48.3008 101.377ZM65.4043 98.8984C64.9121 98.8164 64.3789 98.7754 63.8047 98.7754C61.6719 98.7754 60.2246 99.6836 59.4629 101.5L59.4629 115L56.2109 115L56.2109 95.9805L59.375 95.9805L59.4277 98.1777C60.4941 96.4785 62.0059 95.6289 63.9629 95.6289C64.5957 95.6289 65.0762 95.7109 65.4043 95.875L65.4043 98.8984ZM67.2676 105.332C67.2676 102.414 67.959 100.07 69.3418 98.3008C70.7246 96.5195 72.5352 95.6289 74.7734 95.6289C77 95.6289 78.7637 96.3906 80.0645 97.9141L80.0645 88L83.3164 88L83.3164 115L80.3281 115L80.1699 112.961C78.8691 114.555 77.0586 115.352 74.7383 115.352C72.5352 115.352 70.7363 114.449 69.3418 112.645C67.959 110.84 67.2676 108.484 67.2676 105.578L67.2676 105.332ZM70.5195 105.701C70.5195 107.857 70.9648 109.545 71.8555 110.764C72.7461 111.982 73.9766 112.592 75.5469 112.592C77.6094 112.592 79.1152 111.666 80.0645 109.814L80.0645 101.078C79.0918 99.2852 77.5977 98.3887 75.582 98.3887C73.9883 98.3887 72.7461 99.0039 71.8555 100.234C70.9648 101.465 70.5195 103.287 70.5195 105.701ZM96.2715 115.352C93.6934 115.352 91.5957 114.508 89.9785 112.82C88.3613 111.121 87.5527 108.854 87.5527 106.018L87.5527 105.42C87.5527 103.533 87.9102 101.852 88.625 100.375C89.3516 98.8867 90.3594 97.7266 91.6484 96.8945C92.9492 96.0508 94.3555 95.6289 95.8672 95.6289C98.3398 95.6289 100.262 96.4434 101.633 98.0723C103.004 99.7012 103.689 102.033 103.689 105.068L103.689 106.422L90.8047 106.422C90.8516 108.297 91.3965 109.814 92.4395 110.975C93.4941 112.123 94.8301 112.697 96.4473 112.697C97.5957 112.697 98.5684 112.463 99.3652 111.994C100.162 111.525 100.859 110.904 101.457 110.131L103.443 111.678C101.85 114.127 99.459 115.352 96.2715 115.352ZM95.8672 98.3008C94.5547 98.3008 93.4531 98.7813 92.5625 99.7422C91.6719 100.691 91.1211 102.027 90.9102 103.75L100.437 103.75L100.437 103.504C100.344 101.852 99.8984 100.574 99.1016 99.6719C98.3047 98.7578 97.2266 98.3008 95.8672 98.3008ZM116.662 98.8984C116.17 98.8164 115.637 98.7754 115.062 98.7754C112.93 98.7754 111.482 99.6836 110.721 101.5L110.721 115L107.469 115L107.469 95.9805L110.633 95.9805L110.686 98.1777C111.752 96.4785 113.264 95.6289 115.221 95.6289C115.854 95.6289 116.334 95.7109 116.662 95.875L116.662 98.8984ZM129.107 115L129.107 89.4063L136.332 89.4063C138.559 89.4063 140.527 89.8984 142.238 90.8828C143.949 91.8672 145.268 93.2676 146.193 95.084C147.131 96.9004 147.605 98.9863 147.617 101.342L147.617 102.977C147.617 105.391 147.148 107.506 146.211 109.322C145.285 111.139 143.955 112.533 142.221 113.506C140.498 114.479 138.488 114.977 136.191 115L129.107 115ZM132.482 92.1836L132.482 112.24L136.033 112.24C138.635 112.24 140.656 111.432 142.098 109.814C143.551 108.197 144.277 105.895 144.277 102.906L144.277 101.412C144.277 98.5059 143.592 96.25 142.221 94.6445C140.861 93.0273 138.928 92.207 136.42 92.1836L132.482 92.1836ZM160.115 115.352C157.537 115.352 155.439 114.508 153.822 112.82C152.205 111.121 151.396 108.854 151.396 106.018L151.396 105.42C151.396 103.533 151.754 101.852 152.469 100.375C153.195 98.8867 154.203 97.7266 155.492 96.8945C156.793 96.0508 158.199 95.6289 159.711 95.6289C162.184 95.6289 164.105 96.4434 165.477 98.0723C166.848 99.7012 167.533 102.033 167.533 105.068L167.533 106.422L154.648 106.422C154.695 108.297 155.24 109.814 156.283 110.975C157.338 112.123 158.674 112.697 160.291 112.697C161.439 112.697 162.412 112.463 163.209 111.994C164.006 111.525 164.703 110.904 165.301 110.131L167.287 111.678C165.693 114.127 163.303 115.352 160.115 115.352ZM159.711 98.3008C158.398 98.3008 157.297 98.7813 156.406 99.7422C155.516 100.691 154.965 102.027 154.754 103.75L164.281 103.75L164.281 103.504C164.187 101.852 163.742 100.574 162.945 99.6719C162.148 98.7578 161.07 98.3008 159.711 98.3008ZM175.725 91.375L175.725 95.9805L179.275 95.9805L179.275 98.4941L175.725 98.4941L175.725 110.289C175.725 111.051 175.883 111.625 176.199 112.012C176.516 112.387 177.055 112.574 177.816 112.574C178.191 112.574 178.707 112.504 179.363 112.363L179.363 115C178.508 115.234 177.676 115.352 176.867 115.352C175.414 115.352 174.318 114.912 173.58 114.033C172.842 113.154 172.473 111.906 172.473 110.289L172.473 98.4941L169.01 98.4941L169.01 95.9805L172.473 95.9805L172.473 91.375L175.725 91.375ZM194.832 115C194.645 114.625 194.492 113.957 194.375 112.996C192.863 114.566 191.059 115.352 188.961 115.352C187.086 115.352 185.545 114.824 184.338 113.77C183.143 112.703 182.545 111.355 182.545 109.727C182.545 107.746 183.295 106.211 184.795 105.121C186.307 104.02 188.428 103.469 191.158 103.469L194.322 103.469L194.322 101.975C194.322 100.838 193.982 99.9355 193.303 99.2676C192.623 98.5879 191.621 98.248 190.297 98.248C189.137 98.248 188.164 98.541 187.379 99.127C186.594 99.7129 186.201 100.422 186.201 101.254L182.932 101.254C182.932 100.305 183.266 99.3906 183.934 98.5117C184.613 97.6211 185.527 96.918 186.676 96.4023C187.836 95.8867 189.107 95.6289 190.49 95.6289C192.682 95.6289 194.398 96.1797 195.641 97.2813C196.883 98.3711 197.527 99.877 197.574 101.799L197.574 110.553C197.574 112.299 197.797 113.688 198.242 114.719L198.242 115L194.832 115ZM189.436 112.521C190.455 112.521 191.422 112.258 192.336 111.73C193.25 111.203 193.912 110.518 194.322 109.674L194.322 105.771L191.773 105.771C187.789 105.771 185.797 106.938 185.797 109.27C185.797 110.289 186.137 111.086 186.816 111.66C187.496 112.234 188.369 112.521 189.436 112.521ZM206.205 115L202.953 115L202.953 95.9805L206.205 95.9805L206.205 115ZM202.689 90.9355C202.689 90.4082 202.848 89.9629 203.164 89.5996C203.492 89.2363 203.973 89.0547 204.605 89.0547C205.238 89.0547 205.719 89.2363 206.047 89.5996C206.375 89.9629 206.539 90.4082 206.539 90.9355C206.539 91.4629 206.375 91.9023 206.047 92.2539C205.719 92.6055 205.238 92.7813 204.605 92.7813C203.973 92.7813 203.492 92.6055 203.164 92.2539C202.848 91.9023 202.689 91.4629 202.689 90.9355ZM214.959 115L211.707 115L211.707 88L214.959 88L214.959 115ZM231.254 109.955C231.254 109.076 230.92 108.396 230.252 107.916C229.596 107.424 228.441 107.002 226.789 106.65C225.148 106.299 223.842 105.877 222.869 105.385C221.908 104.893 221.193 104.307 220.725 103.627C220.268 102.947 220.039 102.139 220.039 101.201C220.039 99.6426 220.695 98.3242 222.008 97.2461C223.332 96.168 225.02 95.6289 227.07 95.6289C229.227 95.6289 230.973 96.1855 232.309 97.2988C233.656 98.4121 234.33 99.8359 234.33 101.57L231.061 101.57C231.061 100.68 230.68 99.9121 229.918 99.2676C229.168 98.623 228.219 98.3008 227.07 98.3008C225.887 98.3008 224.961 98.5586 224.293 99.0742C223.625 99.5898 223.291 100.264 223.291 101.096C223.291 101.881 223.602 102.473 224.223 102.871C224.844 103.27 225.963 103.65 227.58 104.014C229.209 104.377 230.527 104.811 231.535 105.314C232.543 105.818 233.287 106.428 233.768 107.143C234.26 107.846 234.506 108.707 234.506 109.727C234.506 111.426 233.826 112.791 232.467 113.822C231.107 114.842 229.344 115.352 227.176 115.352C225.652 115.352 224.305 115.082 223.133 114.543C221.961 114.004 221.041 113.254 220.373 112.293C219.717 111.32 219.389 110.271 219.389 109.146L222.641 109.146C222.699 110.236 223.133 111.104 223.941 111.748C224.762 112.381 225.84 112.697 227.176 112.697C228.406 112.697 229.391 112.451 230.129 111.959C230.879 111.455 231.254 110.787 231.254 109.955Z" fill="black"/>
<path d="M44.5518 172.66L39.1905 172.66L37.9864 176L36.2461 176L41.1328 163.203L42.6094 163.203L47.5049 176L45.7735 176L44.5518 172.66ZM39.7002 171.271L44.0508 171.271L41.8711 165.286L39.7002 171.271ZM51.6446 173.618L53.8594 166.49L55.5996 166.49L51.7764 177.468C51.1846 179.05 50.2442 179.841 48.9551 179.841L48.6475 179.814L48.041 179.7L48.041 178.382L48.4805 178.417C49.0313 178.417 49.459 178.306 49.7637 178.083C50.0742 177.86 50.3291 177.453 50.5283 176.861L50.8887 175.895L47.4961 166.49L49.2715 166.49L51.6446 173.618ZM62.7891 176C62.6953 175.813 62.6192 175.479 62.5606 174.998C61.8047 175.783 60.9024 176.176 59.8535 176.176C58.916 176.176 58.1455 175.912 57.542 175.385C56.9444 174.852 56.6455 174.178 56.6455 173.363C56.6455 172.373 57.0205 171.605 57.7705 171.061C58.5264 170.51 59.5869 170.234 60.9522 170.234L62.5342 170.234L62.5342 169.487C62.5342 168.919 62.3643 168.468 62.0244 168.134C61.6846 167.794 61.1836 167.624 60.5215 167.624C59.9414 167.624 59.4551 167.771 59.0625 168.063C58.6699 168.356 58.4737 168.711 58.4737 169.127L56.8389 169.127C56.8389 168.652 57.0059 168.195 57.3399 167.756C57.6797 167.311 58.1367 166.959 58.711 166.701C59.291 166.443 59.9268 166.314 60.6182 166.314C61.7139 166.314 62.5723 166.59 63.1934 167.141C63.8145 167.686 64.1367 168.438 64.1602 169.399L64.1602 173.776C64.1602 174.649 64.2715 175.344 64.4942 175.859L64.4942 176L62.7891 176ZM60.0908 174.761C60.6006 174.761 61.084 174.629 61.541 174.365C61.9981 174.102 62.3291 173.759 62.5342 173.337L62.5342 171.386L61.2598 171.386C59.2676 171.386 58.2715 171.969 58.2715 173.135C58.2715 173.645 58.4414 174.043 58.7813 174.33C59.1211 174.617 59.5576 174.761 60.0908 174.761ZM68.2383 166.49L68.2822 167.545C68.9795 166.725 69.9199 166.314 71.1035 166.314C72.4336 166.314 73.3389 166.824 73.8194 167.844C74.1358 167.387 74.5459 167.018 75.0498 166.736C75.5596 166.455 76.1602 166.314 76.8516 166.314C78.9375 166.314 79.9981 167.419 80.0332 169.628L80.0332 176L78.4072 176L78.4072 169.725C78.4072 169.045 78.252 168.538 77.9414 168.204C77.6309 167.864 77.1094 167.694 76.377 167.694C75.7735 167.694 75.2725 167.876 74.874 168.239C74.4756 168.597 74.2442 169.08 74.1797 169.689L74.1797 176L72.5449 176L72.5449 169.769C72.5449 168.386 71.8682 167.694 70.5147 167.694C69.4483 167.694 68.7188 168.148 68.3262 169.057L68.3262 176L66.7002 176L66.7002 166.49L68.2383 166.49ZM96.6621 174.321C96.2285 174.942 95.6221 175.408 94.8428 175.719C94.0694 176.023 93.167 176.176 92.1358 176.176C91.0928 176.176 90.167 175.933 89.3584 175.446C88.5498 174.954 87.9229 174.257 87.4776 173.354C87.0381 172.452 86.8125 171.406 86.8008 170.217L86.8008 169.101C86.8008 167.173 87.249 165.679 88.1455 164.618C89.0479 163.558 90.3135 163.027 91.9424 163.027C93.2783 163.027 94.3535 163.37 95.168 164.056C95.9824 164.735 96.4805 165.702 96.6621 166.956L94.9746 166.956C94.6582 165.263 93.6504 164.416 91.9512 164.416C90.8203 164.416 89.9619 164.814 89.376 165.611C88.7959 166.402 88.503 167.551 88.4971 169.057L88.4971 170.103C88.4971 171.538 88.8252 172.681 89.4815 173.53C90.1377 174.374 91.0254 174.796 92.1446 174.796C92.7774 174.796 93.3311 174.726 93.8057 174.585C94.2803 174.444 94.6729 174.207 94.9834 173.873L94.9834 170.999L92.0215 170.999L92.0215 169.628L96.6621 169.628L96.6621 174.321ZM98.7979 171.157C98.7979 170.226 98.9795 169.388 99.3428 168.644C99.7119 167.899 100.222 167.325 100.872 166.921C101.528 166.517 102.275 166.314 103.113 166.314C104.408 166.314 105.454 166.763 106.251 167.659C107.054 168.556 107.455 169.748 107.455 171.236L107.455 171.351C107.455 172.276 107.276 173.108 106.919 173.847C106.567 174.579 106.061 175.15 105.398 175.561C104.742 175.971 103.986 176.176 103.131 176.176C101.842 176.176 100.796 175.728 99.9932 174.831C99.1963 173.935 98.7979 172.748 98.7979 171.271L98.7979 171.157ZM100.433 171.351C100.433 172.405 100.676 173.252 101.162 173.891C101.654 174.529 102.311 174.849 103.131 174.849C103.957 174.849 104.613 174.526 105.1 173.882C105.586 173.231 105.829 172.323 105.829 171.157C105.829 170.114 105.58 169.271 105.082 168.626C104.59 167.976 103.934 167.65 103.113 167.65C102.311 167.65 101.663 167.97 101.171 168.608C100.679 169.247 100.433 170.161 100.433 171.351ZM114.091 167.949C113.845 167.908 113.578 167.888 113.291 167.888C112.225 167.888 111.501 168.342 111.12 169.25L111.12 176L109.494 176L109.494 166.49L111.076 166.49L111.103 167.589C111.636 166.739 112.392 166.314 113.37 166.314C113.687 166.314 113.927 166.355 114.091 166.438L114.091 167.949ZM119.364 176.176C118.075 176.176 117.026 175.754 116.218 174.91C115.409 174.061 115.005 172.927 115.005 171.509L115.005 171.21C115.005 170.267 115.184 169.426 115.541 168.688C115.904 167.943 116.408 167.363 117.053 166.947C117.703 166.525 118.406 166.314 119.162 166.314C120.398 166.314 121.359 166.722 122.045 167.536C122.73 168.351 123.073 169.517 123.073 171.034L123.073 171.711L116.631 171.711C116.654 172.648 116.927 173.407 117.448 173.987C117.976 174.562 118.644 174.849 119.452 174.849C120.026 174.849 120.513 174.731 120.911 174.497C121.31 174.263 121.658 173.952 121.957 173.565L122.95 174.339C122.153 175.563 120.958 176.176 119.364 176.176ZM119.162 167.65C118.506 167.65 117.955 167.891 117.51 168.371C117.064 168.846 116.789 169.514 116.684 170.375L121.447 170.375L121.447 170.252C121.4 169.426 121.178 168.787 120.779 168.336C120.381 167.879 119.842 167.65 119.162 167.65ZM126.501 166.49L126.554 167.686C127.28 166.771 128.23 166.314 129.401 166.314C131.411 166.314 132.425 167.448 132.442 169.716L132.442 176L130.816 176L130.816 169.707C130.811 169.021 130.652 168.515 130.342 168.187C130.037 167.858 129.56 167.694 128.909 167.694C128.382 167.694 127.919 167.835 127.521 168.116C127.122 168.397 126.812 168.767 126.589 169.224L126.589 176L124.963 176L124.963 166.49L126.501 166.49ZM134.508 171.166C134.508 169.684 134.851 168.506 135.536 167.633C136.222 166.754 137.13 166.314 138.261 166.314C139.421 166.314 140.326 166.725 140.977 167.545L141.056 166.49L142.541 166.49L142.541 175.771C142.541 177.002 142.175 177.972 141.442 178.681C140.716 179.39 139.737 179.744 138.507 179.744C137.821 179.744 137.15 179.598 136.494 179.305C135.838 179.012 135.337 178.61 134.991 178.101L135.835 177.125C136.532 177.986 137.385 178.417 138.393 178.417C139.184 178.417 139.799 178.194 140.238 177.749C140.684 177.304 140.906 176.677 140.906 175.868L140.906 175.051C140.256 175.801 139.368 176.176 138.243 176.176C137.13 176.176 136.228 175.728 135.536 174.831C134.851 173.935 134.508 172.713 134.508 171.166ZM136.143 171.351C136.143 172.423 136.362 173.267 136.802 173.882C137.241 174.491 137.856 174.796 138.647 174.796C139.673 174.796 140.426 174.33 140.906 173.398L140.906 169.057C140.408 168.148 139.661 167.694 138.665 167.694C137.874 167.694 137.256 168.002 136.811 168.617C136.365 169.232 136.143 170.144 136.143 171.351Z" fill="black"/>
<path d="M208.448 220L200.063 220L200.063 218.831L204.493 213.909C205.149 213.165 205.601 212.562 205.847 212.099C206.099 211.63 206.225 211.146 206.225 210.648C206.225 209.98 206.022 209.433 205.618 209.005C205.214 208.577 204.675 208.363 204.001 208.363C203.192 208.363 202.562 208.595 202.111 209.058C201.666 209.515 201.443 210.153 201.443 210.974L199.817 210.974C199.817 209.796 200.195 208.844 200.951 208.117C201.713 207.391 202.729 207.027 204.001 207.027C205.19 207.027 206.131 207.341 206.822 207.968C207.514 208.589 207.859 209.418 207.859 210.455C207.859 211.715 207.057 213.215 205.451 214.955L202.023 218.673L208.448 218.673L208.448 220ZM210.918 213.584L211.568 207.203L218.125 207.203L218.125 208.706L212.948 208.706L212.562 212.195C213.188 211.826 213.9 211.642 214.697 211.642C215.863 211.642 216.789 212.028 217.475 212.802C218.16 213.569 218.503 214.609 218.503 215.922C218.503 217.24 218.146 218.28 217.431 219.042C216.722 219.798 215.729 220.176 214.451 220.176C213.32 220.176 212.397 219.862 211.683 219.235C210.968 218.608 210.561 217.741 210.461 216.634L211.999 216.634C212.099 217.366 212.359 217.92 212.781 218.295C213.203 218.664 213.76 218.849 214.451 218.849C215.207 218.849 215.799 218.591 216.227 218.075C216.66 217.56 216.877 216.848 216.877 215.939C216.877 215.084 216.643 214.398 216.174 213.883C215.711 213.361 215.093 213.101 214.319 213.101C213.61 213.101 213.054 213.256 212.649 213.566L212.219 213.918L210.918 213.584ZM223.1 215.597L222.08 216.66L222.08 220L220.454 220L220.454 206.5L222.08 206.5L222.08 214.665L222.95 213.619L225.912 210.49L227.89 210.49L224.189 214.463L228.32 220L226.413 220L223.1 215.597Z" fill="black"/>
<path d="M46.3272 208.592L42.2139 208.592L42.2139 220L40.5352 220L40.5352 208.592L36.4307 208.592L36.4307 207.203L46.3272 207.203L46.3272 208.592ZM46.6612 215.157C46.6612 214.226 46.8428 213.388 47.2061 212.644C47.5752 211.899 48.085 211.325 48.7354 210.921C49.3916 210.517 50.1387 210.314 50.9766 210.314C52.2715 210.314 53.3174 210.763 54.1143 211.659C54.917 212.556 55.3184 213.748 55.3184 215.236L55.3184 215.351C55.3184 216.276 55.1397 217.108 54.7822 217.847C54.4307 218.579 53.9238 219.15 53.2617 219.561C52.6055 219.971 51.8496 220.176 50.9942 220.176C49.7051 220.176 48.6592 219.728 47.8565 218.831C47.0596 217.935 46.6612 216.748 46.6612 215.271L46.6612 215.157ZM48.2959 215.351C48.2959 216.405 48.5391 217.252 49.0254 217.891C49.5176 218.529 50.1738 218.849 50.9942 218.849C51.8203 218.849 52.4766 218.526 52.9629 217.882C53.4492 217.231 53.6924 216.323 53.6924 215.157C53.6924 214.114 53.4434 213.271 52.9453 212.626C52.4531 211.976 51.7969 211.65 50.9766 211.65C50.1738 211.65 49.5264 211.97 49.0342 212.608C48.542 213.247 48.2959 214.161 48.2959 215.351ZM59.5635 208.188L59.5635 210.49L61.3389 210.49L61.3389 211.747L59.5635 211.747L59.5635 217.645C59.5635 218.025 59.6426 218.313 59.8008 218.506C59.959 218.693 60.2285 218.787 60.6094 218.787C60.7969 218.787 61.0547 218.752 61.3828 218.682L61.3828 220C60.9551 220.117 60.5391 220.176 60.1348 220.176C59.4082 220.176 58.8604 219.956 58.4912 219.517C58.1221 219.077 57.9375 218.453 57.9375 217.645L57.9375 211.747L56.2061 211.747L56.2061 210.49L57.9375 210.49L57.9375 208.188L59.5635 208.188ZM69.1172 220C69.0235 219.813 68.9473 219.479 68.8887 218.998C68.1328 219.783 67.2305 220.176 66.1817 220.176C65.2442 220.176 64.4737 219.912 63.8701 219.385C63.2725 218.852 62.9737 218.178 62.9737 217.363C62.9737 216.373 63.3487 215.605 64.0987 215.061C64.8545 214.51 65.9151 214.234 67.2803 214.234L68.8623 214.234L68.8623 213.487C68.8623 212.919 68.6924 212.468 68.3526 212.134C68.0127 211.794 67.5117 211.624 66.8496 211.624C66.2696 211.624 65.7832 211.771 65.3906 212.063C64.9981 212.356 64.8018 212.711 64.8018 213.127L63.167 213.127C63.167 212.652 63.334 212.195 63.668 211.756C64.0078 211.311 64.4649 210.959 65.0391 210.701C65.6192 210.443 66.2549 210.314 66.9463 210.314C68.042 210.314 68.9004 210.59 69.5215 211.141C70.1426 211.686 70.4649 212.438 70.4883 213.399L70.4883 217.776C70.4883 218.649 70.5996 219.344 70.8223 219.859L70.8223 220L69.1172 220ZM66.419 218.761C66.9287 218.761 67.4121 218.629 67.8692 218.365C68.3262 218.102 68.6572 217.759 68.8623 217.337L68.8623 215.386L67.5879 215.386C65.5957 215.386 64.5996 215.969 64.5996 217.135C64.5996 217.645 64.7696 218.043 65.1094 218.33C65.4492 218.617 65.8858 218.761 66.419 218.761ZM74.8037 220L73.1778 220L73.1778 206.5L74.8037 206.5L74.8037 220Z" fill="black"/>
<rect x="84" y="265" width="88" height="31" rx="15.5" fill="#FA8686"/>
<path d="M115.173 281.99L115.173 287L113.485 287L113.485 274.203L118.205 274.203C119.605 274.203 120.701 274.561 121.492 275.275C122.289 275.99 122.688 276.937 122.688 278.114C122.688 279.356 122.298 280.314 121.519 280.988C120.745 281.656 119.635 281.99 118.188 281.99L115.173 281.99ZM115.173 280.61L118.205 280.61C119.107 280.61 119.799 280.399 120.279 279.978C120.76 279.55 121 278.935 121 278.132C121 277.37 120.76 276.761 120.279 276.304C119.799 275.847 119.14 275.609 118.302 275.592L115.173 275.592L115.173 280.61ZM130.694 283.66L125.333 283.66L124.129 287L122.389 287L127.275 274.203L128.752 274.203L133.647 287L131.916 287L130.694 283.66ZM125.843 282.272L130.193 282.272L128.014 276.286L125.843 282.272ZM138.446 280.628L141.786 274.203L143.702 274.203L139.29 282.228L139.29 287L137.603 287L137.603 282.228L133.19 274.203L135.124 274.203L138.446 280.628Z" fill="black"/>
<path d="M50.9233 73.3423C50.9233 74.1086 50.7944 74.7782 50.5366 75.3511C50.2788 75.9204 49.9136 76.3555 49.4409 76.6563C48.9683 76.957 48.4168 77.1074 47.7866 77.1074C47.1707 77.1074 46.6247 76.957 46.1484 76.6563C45.6722 76.3519 45.3016 75.9204 45.0366 75.3618C44.7752 74.7996 44.641 74.1497 44.6338 73.4121L44.6338 72.8481C44.6338 72.0962 44.7645 71.432 45.0259 70.8555C45.2873 70.279 45.6561 69.8385 46.1323 69.5342C46.6121 69.2262 47.16 69.0723 47.7759 69.0723C48.4025 69.0723 48.9539 69.2244 49.4302 69.5288C49.91 69.8296 50.2788 70.2682 50.5366 70.8447C50.7944 71.4176 50.9233 72.0854 50.9233 72.8481L50.9233 73.3423ZM49.8975 72.8374C49.8975 71.91 49.7113 71.1992 49.3389 70.7051C48.9665 70.2074 48.4455 69.9585 47.7759 69.9585C47.1242 69.9585 46.6104 70.2074 46.2344 70.7051C45.862 71.1992 45.6704 71.8867 45.6597 72.7676L45.6597 73.3423C45.6597 74.241 45.8477 74.9482 46.2236 75.4639C46.6032 75.9759 47.1242 76.2319 47.7866 76.2319C48.4526 76.2319 48.9683 75.9902 49.3335 75.5068C49.6987 75.0199 49.8867 74.3234 49.8975 73.4175L49.8975 72.8374ZM55.1235 72.0801C54.9731 72.055 54.8102 72.0425 54.6348 72.0425C53.9831 72.0425 53.5409 72.32 53.3081 72.875L53.3081 77L52.3145 77L52.3145 71.1885L53.2813 71.1885L53.2974 71.8599C53.6232 71.3407 54.0851 71.0811 54.6831 71.0811C54.8765 71.0811 55.0233 71.1061 55.1235 71.1563L55.1235 72.0801ZM55.6929 74.0459C55.6929 73.1543 55.9041 72.4382 56.3267 71.8975C56.7492 71.3532 57.3024 71.0811 57.9863 71.0811C58.6667 71.0811 59.2056 71.3138 59.603 71.7793L59.603 68.75L60.5967 68.75L60.5967 77L59.6836 77L59.6353 76.377C59.2378 76.8639 58.6846 77.1074 57.9756 77.1074C57.3024 77.1074 56.7528 76.8317 56.3267 76.2803C55.9041 75.7288 55.6929 75.0091 55.6929 74.1211L55.6929 74.0459ZM56.6865 74.1587C56.6865 74.8175 56.8226 75.3332 57.0947 75.7056C57.3669 76.078 57.7428 76.2642 58.2227 76.2642C58.8529 76.2642 59.313 75.9813 59.603 75.4155L59.603 72.7461C59.3058 72.1982 58.8493 71.9243 58.2334 71.9243C57.7464 71.9243 57.3669 72.1123 57.0947 72.4883C56.8226 72.8643 56.6865 73.4211 56.6865 74.1587ZM64.5552 77.1074C63.7674 77.1074 63.1265 76.8496 62.6323 76.334C62.1382 75.8148 61.8911 75.1219 61.8911 74.2554L61.8911 74.0728C61.8911 73.4963 62.0003 72.9824 62.2188 72.5313C62.4408 72.0765 62.7487 71.722 63.1426 71.4678C63.54 71.21 63.9697 71.0811 64.4316 71.0811C65.1872 71.0811 65.7744 71.3299 66.1934 71.8276C66.6123 72.3254 66.8218 73.0379 66.8218 73.9653L66.8218 74.3789L62.8848 74.3789C62.8991 74.9518 63.0656 75.4155 63.3843 75.77C63.7065 76.1209 64.1147 76.2964 64.6089 76.2964C64.9598 76.2964 65.257 76.2248 65.5005 76.0815C65.744 75.9383 65.957 75.7485 66.1397 75.5122L66.7466 75.9849C66.2596 76.7332 65.5291 77.1074 64.5552 77.1074ZM64.4316 71.8975C64.0306 71.8975 63.694 72.0443 63.4219 72.3379C63.1497 72.6279 62.9814 73.0361 62.917 73.5625L65.8281 73.5625L65.8281 73.4873C65.7995 72.9824 65.6634 72.5921 65.4199 72.3164C65.1764 72.0371 64.847 71.8975 64.4316 71.8975ZM70.7856 72.0801C70.6353 72.055 70.4723 72.0425 70.2969 72.0425C69.6452 72.0425 69.203 72.32 68.9702 72.875L68.9702 77L67.9766 77L67.9766 71.1885L68.9434 71.1885L68.9595 71.8599C69.2853 71.3407 69.7472 71.0811 70.3452 71.0811C70.5386 71.0811 70.6854 71.1061 70.7856 71.1563L70.7856 72.0801ZM75.6948 77L74.6636 77L74.6636 69.1797L75.6948 69.1797L75.6948 77ZM77.5855 77L77.5855 69.1797L79.793 69.1797C80.4733 69.1797 81.0749 69.3301 81.5977 69.6309C82.1204 69.9316 82.5233 70.3595 82.8062 70.9146C83.0926 71.4696 83.2376 72.1069 83.2412 72.8267L83.2412 73.3262C83.2412 74.0638 83.098 74.7101 82.8115 75.2651C82.5286 75.8201 82.1222 76.2463 81.5923 76.5435C81.0659 76.8407 80.4518 76.9928 79.75 77L77.5855 77ZM78.6167 70.0283L78.6167 76.1567L79.7017 76.1567C80.4966 76.1567 81.1143 75.9097 81.5547 75.4155C81.9987 74.9214 82.2207 74.2178 82.2207 73.3047L82.2207 72.8481C82.2207 71.9601 82.0112 71.2708 81.5923 70.7803C81.1769 70.2861 80.5861 70.0355 79.8198 70.0283L78.6167 70.0283ZM87.3447 76.479C87.3447 76.3071 87.3949 76.1639 87.4951 76.0493C87.599 75.9347 87.7529 75.8774 87.957 75.8774C88.1611 75.8774 88.3151 75.9347 88.4189 76.0493C88.5264 76.1639 88.5801 76.3071 88.5801 76.479C88.5801 76.6437 88.5264 76.7816 88.4189 76.8926C88.3151 77.0036 88.1611 77.0591 87.957 77.0591C87.7529 77.0591 87.599 77.0036 87.4951 76.8926C87.3949 76.7816 87.3447 76.6437 87.3447 76.479ZM87.3501 71.7363C87.3501 71.5645 87.4002 71.4212 87.5005 71.3066C87.6043 71.1921 87.7583 71.1348 87.9624 71.1348C88.1665 71.1348 88.3205 71.1921 88.4243 71.3066C88.5317 71.4212 88.5855 71.5645 88.5855 71.7363C88.5855 71.901 88.5317 72.0389 88.4243 72.1499C88.3205 72.2609 88.1665 72.3164 87.9624 72.3164C87.7583 72.3164 87.6043 72.2609 87.5005 72.1499C87.4002 72.0389 87.3501 71.901 87.3501 71.7363ZM98.9409 73.3423C98.9409 74.1086 98.812 74.7782 98.5542 75.3511C98.2964 75.9204 97.9312 76.3555 97.4585 76.6563C96.9858 76.957 96.4344 77.1074 95.8042 77.1074C95.1883 77.1074 94.6423 76.957 94.166 76.6563C93.6898 76.3519 93.3192 75.9204 93.0542 75.3618C92.7928 74.7996 92.6585 74.1497 92.6514 73.4121L92.6514 72.8481C92.6514 72.0962 92.7821 71.432 93.0435 70.8555C93.3049 70.279 93.6737 69.8385 94.1499 69.5342C94.6297 69.2262 95.1776 69.0723 95.7935 69.0723C96.4201 69.0723 96.9715 69.2244 97.4478 69.5288C97.9276 69.8296 98.2964 70.2682 98.5542 70.8447C98.812 71.4176 98.9409 72.0854 98.9409 72.8481L98.9409 73.3423ZM97.915 72.8374C97.915 71.91 97.7288 71.1992 97.3564 70.7051C96.9841 70.2074 96.4631 69.9585 95.7935 69.9585C95.1418 69.9585 94.6279 70.2074 94.252 70.7051C93.8796 71.1992 93.688 71.8867 93.6772 72.7676L93.6772 73.3423C93.6772 74.241 93.8652 74.9482 94.2412 75.4639C94.6208 75.9759 95.1418 76.2319 95.8042 76.2319C96.4702 76.2319 96.9858 75.9902 97.3511 75.5068C97.7163 75.0199 97.9043 74.3234 97.915 73.4175L97.915 72.8374ZM103.356 73.8364L101.519 73.8364L101.519 77L100.482 77L100.482 69.1797L103.071 69.1797C103.952 69.1797 104.629 69.3802 105.102 69.7813C105.578 70.1823 105.816 70.766 105.816 71.5322C105.816 72.0192 105.683 72.4435 105.418 72.8052C105.157 73.1668 104.792 73.4372 104.323 73.6162L106.16 76.9355L106.16 77L105.053 77L103.356 73.8364ZM101.519 72.9932L103.104 72.9932C103.616 72.9932 104.022 72.8607 104.323 72.5957C104.627 72.3307 104.779 71.9762 104.779 71.5322C104.779 71.0488 104.634 70.6782 104.344 70.4204C104.058 70.1626 103.642 70.0319 103.098 70.0283L101.519 70.0283L101.519 72.9932ZM111.912 73.6646C111.912 74.8283 111.713 75.693 111.316 76.2588C110.918 76.8245 110.297 77.1074 109.452 77.1074C108.618 77.1074 108 76.8317 107.599 76.2803C107.198 75.7253 106.99 74.8981 106.976 73.7988L106.976 72.4722C106.976 71.3228 107.175 70.4688 107.572 69.9102C107.97 69.3516 108.593 69.0723 109.441 69.0723C110.283 69.0723 110.902 69.3426 111.3 69.8833C111.697 70.4204 111.901 71.2511 111.912 72.3755L111.912 73.6646ZM110.918 72.3057C110.918 71.4642 110.8 70.8519 110.564 70.4688C110.328 70.082 109.953 69.8887 109.441 69.8887C108.933 69.8887 108.562 70.0802 108.33 70.4634C108.097 70.8465 107.977 71.4355 107.97 72.2305L107.97 73.8203C107.97 74.6654 108.091 75.2902 108.335 75.6948C108.582 76.0959 108.954 76.2964 109.452 76.2964C109.943 76.2964 110.306 76.1066 110.542 75.7271C110.782 75.3475 110.908 74.7495 110.918 73.9331L110.918 72.3057ZM118.089 73.6646C118.089 74.8283 117.89 75.693 117.493 76.2588C117.095 76.8245 116.474 77.1074 115.629 77.1074C114.795 77.1074 114.177 76.8317 113.776 76.2803C113.375 75.7253 113.167 74.8981 113.153 73.7988L113.153 72.4722C113.153 71.3228 113.352 70.4688 113.749 69.9102C114.146 69.3516 114.77 69.0723 115.618 69.0723C116.46 69.0723 117.079 69.3426 117.477 69.8833C117.874 70.4204 118.078 71.2511 118.089 72.3755L118.089 73.6646ZM117.095 72.3057C117.095 71.4642 116.977 70.8519 116.741 70.4688C116.504 70.082 116.13 69.8887 115.618 69.8887C115.11 69.8887 114.739 70.0802 114.506 70.4634C114.274 70.8465 114.154 71.4355 114.146 72.2305L114.146 73.8203C114.146 74.6654 114.268 75.2902 114.512 75.6948C114.759 76.0959 115.131 76.2964 115.629 76.2964C116.119 76.2964 116.483 76.1066 116.719 75.7271C116.959 75.3475 117.084 74.7495 117.095 73.9331L117.095 72.3057ZM122.627 77L121.628 77L121.628 70.3774L119.625 71.1133L119.625 70.2109L122.472 69.1421L122.627 69.1421L122.627 77Z" fill="black"/>
</g>
<defs>
<clipPath id="clip0">
<rect width="255.801" height="384.133" fill="white" transform="translate(0 0.132843) rotate(-0.0297571)"/>
</clipPath>
</defs>
</svg>
