<svg width="256" height="385" viewBox="0 0 256 385" fill="none" xmlns="http://www.w3.org/2000/svg">
<g clip-path="url(#clip0)">
<rect width="255.801" height="384.133" transform="translate(0 0.132843) rotate(-0.0297571)" fill="#E5E5E5"/>
<rect width="256" height="384" fill="#FFE7D6"/>
<path d="M44.3301 51.4063L52.6973 72.2891L61.0645 51.4063L65.4414 51.4063L65.4414 77L62.0664 77L62.0664 67.0332L62.3828 56.2754L53.9805 77L51.3965 77L43.0117 56.3281L43.3457 67.0332L43.3457 77L39.9707 77L39.9707 51.4063L44.3301 51.4063ZM85.8672 65.1699L74.7754 65.1699L74.7754 74.2402L87.6602 74.2402L87.6602 77L71.4004 77L71.4004 51.4063L87.4844 51.4063L87.4844 54.1836L74.7754 54.1836L74.7754 62.4102L85.8672 62.4102L85.8672 65.1699ZM59.6406 119L56.248 119L43.3633 99.2773L43.3633 119L39.9707 119L39.9707 93.4063L43.3633 93.4063L56.2832 113.217L56.2832 93.4063L59.6406 93.4063L59.6406 119ZM83.6523 93.4063L83.6523 110.809C83.6406 113.223 82.8789 115.197 81.3672 116.732C79.8672 118.268 77.8281 119.129 75.25 119.316L74.3535 119.352C71.5527 119.352 69.3203 118.596 67.6562 117.084C65.9922 115.572 65.1484 113.492 65.125 110.844L65.125 93.4063L68.4648 93.4063L68.4648 110.738C68.4648 112.59 68.9746 114.031 69.9941 115.063C71.0137 116.082 72.4668 116.592 74.3535 116.592C76.2637 116.592 77.7227 116.082 78.7305 115.063C79.75 114.043 80.2598 112.607 80.2598 110.756L80.2598 93.4063L83.6523 93.4063Z" fill="black"/>
<path d="M50.5518 170.66L45.1904 170.66L43.9863 174L42.2461 174L47.1328 161.203L48.6094 161.203L53.5049 174L51.7734 174L50.5518 170.66ZM45.7002 169.271L50.0508 169.271L47.8711 163.286L45.7002 169.271ZM57.6445 171.618L59.8594 164.49L61.5996 164.49L57.7764 175.468C57.1846 177.05 56.2441 177.841 54.9551 177.841L54.6475 177.814L54.041 177.7L54.041 176.382L54.4805 176.417C55.0312 176.417 55.459 176.306 55.7637 176.083C56.0742 175.86 56.3291 175.453 56.5283 174.861L56.8887 173.895L53.4961 164.49L55.2715 164.49L57.6445 171.618ZM68.7891 174C68.6953 173.813 68.6191 173.479 68.5605 172.998C67.8047 173.783 66.9023 174.176 65.8535 174.176C64.916 174.176 64.1455 173.912 63.542 173.385C62.9443 172.852 62.6455 172.178 62.6455 171.363C62.6455 170.373 63.0205 169.605 63.7705 169.061C64.5264 168.51 65.5869 168.234 66.9521 168.234L68.5342 168.234L68.5342 167.487C68.5342 166.919 68.3643 166.468 68.0244 166.134C67.6846 165.794 67.1836 165.624 66.5215 165.624C65.9414 165.624 65.4551 165.771 65.0625 166.063C64.6699 166.356 64.4736 166.711 64.4736 167.127L62.8389 167.127C62.8389 166.652 63.0059 166.195 63.3398 165.756C63.6797 165.311 64.1367 164.959 64.7109 164.701C65.291 164.443 65.9268 164.314 66.6182 164.314C67.7139 164.314 68.5723 164.59 69.1934 165.141C69.8145 165.686 70.1367 166.438 70.1602 167.399L70.1602 171.776C70.1602 172.649 70.2715 173.344 70.4941 173.859L70.4941 174L68.7891 174ZM66.0908 172.761C66.6006 172.761 67.084 172.629 67.541 172.365C67.998 172.102 68.3291 171.759 68.5342 171.337L68.5342 169.386L67.2598 169.386C65.2676 169.386 64.2715 169.969 64.2715 171.135C64.2715 171.645 64.4414 172.043 64.7812 172.33C65.1211 172.617 65.5576 172.761 66.0908 172.761ZM74.2383 164.49L74.2822 165.545C74.9795 164.725 75.9199 164.314 77.1035 164.314C78.4336 164.314 79.3389 164.824 79.8193 165.844C80.1357 165.387 80.5459 165.018 81.0498 164.736C81.5596 164.455 82.1602 164.314 82.8516 164.314C84.9375 164.314 85.998 165.419 86.0332 167.628L86.0332 174L84.4072 174L84.4072 167.725C84.4072 167.045 84.252 166.538 83.9414 166.204C83.6309 165.864 83.1094 165.694 82.377 165.694C81.7734 165.694 81.2725 165.876 80.874 166.239C80.4756 166.597 80.2441 167.08 80.1797 167.689L80.1797 174L78.5449 174L78.5449 167.769C78.5449 166.386 77.8682 165.694 76.5146 165.694C75.4482 165.694 74.7187 166.148 74.3262 167.057L74.3262 174L72.7002 174L72.7002 164.49L74.2383 164.49ZM102.662 172.321C102.229 172.942 101.622 173.408 100.843 173.719C100.069 174.023 99.167 174.176 98.1357 174.176C97.0928 174.176 96.167 173.933 95.3584 173.446C94.5498 172.954 93.9229 172.257 93.4775 171.354C93.0381 170.452 92.8125 169.406 92.8008 168.217L92.8008 167.101C92.8008 165.173 93.249 163.679 94.1455 162.618C95.0479 161.558 96.3135 161.027 97.9424 161.027C99.2783 161.027 100.354 161.37 101.168 162.056C101.982 162.735 102.48 163.702 102.662 164.956L100.975 164.956C100.658 163.263 99.6504 162.416 97.9512 162.416C96.8203 162.416 95.9619 162.814 95.376 163.611C94.7959 164.402 94.5029 165.551 94.4971 167.057L94.4971 168.103C94.4971 169.538 94.8252 170.681 95.4814 171.53C96.1377 172.374 97.0254 172.796 98.1445 172.796C98.7773 172.796 99.3311 172.726 99.8057 172.585C100.28 172.444 100.673 172.207 100.983 171.873L100.983 168.999L98.0215 168.999L98.0215 167.628L102.662 167.628L102.662 172.321ZM104.798 169.157C104.798 168.226 104.979 167.388 105.343 166.644C105.712 165.899 106.222 165.325 106.872 164.921C107.528 164.517 108.275 164.314 109.113 164.314C110.408 164.314 111.454 164.763 112.251 165.659C113.054 166.556 113.455 167.748 113.455 169.236L113.455 169.351C113.455 170.276 113.276 171.108 112.919 171.847C112.567 172.579 112.061 173.15 111.398 173.561C110.742 173.971 109.986 174.176 109.131 174.176C107.842 174.176 106.796 173.728 105.993 172.831C105.196 171.935 104.798 170.748 104.798 169.271L104.798 169.157ZM106.433 169.351C106.433 170.405 106.676 171.252 107.162 171.891C107.654 172.529 108.311 172.849 109.131 172.849C109.957 172.849 110.613 172.526 111.1 171.882C111.586 171.231 111.829 170.323 111.829 169.157C111.829 168.114 111.58 167.271 111.082 166.626C110.59 165.976 109.934 165.65 109.113 165.65C108.311 165.65 107.663 165.97 107.171 166.608C106.679 167.247 106.433 168.161 106.433 169.351ZM120.091 165.949C119.845 165.908 119.578 165.888 119.291 165.888C118.225 165.888 117.501 166.342 117.12 167.25L117.12 174L115.494 174L115.494 164.49L117.076 164.49L117.103 165.589C117.636 164.739 118.392 164.314 119.37 164.314C119.687 164.314 119.927 164.355 120.091 164.438L120.091 165.949ZM125.364 174.176C124.075 174.176 123.026 173.754 122.218 172.91C121.409 172.061 121.005 170.927 121.005 169.509L121.005 169.21C121.005 168.267 121.184 167.426 121.541 166.688C121.904 165.943 122.408 165.363 123.053 164.947C123.703 164.525 124.406 164.314 125.162 164.314C126.398 164.314 127.359 164.722 128.045 165.536C128.73 166.351 129.073 167.517 129.073 169.034L129.073 169.711L122.631 169.711C122.654 170.648 122.927 171.407 123.448 171.987C123.976 172.562 124.644 172.849 125.452 172.849C126.026 172.849 126.513 172.731 126.911 172.497C127.31 172.263 127.658 171.952 127.957 171.565L128.95 172.339C128.153 173.563 126.958 174.176 125.364 174.176ZM125.162 165.65C124.506 165.65 123.955 165.891 123.51 166.371C123.064 166.846 122.789 167.514 122.684 168.375L127.447 168.375L127.447 168.252C127.4 167.426 127.178 166.787 126.779 166.336C126.381 165.879 125.842 165.65 125.162 165.65ZM132.501 164.49L132.554 165.686C133.28 164.771 134.229 164.314 135.401 164.314C137.411 164.314 138.425 165.448 138.442 167.716L138.442 174L136.816 174L136.816 167.707C136.811 167.021 136.652 166.515 136.342 166.187C136.037 165.858 135.56 165.694 134.909 165.694C134.382 165.694 133.919 165.835 133.521 166.116C133.122 166.397 132.812 166.767 132.589 167.224L132.589 174L130.963 174L130.963 164.49L132.501 164.49ZM140.508 169.166C140.508 167.684 140.851 166.506 141.536 165.633C142.222 164.754 143.13 164.314 144.261 164.314C145.421 164.314 146.326 164.725 146.977 165.545L147.056 164.49L148.541 164.49L148.541 173.771C148.541 175.002 148.175 175.972 147.442 176.681C146.716 177.39 145.737 177.744 144.507 177.744C143.821 177.744 143.15 177.598 142.494 177.305C141.838 177.012 141.337 176.61 140.991 176.101L141.835 175.125C142.532 175.986 143.385 176.417 144.393 176.417C145.184 176.417 145.799 176.194 146.238 175.749C146.684 175.304 146.906 174.677 146.906 173.868L146.906 173.051C146.256 173.801 145.368 174.176 144.243 174.176C143.13 174.176 142.228 173.728 141.536 172.831C140.851 171.935 140.508 170.713 140.508 169.166ZM142.143 169.351C142.143 170.423 142.362 171.267 142.802 171.882C143.241 172.491 143.856 172.796 144.647 172.796C145.673 172.796 146.426 172.33 146.906 171.398L146.906 167.057C146.408 166.148 145.661 165.694 144.665 165.694C143.874 165.694 143.256 166.002 142.811 166.617C142.365 167.232 142.143 168.144 142.143 169.351Z" fill="black"/>
<path d="M206.448 174L198.063 174L198.063 172.831L202.493 167.909C203.149 167.165 203.601 166.562 203.847 166.099C204.099 165.63 204.225 165.146 204.225 164.648C204.225 163.98 204.022 163.433 203.618 163.005C203.214 162.577 202.675 162.363 202.001 162.363C201.192 162.363 200.562 162.595 200.111 163.058C199.666 163.515 199.443 164.153 199.443 164.974L197.817 164.974C197.817 163.796 198.195 162.844 198.951 162.117C199.713 161.391 200.729 161.027 202.001 161.027C203.19 161.027 204.131 161.341 204.822 161.968C205.514 162.589 205.859 163.418 205.859 164.455C205.859 165.715 205.057 167.215 203.451 168.955L200.023 172.673L206.448 172.673L206.448 174ZM208.918 167.584L209.568 161.203L216.125 161.203L216.125 162.706L210.948 162.706L210.562 166.195C211.188 165.826 211.9 165.642 212.697 165.642C213.863 165.642 214.789 166.028 215.475 166.802C216.16 167.569 216.503 168.609 216.503 169.922C216.503 171.24 216.146 172.28 215.431 173.042C214.722 173.798 213.729 174.176 212.451 174.176C211.32 174.176 210.397 173.862 209.683 173.235C208.968 172.608 208.561 171.741 208.461 170.634L209.999 170.634C210.099 171.366 210.359 171.92 210.781 172.295C211.203 172.664 211.76 172.849 212.451 172.849C213.207 172.849 213.799 172.591 214.227 172.075C214.66 171.56 214.877 170.848 214.877 169.939C214.877 169.084 214.643 168.398 214.174 167.883C213.711 167.361 213.093 167.101 212.319 167.101C211.61 167.101 211.054 167.256 210.649 167.566L210.219 167.918L208.918 167.584ZM221.1 169.597L220.08 170.66L220.08 174L218.454 174L218.454 160.5L220.08 160.5L220.08 168.665L220.95 167.619L223.912 164.49L225.89 164.49L222.189 168.463L226.32 174L224.413 174L221.1 169.597Z" fill="black"/>
<path d="M200.428 200.811L201.649 200.811C202.417 200.799 203.021 200.597 203.46 200.204C203.899 199.812 204.119 199.281 204.119 198.613C204.119 197.113 203.372 196.363 201.878 196.363C201.175 196.363 200.612 196.565 200.19 196.97C199.774 197.368 199.566 197.898 199.566 198.561L197.94 198.561C197.94 197.547 198.31 196.706 199.048 196.038C199.792 195.364 200.735 195.027 201.878 195.027C203.085 195.027 204.031 195.347 204.717 195.985C205.402 196.624 205.745 197.512 205.745 198.648C205.745 199.205 205.563 199.744 205.2 200.266C204.843 200.787 204.354 201.177 203.732 201.435C204.436 201.657 204.978 202.026 205.358 202.542C205.745 203.058 205.938 203.687 205.938 204.432C205.938 205.58 205.563 206.491 204.813 207.165C204.063 207.839 203.088 208.176 201.887 208.176C200.686 208.176 199.707 207.851 198.951 207.2C198.201 206.55 197.826 205.691 197.826 204.625L199.461 204.625C199.461 205.299 199.681 205.838 200.12 206.242C200.56 206.646 201.148 206.849 201.887 206.849C202.672 206.849 203.272 206.644 203.688 206.233C204.104 205.823 204.312 205.234 204.312 204.467C204.312 203.723 204.084 203.151 203.627 202.753C203.17 202.354 202.511 202.149 201.649 202.138L200.428 202.138L200.428 200.811ZM216.195 202.542C216.195 204.446 215.87 205.861 215.22 206.787C214.569 207.713 213.553 208.176 212.17 208.176C210.805 208.176 209.794 207.725 209.138 206.822C208.481 205.914 208.142 204.561 208.118 202.762L208.118 200.591C208.118 198.71 208.443 197.312 209.094 196.398C209.744 195.484 210.764 195.027 212.152 195.027C213.529 195.027 214.543 195.47 215.193 196.354C215.844 197.233 216.178 198.593 216.195 200.433L216.195 202.542ZM214.569 200.318C214.569 198.941 214.376 197.939 213.989 197.312C213.603 196.68 212.99 196.363 212.152 196.363C211.32 196.363 210.714 196.677 210.333 197.304C209.952 197.931 209.756 198.895 209.744 200.195L209.744 202.797C209.744 204.18 209.943 205.202 210.342 205.864C210.746 206.521 211.355 206.849 212.17 206.849C212.973 206.849 213.567 206.538 213.954 205.917C214.347 205.296 214.552 204.317 214.569 202.981L214.569 200.318ZM221.1 203.597L220.08 204.66L220.08 208L218.454 208L218.454 194.5L220.08 194.5L220.08 202.665L220.95 201.619L223.912 198.49L225.89 198.49L222.189 202.463L226.32 208L224.413 208L221.1 203.597Z" fill="black"/>
<path d="M203.407 243L201.772 243L201.772 232.163L198.494 233.367L198.494 231.891L203.152 230.142L203.407 230.142L203.407 243ZM208.918 236.584L209.568 230.203L216.125 230.203L216.125 231.706L210.948 231.706L210.562 235.195C211.188 234.826 211.9 234.642 212.697 234.642C213.863 234.642 214.789 235.028 215.475 235.802C216.16 236.569 216.503 237.609 216.503 238.922C216.503 240.24 216.146 241.28 215.431 242.042C214.722 242.798 213.729 243.176 212.451 243.176C211.32 243.176 210.397 242.862 209.683 242.235C208.968 241.608 208.561 240.741 208.461 239.634L209.999 239.634C210.099 240.366 210.359 240.92 210.781 241.295C211.203 241.664 211.76 241.849 212.451 241.849C213.207 241.849 213.799 241.591 214.227 241.075C214.66 240.56 214.877 239.848 214.877 238.939C214.877 238.084 214.643 237.398 214.174 236.883C213.711 236.361 213.093 236.101 212.319 236.101C211.61 236.101 211.054 236.256 210.649 236.566L210.219 236.918L208.918 236.584ZM221.1 238.597L220.08 239.66L220.08 243L218.454 243L218.454 229.5L220.08 229.5L220.08 237.665L220.95 236.619L223.912 233.49L225.89 233.49L222.189 237.463L226.32 243L224.413 243L221.1 238.597Z" fill="black"/>
<path d="M205.928 273.702L207.703 273.702L207.703 275.029L205.928 275.029L205.928 278L204.293 278L204.293 275.029L198.466 275.029L198.466 274.071L204.196 265.203L205.928 265.203L205.928 273.702ZM200.312 273.702L204.293 273.702L204.293 267.427L204.1 267.778L200.312 273.702ZM209.918 271.584L210.568 265.203L217.125 265.203L217.125 266.706L211.948 266.706L211.562 270.195C212.188 269.826 212.9 269.642 213.697 269.642C214.863 269.642 215.789 270.028 216.475 270.802C217.16 271.569 217.503 272.609 217.503 273.922C217.503 275.24 217.146 276.28 216.431 277.042C215.722 277.798 214.729 278.176 213.451 278.176C212.32 278.176 211.397 277.862 210.683 277.235C209.968 276.608 209.561 275.741 209.461 274.634L210.999 274.634C211.099 275.366 211.359 275.92 211.781 276.295C212.203 276.664 212.76 276.849 213.451 276.849C214.207 276.849 214.799 276.591 215.227 276.075C215.66 275.56 215.877 274.848 215.877 273.939C215.877 273.084 215.643 272.398 215.174 271.883C214.711 271.361 214.093 271.101 213.319 271.101C212.61 271.101 212.054 271.256 211.649 271.566L211.219 271.918L209.918 271.584ZM222.1 273.597L221.08 274.66L221.08 278L219.454 278L219.454 264.5L221.08 264.5L221.08 272.665L221.95 271.619L224.912 268.49L226.89 268.49L223.189 272.463L227.32 278L225.413 278L222.1 273.597Z" fill="black"/>
<path d="M45.2959 208L43.6084 208L43.6084 195.203L45.2959 195.203L45.2959 208ZM50.7891 203.597L49.7695 204.66L49.7695 208L48.1436 208L48.1436 194.5L49.7695 194.5L49.7695 202.665L50.6396 201.619L53.6016 198.49L55.5791 198.49L51.8789 202.463L56.0098 208L54.1025 208L50.7891 203.597ZM63.1289 208C63.0352 207.813 62.959 207.479 62.9004 206.998C62.1445 207.783 61.2422 208.176 60.1934 208.176C59.2559 208.176 58.4854 207.912 57.8818 207.385C57.2842 206.852 56.9854 206.178 56.9854 205.363C56.9854 204.373 57.3604 203.605 58.1104 203.061C58.8662 202.51 59.9268 202.234 61.292 202.234L62.874 202.234L62.874 201.487C62.874 200.919 62.7041 200.468 62.3643 200.134C62.0244 199.794 61.5234 199.624 60.8613 199.624C60.2812 199.624 59.7949 199.771 59.4023 200.063C59.0098 200.356 58.8135 200.711 58.8135 201.127L57.1787 201.127C57.1787 200.652 57.3457 200.195 57.6797 199.756C58.0195 199.311 58.4766 198.959 59.0508 198.701C59.6309 198.443 60.2666 198.314 60.958 198.314C62.0537 198.314 62.9121 198.59 63.5332 199.141C64.1543 199.686 64.4766 200.438 64.5 201.399L64.5 205.776C64.5 206.649 64.6113 207.344 64.834 207.859L64.834 208L63.1289 208ZM60.4307 206.761C60.9404 206.761 61.4238 206.629 61.8809 206.365C62.3379 206.102 62.6689 205.759 62.874 205.337L62.874 203.386L61.5996 203.386C59.6074 203.386 58.6113 203.969 58.6113 205.135C58.6113 205.645 58.7812 206.043 59.1211 206.33C59.4609 206.617 59.8975 206.761 60.4307 206.761ZM68.5869 198.49L68.6396 199.686C69.3662 198.771 70.3154 198.314 71.4873 198.314C73.4971 198.314 74.5107 199.448 74.5283 201.716L74.5283 208L72.9023 208L72.9023 201.707C72.8965 201.021 72.7383 200.515 72.4277 200.187C72.123 199.858 71.6455 199.694 70.9951 199.694C70.4678 199.694 70.0049 199.835 69.6064 200.116C69.208 200.397 68.8975 200.767 68.6748 201.224L68.6748 208L67.0488 208L67.0488 198.49L68.5869 198.49ZM91.1484 206.321C90.7148 206.942 90.1084 207.408 89.3291 207.719C88.5557 208.023 87.6533 208.176 86.6221 208.176C85.5791 208.176 84.6533 207.933 83.8447 207.446C83.0361 206.954 82.4092 206.257 81.9639 205.354C81.5244 204.452 81.2988 203.406 81.2871 202.217L81.2871 201.101C81.2871 199.173 81.7354 197.679 82.6318 196.618C83.5342 195.558 84.7998 195.027 86.4287 195.027C87.7646 195.027 88.8398 195.37 89.6543 196.056C90.4687 196.735 90.9668 197.702 91.1484 198.956L89.4609 198.956C89.1445 197.263 88.1367 196.416 86.4375 196.416C85.3066 196.416 84.4482 196.814 83.8623 197.611C83.2822 198.402 82.9893 199.551 82.9834 201.057L82.9834 202.103C82.9834 203.538 83.3115 204.681 83.9678 205.53C84.624 206.374 85.5117 206.796 86.6309 206.796C87.2637 206.796 87.8174 206.726 88.292 206.585C88.7666 206.444 89.1592 206.207 89.4697 205.873L89.4697 202.999L86.5078 202.999L86.5078 201.628L91.1484 201.628L91.1484 206.321ZM93.2842 203.157C93.2842 202.226 93.4658 201.388 93.8291 200.644C94.1982 199.899 94.708 199.325 95.3584 198.921C96.0146 198.517 96.7617 198.314 97.5996 198.314C98.8945 198.314 99.9404 198.763 100.737 199.659C101.54 200.556 101.941 201.748 101.941 203.236L101.941 203.351C101.941 204.276 101.763 205.108 101.405 205.847C101.054 206.579 100.547 207.15 99.8848 207.561C99.2285 207.971 98.4727 208.176 97.6172 208.176C96.3281 208.176 95.2822 207.728 94.4795 206.831C93.6826 205.935 93.2842 204.748 93.2842 203.271L93.2842 203.157ZM94.9189 203.351C94.9189 204.405 95.1621 205.252 95.6484 205.891C96.1406 206.529 96.7969 206.849 97.6172 206.849C98.4434 206.849 99.0996 206.526 99.5859 205.882C100.072 205.231 100.315 204.323 100.315 203.157C100.315 202.114 100.066 201.271 99.5684 200.626C99.0762 199.976 98.4199 199.65 97.5996 199.65C96.7969 199.65 96.1494 199.97 95.6572 200.608C95.165 201.247 94.9189 202.161 94.9189 203.351ZM108.577 199.949C108.331 199.908 108.064 199.888 107.777 199.888C106.711 199.888 105.987 200.342 105.606 201.25L105.606 208L103.98 208L103.98 198.49L105.562 198.49L105.589 199.589C106.122 198.739 106.878 198.314 107.856 198.314C108.173 198.314 108.413 198.355 108.577 198.438L108.577 199.949ZM113.851 208.176C112.562 208.176 111.513 207.754 110.704 206.91C109.896 206.061 109.491 204.927 109.491 203.509L109.491 203.21C109.491 202.267 109.67 201.426 110.027 200.688C110.391 199.943 110.895 199.363 111.539 198.947C112.189 198.525 112.893 198.314 113.648 198.314C114.885 198.314 115.846 198.722 116.531 199.536C117.217 200.351 117.56 201.517 117.56 203.034L117.56 203.711L111.117 203.711C111.141 204.648 111.413 205.407 111.935 205.987C112.462 206.562 113.13 206.849 113.938 206.849C114.513 206.849 114.999 206.731 115.397 206.497C115.796 206.263 116.145 205.952 116.443 205.565L117.437 206.339C116.64 207.563 115.444 208.176 113.851 208.176ZM113.648 199.65C112.992 199.65 112.441 199.891 111.996 200.371C111.551 200.846 111.275 201.514 111.17 202.375L115.934 202.375L115.934 202.252C115.887 201.426 115.664 200.787 115.266 200.336C114.867 199.879 114.328 199.65 113.648 199.65ZM120.987 198.49L121.04 199.686C121.767 198.771 122.716 198.314 123.888 198.314C125.897 198.314 126.911 199.448 126.929 201.716L126.929 208L125.303 208L125.303 201.707C125.297 201.021 125.139 200.515 124.828 200.187C124.523 199.858 124.046 199.694 123.396 199.694C122.868 199.694 122.405 199.835 122.007 200.116C121.608 200.397 121.298 200.767 121.075 201.224L121.075 208L119.449 208L119.449 198.49L120.987 198.49ZM128.994 203.166C128.994 201.684 129.337 200.506 130.022 199.633C130.708 198.754 131.616 198.314 132.747 198.314C133.907 198.314 134.812 198.725 135.463 199.545L135.542 198.49L137.027 198.49L137.027 207.771C137.027 209.002 136.661 209.972 135.929 210.681C135.202 211.39 134.224 211.744 132.993 211.744C132.308 211.744 131.637 211.598 130.98 211.305C130.324 211.012 129.823 210.61 129.478 210.101L130.321 209.125C131.019 209.986 131.871 210.417 132.879 210.417C133.67 210.417 134.285 210.194 134.725 209.749C135.17 209.304 135.393 208.677 135.393 207.868L135.393 207.051C134.742 207.801 133.854 208.176 132.729 208.176C131.616 208.176 130.714 207.728 130.022 206.831C129.337 205.935 128.994 204.713 128.994 203.166ZM130.629 203.351C130.629 204.423 130.849 205.267 131.288 205.882C131.728 206.491 132.343 206.796 133.134 206.796C134.159 206.796 134.912 206.33 135.393 205.398L135.393 201.057C134.895 200.148 134.147 199.694 133.151 199.694C132.36 199.694 131.742 200.002 131.297 200.617C130.852 201.232 130.629 202.144 130.629 203.351Z" fill="black"/>
<path d="M52.3271 231.592L48.2139 231.592L48.2139 243L46.5352 243L46.5352 231.592L42.4307 231.592L42.4307 230.203L52.3271 230.203L52.3271 231.592ZM58.998 242.06C58.3652 242.804 57.4365 243.176 56.2119 243.176C55.1982 243.176 54.4248 242.883 53.8916 242.297C53.3643 241.705 53.0977 240.832 53.0918 239.678L53.0918 233.49L54.7178 233.49L54.7178 239.634C54.7178 241.075 55.3037 241.796 56.4756 241.796C57.7178 241.796 58.5439 241.333 58.9541 240.407L58.9541 233.49L60.5801 233.49L60.5801 243L59.0332 243L58.998 242.06ZM64.5879 233.49L64.6318 234.545C65.3291 233.725 66.2695 233.314 67.4531 233.314C68.7832 233.314 69.6885 233.824 70.1689 234.844C70.4854 234.387 70.8955 234.018 71.3994 233.736C71.9092 233.455 72.5098 233.314 73.2012 233.314C75.2871 233.314 76.3477 234.419 76.3828 236.628L76.3828 243L74.7568 243L74.7568 236.725C74.7568 236.045 74.6016 235.538 74.291 235.204C73.9805 234.864 73.459 234.694 72.7266 234.694C72.123 234.694 71.6221 234.876 71.2236 235.239C70.8252 235.597 70.5937 236.08 70.5293 236.689L70.5293 243L68.8945 243L68.8945 236.769C68.8945 235.386 68.2178 234.694 66.8643 234.694C65.7979 234.694 65.0684 235.148 64.6758 236.057L64.6758 243L63.0498 243L63.0498 233.49L64.5879 233.49ZM80.6104 243L78.9844 243L78.9844 233.49L80.6104 233.49L80.6104 243ZM78.8525 230.968C78.8525 230.704 78.9316 230.481 79.0898 230.3C79.2539 230.118 79.4941 230.027 79.8105 230.027C80.127 230.027 80.3672 230.118 80.5312 230.3C80.6953 230.481 80.7773 230.704 80.7773 230.968C80.7773 231.231 80.6953 231.451 80.5312 231.627C80.3672 231.803 80.127 231.891 79.8105 231.891C79.4941 231.891 79.2539 231.803 79.0898 231.627C78.9316 231.451 78.8525 231.231 78.8525 230.968ZM88.7578 240.478C88.7578 240.038 88.5908 239.698 88.2568 239.458C87.9287 239.212 87.3516 239.001 86.5254 238.825C85.7051 238.649 85.0518 238.438 84.5654 238.192C84.085 237.946 83.7275 237.653 83.4932 237.313C83.2646 236.974 83.1504 236.569 83.1504 236.101C83.1504 235.321 83.4785 234.662 84.1348 234.123C84.7969 233.584 85.6406 233.314 86.666 233.314C87.7441 233.314 88.6172 233.593 89.2852 234.149C89.959 234.706 90.2959 235.418 90.2959 236.285L88.6611 236.285C88.6611 235.84 88.4707 235.456 88.0898 235.134C87.7148 234.812 87.2402 234.65 86.666 234.65C86.0742 234.65 85.6113 234.779 85.2773 235.037C84.9434 235.295 84.7764 235.632 84.7764 236.048C84.7764 236.44 84.9316 236.736 85.2422 236.936C85.5527 237.135 86.1123 237.325 86.9209 237.507C87.7354 237.688 88.3945 237.905 88.8984 238.157C89.4023 238.409 89.7744 238.714 90.0146 239.071C90.2607 239.423 90.3838 239.854 90.3838 240.363C90.3838 241.213 90.0439 241.896 89.3643 242.411C88.6846 242.921 87.8027 243.176 86.7187 243.176C85.957 243.176 85.2832 243.041 84.6973 242.771C84.1113 242.502 83.6514 242.127 83.3174 241.646C82.9893 241.16 82.8252 240.636 82.8252 240.073L84.4512 240.073C84.4805 240.618 84.6973 241.052 85.1016 241.374C85.5117 241.69 86.0508 241.849 86.7187 241.849C87.334 241.849 87.8262 241.726 88.1953 241.479C88.5703 241.228 88.7578 240.894 88.7578 240.478ZM100.474 237.05L98.9092 238.676L98.9092 243L97.2217 243L97.2217 230.203L98.9092 230.203L98.9092 236.531L104.596 230.203L106.635 230.203L101.599 235.854L107.03 243L105.009 243L100.474 237.05ZM114.123 243C114.029 242.812 113.953 242.479 113.895 241.998C113.139 242.783 112.236 243.176 111.187 243.176C110.25 243.176 109.479 242.912 108.876 242.385C108.278 241.852 107.979 241.178 107.979 240.363C107.979 239.373 108.354 238.605 109.104 238.061C109.86 237.51 110.921 237.234 112.286 237.234L113.868 237.234L113.868 236.487C113.868 235.919 113.698 235.468 113.358 235.134C113.019 234.794 112.518 234.624 111.855 234.624C111.275 234.624 110.789 234.771 110.396 235.063C110.004 235.356 109.808 235.711 109.808 236.127L108.173 236.127C108.173 235.652 108.34 235.195 108.674 234.756C109.014 234.311 109.471 233.959 110.045 233.701C110.625 233.443 111.261 233.314 111.952 233.314C113.048 233.314 113.906 233.59 114.527 234.141C115.148 234.686 115.471 235.438 115.494 236.399L115.494 240.776C115.494 241.649 115.605 242.344 115.828 242.859L115.828 243L114.123 243ZM111.425 241.761C111.935 241.761 112.418 241.629 112.875 241.365C113.332 241.102 113.663 240.759 113.868 240.337L113.868 238.386L112.594 238.386C110.602 238.386 109.605 238.969 109.605 240.135C109.605 240.645 109.775 241.043 110.115 241.33C110.455 241.617 110.892 241.761 111.425 241.761ZM119.581 233.49L119.634 234.686C120.36 233.771 121.31 233.314 122.481 233.314C124.491 233.314 125.505 234.448 125.522 236.716L125.522 243L123.896 243L123.896 236.707C123.891 236.021 123.732 235.515 123.422 235.187C123.117 234.858 122.64 234.694 121.989 234.694C121.462 234.694 120.999 234.835 120.601 235.116C120.202 235.397 119.892 235.767 119.669 236.224L119.669 243L118.043 243L118.043 233.49L119.581 233.49ZM127.588 238.166C127.588 236.684 127.931 235.506 128.616 234.633C129.302 233.754 130.21 233.314 131.341 233.314C132.501 233.314 133.406 233.725 134.057 234.545L134.136 233.49L135.621 233.49L135.621 242.771C135.621 244.002 135.255 244.972 134.522 245.681C133.796 246.39 132.817 246.744 131.587 246.744C130.901 246.744 130.23 246.598 129.574 246.305C128.918 246.012 128.417 245.61 128.071 245.101L128.915 244.125C129.612 244.986 130.465 245.417 131.473 245.417C132.264 245.417 132.879 245.194 133.318 244.749C133.764 244.304 133.986 243.677 133.986 242.868L133.986 242.051C133.336 242.801 132.448 243.176 131.323 243.176C130.21 243.176 129.308 242.728 128.616 241.831C127.931 240.935 127.588 239.713 127.588 238.166ZM129.223 238.351C129.223 239.423 129.442 240.267 129.882 240.882C130.321 241.491 130.937 241.796 131.728 241.796C132.753 241.796 133.506 241.33 133.986 240.398L133.986 236.057C133.488 235.148 132.741 234.694 131.745 234.694C130.954 234.694 130.336 235.002 129.891 235.617C129.445 236.232 129.223 237.144 129.223 238.351ZM140.736 238.597L139.717 239.66L139.717 243L138.091 243L138.091 229.5L139.717 229.5L139.717 237.665L140.587 236.619L143.549 233.49L145.526 233.49L141.826 237.463L145.957 243L144.05 243L140.736 238.597ZM153.076 242.06C152.443 242.804 151.515 243.176 150.29 243.176C149.276 243.176 148.503 242.883 147.97 242.297C147.442 241.705 147.176 240.832 147.17 239.678L147.17 233.49L148.796 233.49L148.796 239.634C148.796 241.075 149.382 241.796 150.554 241.796C151.796 241.796 152.622 241.333 153.032 240.407L153.032 233.49L154.658 233.49L154.658 243L153.111 243L153.076 242.06ZM158.675 233.49L158.728 234.686C159.454 233.771 160.403 233.314 161.575 233.314C163.585 233.314 164.599 234.448 164.616 236.716L164.616 243L162.99 243L162.99 236.707C162.984 236.021 162.826 235.515 162.516 235.187C162.211 234.858 161.733 234.694 161.083 234.694C160.556 234.694 160.093 234.835 159.694 235.116C159.296 235.397 158.985 235.767 158.763 236.224L158.763 243L157.137 243L157.137 233.49L158.675 233.49ZM166.682 238.166C166.682 236.684 167.024 235.506 167.71 234.633C168.396 233.754 169.304 233.314 170.435 233.314C171.595 233.314 172.5 233.725 173.15 234.545L173.229 233.49L174.715 233.49L174.715 242.771C174.715 244.002 174.349 244.972 173.616 245.681C172.89 246.39 171.911 246.744 170.681 246.744C169.995 246.744 169.324 246.598 168.668 246.305C168.012 246.012 167.511 245.61 167.165 245.101L168.009 244.125C168.706 244.986 169.559 245.417 170.566 245.417C171.357 245.417 171.973 245.194 172.412 244.749C172.857 244.304 173.08 243.677 173.08 242.868L173.08 242.051C172.43 242.801 171.542 243.176 170.417 243.176C169.304 243.176 168.401 242.728 167.71 241.831C167.024 240.935 166.682 239.713 166.682 238.166ZM168.316 238.351C168.316 239.423 168.536 240.267 168.976 240.882C169.415 241.491 170.03 241.796 170.821 241.796C171.847 241.796 172.6 241.33 173.08 240.398L173.08 236.057C172.582 235.148 171.835 234.694 170.839 234.694C170.048 234.694 169.43 235.002 168.984 235.617C168.539 236.232 168.316 237.144 168.316 238.351Z" fill="black"/>
<rect width="148.999" height="31.005" rx="15.5025" transform="matrix(1 -0.000171946 -0.000257047 1 58.0241 327.093)" fill="#FA8686"/>
<path d="M72.1013 347.081L75.3513 337.698L76.9919 337.698L72.7732 349.073L71.445 349.073L67.2341 337.698L68.8669 337.698L72.1013 347.081ZM79.8669 349.073L78.4216 349.073L78.4216 340.62L79.8669 340.62L79.8669 349.073ZM78.3044 338.378C78.3044 338.143 78.3747 337.945 78.5154 337.784C78.6612 337.622 78.8747 337.542 79.156 337.542C79.4372 337.542 79.6508 337.622 79.7966 337.784C79.9424 337.945 80.0154 338.143 80.0154 338.378C80.0154 338.612 79.9424 338.807 79.7966 338.963C79.6508 339.12 79.4372 339.198 79.156 339.198C78.8747 339.198 78.6612 339.12 78.5154 338.963C78.3747 338.807 78.3044 338.612 78.3044 338.378ZM85.695 349.229C84.5492 349.229 83.6169 348.854 82.8982 348.104C82.1794 347.349 81.82 346.341 81.82 345.081L81.82 344.815C81.82 343.976 81.9789 343.229 82.2966 342.573C82.6195 341.911 83.0674 341.396 83.6404 341.026C84.2185 340.651 84.8435 340.463 85.5154 340.463C86.6143 340.463 87.4685 340.825 88.0779 341.549C88.6872 342.273 88.9919 343.31 88.9919 344.659L88.9919 345.26L83.2654 345.26C83.2862 346.094 83.5284 346.768 83.9919 347.284C84.4607 347.794 85.0544 348.049 85.7732 348.049C86.2836 348.049 86.7159 347.945 87.07 347.737C87.4242 347.529 87.7341 347.253 87.9997 346.909L88.8825 347.596C88.1742 348.685 87.1117 349.229 85.695 349.229ZM85.5154 341.651C84.932 341.651 84.4424 341.865 84.0466 342.292C83.6508 342.713 83.406 343.307 83.3122 344.073L87.5466 344.073L87.5466 343.963C87.5049 343.229 87.307 342.661 86.9529 342.26C86.5987 341.854 86.1195 341.651 85.5154 341.651ZM98.156 347.081L99.781 340.62L101.226 340.62L98.7654 349.073L97.5935 349.073L95.5388 342.667L93.5388 349.073L92.3669 349.073L89.9138 340.62L91.3513 340.62L93.0154 346.948L94.9841 340.62L96.1482 340.62L98.156 347.081ZM108.398 344.62L108.398 349.073L106.898 349.073L106.898 337.698L111.093 337.698C112.338 337.698 113.312 338.016 114.015 338.651C114.724 339.286 115.078 340.128 115.078 341.174C115.078 342.279 114.731 343.13 114.039 343.729C113.351 344.323 112.364 344.62 111.078 344.62L108.398 344.62ZM108.398 343.393L111.093 343.393C111.896 343.393 112.51 343.206 112.937 342.831C113.364 342.45 113.578 341.904 113.578 341.19C113.578 340.513 113.364 339.971 112.937 339.565C112.51 339.159 111.924 338.948 111.179 338.932L108.398 338.932L108.398 343.393ZM120.164 349.229C119.018 349.229 118.086 348.854 117.367 348.104C116.648 347.349 116.289 346.341 116.289 345.081L116.289 344.815C116.289 343.976 116.448 343.229 116.765 342.573C117.088 341.911 117.536 341.396 118.109 341.026C118.687 340.651 119.312 340.463 119.984 340.463C121.083 340.463 121.937 340.825 122.547 341.549C123.156 342.273 123.461 343.31 123.461 344.659L123.461 345.26L117.734 345.26C117.755 346.094 117.997 346.768 118.461 347.284C118.929 347.794 119.523 348.049 120.242 348.049C120.752 348.049 121.185 347.945 121.539 347.737C121.893 347.529 122.203 347.253 122.468 346.909L123.351 347.596C122.643 348.685 121.58 349.229 120.164 349.229ZM119.984 341.651C119.401 341.651 118.911 341.865 118.515 342.292C118.12 342.713 117.875 343.307 117.781 344.073L122.015 344.073L122.015 343.963C121.974 343.229 121.776 342.661 121.422 342.26C121.067 341.854 120.588 341.651 119.984 341.651ZM129.226 341.917C129.008 341.88 128.771 341.862 128.515 341.862C127.567 341.862 126.924 342.266 126.586 343.073L126.586 349.073L125.14 349.073L125.14 340.62L126.547 340.62L126.57 341.596C127.044 340.841 127.716 340.463 128.586 340.463C128.867 340.463 129.08 340.5 129.226 340.573L129.226 341.917ZM135.484 346.831C135.484 346.44 135.336 346.138 135.039 345.924C134.747 345.706 134.234 345.518 133.5 345.362C132.771 345.206 132.19 345.018 131.758 344.799C131.33 344.581 131.013 344.32 130.804 344.018C130.601 343.716 130.5 343.357 130.5 342.94C130.5 342.247 130.791 341.661 131.375 341.182C131.963 340.703 132.713 340.463 133.625 340.463C134.583 340.463 135.359 340.711 135.953 341.206C136.552 341.7 136.851 342.333 136.851 343.104L135.398 343.104C135.398 342.708 135.229 342.367 134.89 342.081C134.557 341.794 134.135 341.651 133.625 341.651C133.099 341.651 132.687 341.766 132.39 341.995C132.093 342.224 131.945 342.523 131.945 342.893C131.945 343.242 132.083 343.505 132.359 343.682C132.635 343.859 133.133 344.029 133.851 344.19C134.575 344.351 135.161 344.544 135.609 344.768C136.057 344.992 136.388 345.263 136.601 345.581C136.82 345.893 136.929 346.276 136.929 346.729C136.929 347.484 136.627 348.091 136.023 348.549C135.419 349.003 134.635 349.229 133.672 349.229C132.995 349.229 132.396 349.109 131.875 348.87C131.354 348.63 130.945 348.297 130.648 347.87C130.356 347.437 130.211 346.971 130.211 346.471L131.656 346.471C131.682 346.956 131.875 347.341 132.234 347.628C132.599 347.909 133.078 348.049 133.672 348.049C134.218 348.049 134.656 347.94 134.984 347.721C135.317 347.497 135.484 347.2 135.484 346.831ZM138.429 344.768C138.429 343.94 138.591 343.195 138.914 342.534C139.242 341.872 139.695 341.362 140.273 341.003C140.856 340.643 141.521 340.463 142.265 340.463C143.416 340.463 144.346 340.862 145.054 341.659C145.768 342.456 146.125 343.516 146.125 344.838L146.125 344.94C146.125 345.763 145.966 346.503 145.648 347.159C145.336 347.81 144.885 348.318 144.297 348.682C143.713 349.047 143.041 349.229 142.281 349.229C141.135 349.229 140.205 348.831 139.492 348.034C138.784 347.237 138.429 346.182 138.429 344.87L138.429 344.768ZM139.883 344.94C139.883 345.878 140.099 346.63 140.531 347.198C140.968 347.766 141.552 348.049 142.281 348.049C143.015 348.049 143.599 347.763 144.031 347.19C144.463 346.612 144.679 345.805 144.679 344.768C144.679 343.841 144.458 343.091 144.015 342.518C143.578 341.94 142.995 341.651 142.265 341.651C141.552 341.651 140.976 341.935 140.539 342.503C140.101 343.07 139.883 343.883 139.883 344.94ZM149.304 340.62L149.351 341.682C149.997 340.87 150.841 340.463 151.883 340.463C153.669 340.463 154.57 341.471 154.586 343.487L154.586 349.073L153.14 349.073L153.14 343.479C153.135 342.87 152.995 342.419 152.718 342.128C152.448 341.836 152.023 341.69 151.445 341.69C150.976 341.69 150.565 341.815 150.211 342.065C149.856 342.315 149.58 342.643 149.383 343.049L149.383 349.073L147.937 349.073L147.937 340.62L149.304 340.62ZM161.984 349.073C161.901 348.906 161.833 348.609 161.781 348.182C161.109 348.88 160.307 349.229 159.375 349.229C158.541 349.229 157.856 348.995 157.32 348.526C156.789 348.052 156.523 347.453 156.523 346.729C156.523 345.849 156.856 345.167 157.523 344.682C158.195 344.193 159.138 343.948 160.351 343.948L161.758 343.948L161.758 343.284C161.758 342.779 161.606 342.378 161.304 342.081C161.002 341.779 160.557 341.628 159.968 341.628C159.453 341.628 159.021 341.758 158.672 342.018C158.323 342.279 158.148 342.594 158.148 342.963L156.695 342.963C156.695 342.542 156.843 342.135 157.14 341.745C157.442 341.349 157.849 341.036 158.359 340.807C158.875 340.578 159.44 340.463 160.054 340.463C161.028 340.463 161.791 340.708 162.343 341.198C162.896 341.682 163.182 342.351 163.203 343.206L163.203 347.096C163.203 347.872 163.302 348.49 163.5 348.948L163.5 349.073L161.984 349.073ZM159.586 347.971C160.039 347.971 160.468 347.854 160.875 347.62C161.281 347.385 161.575 347.081 161.758 346.706L161.758 344.971L160.625 344.971C158.854 344.971 157.968 345.49 157.968 346.526C157.968 346.979 158.12 347.333 158.422 347.588C158.724 347.844 159.112 347.971 159.586 347.971ZM167.039 349.073L165.593 349.073L165.593 337.073L167.039 337.073L167.039 349.073ZM175.164 349.073L173.664 349.073L173.664 337.698L175.164 337.698L175.164 349.073ZM179.054 340.62L179.101 341.682C179.747 340.87 180.591 340.463 181.633 340.463C183.419 340.463 184.32 341.471 184.336 343.487L184.336 349.073L182.89 349.073L182.89 343.479C182.885 342.87 182.745 342.419 182.468 342.128C182.198 341.836 181.773 341.69 181.195 341.69C180.726 341.69 180.315 341.815 179.961 342.065C179.606 342.315 179.33 342.643 179.133 343.049L179.133 349.073L177.687 349.073L177.687 340.62L179.054 340.62ZM187.226 349.073L187.226 341.737L185.89 341.737L185.89 340.62L187.226 340.62L187.226 339.753C187.226 338.846 187.468 338.146 187.953 337.651C188.437 337.156 189.122 336.909 190.008 336.909C190.341 336.909 190.672 336.953 191 337.042L190.922 338.213C190.677 338.167 190.416 338.143 190.14 338.143C189.672 338.143 189.31 338.281 189.054 338.557C188.799 338.828 188.672 339.219 188.672 339.729L188.672 340.62L190.476 340.62L190.476 341.737L188.672 341.737L188.672 349.073L187.226 349.073ZM191.695 344.768C191.695 343.94 191.856 343.195 192.179 342.534C192.508 341.872 192.961 341.362 193.539 341.003C194.122 340.643 194.786 340.463 195.531 340.463C196.682 340.463 197.612 340.862 198.32 341.659C199.034 342.456 199.39 343.516 199.39 344.838L199.39 344.94C199.39 345.763 199.231 346.503 198.914 347.159C198.601 347.81 198.151 348.318 197.562 348.682C196.979 349.047 196.307 349.229 195.547 349.229C194.401 349.229 193.471 348.831 192.758 348.034C192.049 347.237 191.695 346.182 191.695 344.87L191.695 344.768ZM193.148 344.94C193.148 345.878 193.364 346.63 193.797 347.198C194.234 347.766 194.817 348.049 195.547 348.049C196.281 348.049 196.864 347.763 197.297 347.19C197.729 346.612 197.945 345.805 197.945 344.768C197.945 343.841 197.724 343.091 197.281 342.518C196.843 341.94 196.26 341.651 195.531 341.651C194.817 341.651 194.242 341.935 193.804 342.503C193.367 343.07 193.148 343.883 193.148 344.94Z" fill="black"/>
<path d="M45.1729 274.99L45.1729 280L43.4854 280L43.4854 267.203L48.2051 267.203C49.6055 267.203 50.7012 267.561 51.4922 268.275C52.2891 268.99 52.6875 269.937 52.6875 271.114C52.6875 272.356 52.2979 273.314 51.5186 273.988C50.7451 274.656 49.6348 274.99 48.1875 274.99L45.1729 274.99ZM45.1729 273.61L48.2051 273.61C49.1074 273.61 49.7988 273.399 50.2793 272.978C50.7598 272.55 51 271.935 51 271.132C51 270.37 50.7598 269.761 50.2793 269.304C49.7988 268.847 49.1396 268.609 48.3018 268.592L45.1729 268.592L45.1729 273.61ZM56.3525 280L54.7266 280L54.7266 270.49L56.3525 270.49L56.3525 280ZM54.5947 267.968C54.5947 267.704 54.6738 267.481 54.832 267.3C54.9961 267.118 55.2363 267.027 55.5527 267.027C55.8691 267.027 56.1094 267.118 56.2734 267.3C56.4375 267.481 56.5195 267.704 56.5195 267.968C56.5195 268.231 56.4375 268.451 56.2734 268.627C56.1094 268.803 55.8691 268.891 55.5527 268.891C55.2363 268.891 54.9961 268.803 54.832 268.627C54.6738 268.451 54.5947 268.231 54.5947 267.968ZM60.4922 278.673L66.0557 278.673L66.0557 280L58.5059 280L58.5059 278.805L63.7529 271.835L58.585 271.835L58.585 270.49L65.792 270.49L65.792 271.642L60.4922 278.673ZM69.4219 278.673L74.9854 278.673L74.9854 280L67.4355 280L67.4355 278.805L72.6826 271.835L67.5146 271.835L67.5146 270.49L74.7217 270.49L74.7217 271.642L69.4219 278.673ZM82.6934 280C82.5996 279.812 82.5234 279.479 82.4648 278.998C81.709 279.783 80.8066 280.176 79.7578 280.176C78.8203 280.176 78.0498 279.912 77.4463 279.385C76.8486 278.852 76.5498 278.178 76.5498 277.363C76.5498 276.373 76.9248 275.605 77.6748 275.061C78.4307 274.51 79.4912 274.234 80.8564 274.234L82.4385 274.234L82.4385 273.487C82.4385 272.919 82.2686 272.468 81.9287 272.134C81.5889 271.794 81.0879 271.624 80.4258 271.624C79.8457 271.624 79.3594 271.77 78.9668 272.063C78.5742 272.356 78.3779 272.711 78.3779 273.127L76.7432 273.127C76.7432 272.652 76.9102 272.195 77.2441 271.756C77.584 271.311 78.041 270.959 78.6152 270.701C79.1953 270.443 79.8311 270.314 80.5225 270.314C81.6182 270.314 82.4766 270.59 83.0977 271.141C83.7187 271.686 84.041 272.438 84.0645 273.399L84.0645 277.776C84.0645 278.649 84.1758 279.344 84.3984 279.859L84.3984 280L82.6934 280ZM79.9951 278.761C80.5049 278.761 80.9883 278.629 81.4453 278.365C81.9023 278.102 82.2334 277.759 82.4385 277.337L82.4385 275.386L81.1641 275.386C79.1719 275.386 78.1758 275.969 78.1758 277.135C78.1758 277.645 78.3457 278.043 78.6855 278.33C79.0254 278.617 79.4619 278.761 79.9951 278.761ZM91.333 280L91.333 267.203L95.5166 267.203C96.9053 267.203 97.9482 267.49 98.6455 268.064C99.3486 268.639 99.7002 269.488 99.7002 270.613C99.7002 271.211 99.5303 271.741 99.1904 272.204C98.8506 272.661 98.3877 273.016 97.8018 273.268C98.4932 273.461 99.0381 273.83 99.4365 274.375C99.8408 274.914 100.043 275.559 100.043 276.309C100.043 277.457 99.6709 278.359 98.9268 279.016C98.1826 279.672 97.1309 280 95.7715 280L91.333 280ZM93.0205 274.015L93.0205 278.62L95.8066 278.62C96.5918 278.62 97.21 278.418 97.6611 278.014C98.1182 277.604 98.3467 277.041 98.3467 276.326C98.3467 274.785 97.5088 274.015 95.833 274.015L93.0205 274.015ZM93.0205 272.661L95.5693 272.661C96.3076 272.661 96.8965 272.477 97.3359 272.107C97.7812 271.738 98.0039 271.237 98.0039 270.604C98.0039 269.901 97.7988 269.392 97.3887 269.075C96.9785 268.753 96.3545 268.592 95.5166 268.592L93.0205 268.592L93.0205 272.661ZM108.164 280C108.07 279.812 107.994 279.479 107.936 278.998C107.18 279.783 106.277 280.176 105.229 280.176C104.291 280.176 103.521 279.912 102.917 279.385C102.319 278.852 102.021 278.178 102.021 277.363C102.021 276.373 102.396 275.605 103.146 275.061C103.901 274.51 104.962 274.234 106.327 274.234L107.909 274.234L107.909 273.487C107.909 272.919 107.739 272.468 107.399 272.134C107.06 271.794 106.559 271.624 105.896 271.624C105.316 271.624 104.83 271.77 104.437 272.063C104.045 272.356 103.849 272.711 103.849 273.127L102.214 273.127C102.214 272.652 102.381 272.195 102.715 271.756C103.055 271.311 103.512 270.959 104.086 270.701C104.666 270.443 105.302 270.314 105.993 270.314C107.089 270.314 107.947 270.59 108.568 271.141C109.189 271.686 109.512 272.438 109.535 273.399L109.535 277.776C109.535 278.649 109.646 279.344 109.869 279.859L109.869 280L108.164 280ZM105.466 278.761C105.976 278.761 106.459 278.629 106.916 278.365C107.373 278.102 107.704 277.759 107.909 277.337L107.909 275.386L106.635 275.386C104.643 275.386 103.646 275.969 103.646 277.135C103.646 277.645 103.816 278.043 104.156 278.33C104.496 278.617 104.933 278.761 105.466 278.761ZM114.738 275.597L113.719 276.66L113.719 280L112.093 280L112.093 266.5L113.719 266.5L113.719 274.665L114.589 273.619L117.551 270.49L119.528 270.49L115.828 274.463L119.959 280L118.052 280L114.738 275.597ZM127.078 280C126.984 279.812 126.908 279.479 126.85 278.998C126.094 279.783 125.191 280.176 124.143 280.176C123.205 280.176 122.435 279.912 121.831 279.385C121.233 278.852 120.935 278.178 120.935 277.363C120.935 276.373 121.31 275.605 122.06 275.061C122.815 274.51 123.876 274.234 125.241 274.234L126.823 274.234L126.823 273.487C126.823 272.919 126.653 272.468 126.313 272.134C125.974 271.794 125.473 271.624 124.811 271.624C124.23 271.624 123.744 271.77 123.352 272.063C122.959 272.356 122.763 272.711 122.763 273.127L121.128 273.127C121.128 272.652 121.295 272.195 121.629 271.756C121.969 271.311 122.426 270.959 123 270.701C123.58 270.443 124.216 270.314 124.907 270.314C126.003 270.314 126.861 270.59 127.482 271.141C128.104 271.686 128.426 272.438 128.449 273.399L128.449 277.776C128.449 278.649 128.561 279.344 128.783 279.859L128.783 280L127.078 280ZM124.38 278.761C124.89 278.761 125.373 278.629 125.83 278.365C126.287 278.102 126.618 277.759 126.823 277.337L126.823 275.386L125.549 275.386C123.557 275.386 122.561 275.969 122.561 277.135C122.561 277.645 122.73 278.043 123.07 278.33C123.41 278.617 123.847 278.761 124.38 278.761ZM135.595 271.949C135.349 271.908 135.082 271.888 134.795 271.888C133.729 271.888 133.005 272.342 132.624 273.25L132.624 280L130.998 280L130.998 270.49L132.58 270.49L132.606 271.589C133.14 270.739 133.896 270.314 134.874 270.314C135.19 270.314 135.431 270.355 135.595 270.437L135.595 271.949Z" fill="black"/>
<path d="M160.042 61.296C159.658 60.936 159.292 60.66 158.944 60.468C158.596 60.288 158.17 60.198 157.666 60.198C157.174 60.198 156.784 60.288 156.496 60.468C156.196 60.66 156.046 60.924 156.046 61.26C156.046 61.608 156.244 61.884 156.64 62.088C157.024 62.304 157.48 62.412 158.008 62.412C158.536 62.412 159.004 62.364 159.412 62.268C159.652 62.052 159.862 61.728 160.042 61.296ZM163.084 63.114C163.288 63.186 163.504 63.234 163.732 63.258C163.96 63.282 164.26 63.294 164.632 63.294C165.016 63.294 165.406 63.192 165.802 62.988C166.198 62.784 166.51 62.544 166.738 62.268C166.978 62.004 167.188 61.704 167.368 61.368C167.596 60.972 167.764 60.576 167.872 60.18L168.304 60.324C167.992 61.344 167.494 62.154 166.81 62.754C166.138 63.354 165.352 63.654 164.452 63.654C163.744 63.654 163.252 63.6 162.976 63.492C162.712 63.396 162.52 63.33 162.4 63.294C162.28 63.27 162.118 63.18 161.914 63.024C161.722 62.88 161.608 62.796 161.572 62.772C161.476 62.7 161.23 62.466 160.834 62.07C160.066 62.526 159.238 62.754 158.35 62.754C157.462 62.754 156.784 62.61 156.316 62.322C155.848 62.046 155.614 61.692 155.614 61.26C155.614 60.84 155.788 60.498 156.136 60.234C156.472 59.982 156.982 59.856 157.666 59.856C158.602 59.856 159.442 60.204 160.186 60.9C160.33 60.456 160.45 59.964 160.546 59.424L161.752 52.458C162.04 50.658 162.664 49.446 163.624 48.822C164.464 48.282 165.418 48.012 166.486 48.012C167.554 48.012 168.424 48.318 169.096 48.93C169.78 49.542 170.122 50.508 170.122 51.828L169.69 51.828C169.69 50.76 169.432 49.95 168.916 49.398C168.412 48.834 167.77 48.552 166.99 48.552C165.562 48.552 164.716 49.44 164.452 51.216C164.452 51.408 164.296 52.398 163.984 54.186C163.684 55.962 163.414 57.432 163.174 58.596C162.922 60 162.25 61.086 161.158 61.854C161.806 62.502 162.286 62.874 162.598 62.97C162.718 63.006 162.88 63.054 163.084 63.114ZM171.874 60.162C170.95 60.162 170.248 59.934 169.768 59.478C169.288 59.01 169.048 58.428 169.048 57.732C169.048 57.024 169.108 56.424 169.228 55.932C169.36 55.428 169.57 54.948 169.858 54.492C170.146 54.024 170.578 53.658 171.154 53.394C171.742 53.13 172.468 52.998 173.332 52.998C174.208 52.998 174.886 53.232 175.366 53.7C175.858 54.156 176.104 54.786 176.104 55.59C176.104 56.958 175.738 58.062 175.006 58.902C174.286 59.742 173.242 60.162 171.874 60.162ZM171.082 58.308C171.082 59.268 171.358 59.748 171.91 59.748C172.474 59.748 172.972 59.268 173.404 58.308C173.848 57.336 174.07 56.184 174.07 54.852C174.07 53.844 173.794 53.34 173.242 53.34C172.702 53.34 172.204 53.802 171.748 54.726C171.304 55.638 171.082 56.832 171.082 58.308ZM181.71 55.23C181.458 54.978 181.332 54.672 181.332 54.312C181.332 53.952 181.458 53.646 181.71 53.394C181.962 53.13 182.244 52.998 182.556 52.998C182.88 52.998 183.15 53.082 183.366 53.25C183.594 53.406 183.756 53.61 183.852 53.862C183.864 53.874 183.87 53.886 183.87 53.898L183.87 53.916C184.014 54.228 184.086 54.684 184.086 55.284C184.086 55.872 184.014 56.412 183.87 56.904C183.738 57.396 183.528 57.9 183.24 58.416C182.964 58.92 182.556 59.34 182.016 59.676C181.476 60 180.84 60.162 180.108 60.162C179.376 60.162 178.764 59.922 178.272 59.442C177.792 58.962 177.552 58.41 177.552 57.786C177.552 57.162 177.66 56.394 177.876 55.482C178.104 54.558 178.23 53.85 178.254 53.358C178.062 53.37 177.876 53.442 177.696 53.574C177.516 53.694 177.384 53.814 177.3 53.934L177.174 54.114L176.904 53.898C176.94 53.826 176.994 53.742 177.066 53.646C177.138 53.55 177.318 53.418 177.606 53.25C177.906 53.082 178.278 52.998 178.722 52.998C179.166 52.998 179.52 53.142 179.784 53.43C180.06 53.718 180.198 54.084 180.198 54.528C180.198 54.972 180.078 55.662 179.838 56.598C179.598 57.522 179.478 58.176 179.478 58.56C179.478 58.932 179.562 59.226 179.73 59.442C179.91 59.658 180.162 59.766 180.486 59.766C181.29 59.766 182.022 59.328 182.682 58.452C183.342 57.576 183.672 56.598 183.672 55.518C183.672 55.434 183.66 55.308 183.636 55.14C183.384 55.452 183.06 55.608 182.664 55.608C182.28 55.608 181.962 55.482 181.71 55.23ZM188.827 52.998C190.351 52.998 191.113 53.604 191.113 54.816C191.113 55.572 190.753 56.148 190.033 56.544C189.325 56.928 188.311 57.126 186.991 57.138C186.967 57.57 186.955 57.912 186.955 58.164C186.955 58.704 187.075 59.106 187.315 59.37C187.567 59.622 187.879 59.748 188.251 59.748C188.623 59.748 188.959 59.676 189.259 59.532C189.571 59.388 189.817 59.22 189.997 59.028C190.177 58.824 190.333 58.614 190.465 58.398C190.705 58.002 190.825 57.75 190.825 57.642L191.149 57.786C191.113 57.978 191.005 58.236 190.825 58.56C190.645 58.872 190.447 59.13 190.231 59.334C190.015 59.538 189.697 59.73 189.277 59.91C188.857 60.078 188.389 60.162 187.873 60.162C186.901 60.162 186.163 59.934 185.659 59.478C185.167 59.01 184.921 58.374 184.921 57.57C184.921 56.142 185.275 55.026 185.983 54.222C186.691 53.406 187.639 52.998 188.827 52.998ZM190.663 54.816C190.663 54.42 190.543 54.096 190.303 53.844C190.075 53.58 189.727 53.448 189.259 53.448C188.803 53.448 188.353 53.724 187.909 54.276C187.477 54.828 187.189 55.644 187.045 56.724C189.457 56.712 190.663 56.076 190.663 54.816ZM195.387 59.352C195.231 59.556 195.015 59.742 194.739 59.91C194.475 60.078 194.127 60.162 193.695 60.162C193.263 60.162 192.897 60.024 192.597 59.748C192.297 59.472 192.147 59.082 192.147 58.578C192.147 58.482 192.159 58.326 192.183 58.11L193.353 51.63C193.569 50.442 193.863 49.596 194.235 49.092C194.619 48.588 195.123 48.336 195.747 48.336C196.179 48.336 196.533 48.498 196.809 48.822C197.097 49.146 197.241 49.638 197.241 50.298C197.241 50.958 196.983 51.9 196.467 53.124C195.963 54.348 195.711 55.242 195.711 55.806L195.387 55.806C195.387 55.17 195.639 54.264 196.143 53.088C196.647 51.9 196.899 50.952 196.899 50.244C196.899 49.812 196.797 49.44 196.593 49.128C196.401 48.816 196.161 48.66 195.873 48.66C195.861 48.972 195.651 50.376 195.243 52.872C194.847 55.356 194.451 57.666 194.055 59.802C194.391 59.802 194.703 59.628 194.991 59.28C195.279 58.932 195.483 58.584 195.603 58.236L195.801 57.696L196.125 57.84C196.089 58.008 195.993 58.254 195.837 58.578C195.693 58.89 195.543 59.148 195.387 59.352ZM198.219 53.358C197.931 53.358 197.631 53.526 197.319 53.862L197.049 53.646C197.133 53.478 197.319 53.328 197.607 53.196C197.895 53.064 198.213 52.998 198.561 52.998C199.653 52.998 200.199 53.49 200.199 54.474C200.199 54.894 200.085 55.584 199.857 56.544C199.629 57.492 199.515 58.134 199.515 58.47C199.515 59.046 199.755 59.334 200.235 59.334C200.631 59.334 201.015 59.064 201.387 58.524C201.771 57.984 202.083 57.258 202.323 56.346L202.917 53.16C203.805 53.16 204.453 53.124 204.861 53.052L205.095 52.998L203.961 59.37C203.745 60.606 203.241 61.572 202.449 62.268C201.669 62.964 200.655 63.312 199.407 63.312C198.651 63.312 198.063 63.18 197.643 62.916C197.235 62.664 197.031 62.328 197.031 61.908C197.031 61.5 197.157 61.17 197.409 60.918C197.661 60.678 198.015 60.558 198.471 60.558C198.939 60.558 199.371 60.63 199.767 60.774C200.163 60.93 200.451 61.02 200.631 61.044L200.595 61.368C200.391 61.344 200.097 61.26 199.713 61.116C199.329 60.972 198.945 60.9 198.561 60.9C198.189 60.9 197.901 60.984 197.697 61.152C197.505 61.32 197.409 61.56 197.409 61.872C197.409 62.196 197.583 62.454 197.931 62.646C198.279 62.85 198.711 62.952 199.227 62.952C200.475 62.952 201.243 62.202 201.531 60.702L201.981 58.218C201.477 59.322 200.715 59.874 199.695 59.874C198.999 59.874 198.459 59.676 198.075 59.28C197.703 58.884 197.517 58.326 197.517 57.606C197.517 57.234 197.625 56.568 197.841 55.608C198.069 54.636 198.195 53.886 198.219 53.358ZM160.78 78.552C160.78 80.352 161.362 81.54 162.526 82.116C162.814 82.152 163.192 82.17 163.66 82.17C164.14 82.17 164.644 82.08 165.172 81.9C165.7 81.72 166.108 81.498 166.396 81.234C167.008 80.67 167.392 80.184 167.548 79.776L167.638 79.506L167.998 79.65C167.914 79.926 167.752 80.244 167.512 80.604C167.272 80.964 166.996 81.27 166.684 81.522C166.384 81.774 165.94 82.002 165.352 82.206C164.776 82.422 164.134 82.53 163.426 82.53C161.914 82.53 160.738 82.092 159.898 81.216C159.07 80.34 158.656 79.104 158.656 77.508C158.656 75.336 159.358 73.548 160.762 72.144C162.166 70.74 164.008 70.038 166.288 70.038C167.344 70.038 168.106 70.23 168.574 70.614C169.042 70.986 169.276 71.574 169.276 72.378C169.276 72.918 169.012 73.584 168.484 74.376C168.004 75.144 167.764 75.744 167.764 76.176L167.368 76.176C167.368 75.936 167.416 75.678 167.512 75.402C167.608 75.126 167.692 74.928 167.764 74.808C167.836 74.688 167.968 74.472 168.16 74.16C168.628 73.452 168.862 72.87 168.862 72.414C168.862 71.454 168.466 70.848 167.674 70.596C167.302 70.476 166.912 70.416 166.504 70.416C166.096 70.416 165.664 70.44 165.208 70.488C164.788 70.62 164.386 70.794 164.002 71.01C163.63 71.214 163.24 71.532 162.832 71.964C162.424 72.384 162.076 72.876 161.788 73.44C161.5 74.004 161.26 74.73 161.068 75.618C160.876 76.494 160.78 77.472 160.78 78.552ZM176 81.162C174.944 81.162 174.368 80.7 174.272 79.776C173.744 80.7 173.078 81.162 172.274 81.162C171.47 81.162 170.828 80.922 170.348 80.442C169.88 79.95 169.646 79.266 169.646 78.39C169.646 77.022 169.982 75.948 170.654 75.168C171.326 74.388 172.196 73.998 173.264 73.998C174.14 73.998 174.722 74.412 175.01 75.24C175.07 74.88 175.136 74.52 175.208 74.16C176.096 74.16 176.756 74.124 177.188 74.052L177.422 73.998L176.18 80.802C176.54 80.766 176.84 80.598 177.08 80.298L177.35 80.514C176.99 80.946 176.54 81.162 176 81.162ZM171.68 79.308C171.68 79.848 171.746 80.226 171.878 80.442C172.022 80.646 172.238 80.748 172.526 80.748C172.814 80.748 173.108 80.592 173.408 80.28C173.804 79.872 174.122 79.356 174.362 78.732C174.398 78.576 174.464 78.204 174.56 77.616C174.668 77.016 174.758 76.524 174.83 76.14C174.794 75.684 174.668 75.288 174.452 74.952C174.236 74.616 173.966 74.448 173.642 74.448C173.054 74.448 172.58 74.976 172.22 76.032C171.86 77.076 171.68 78.168 171.68 79.308ZM179.481 74.16L179.967 71.496C180.855 71.496 181.515 71.46 181.947 71.388L182.181 71.334C182.013 72.174 181.827 73.116 181.623 74.16L183.855 74.16L183.819 74.484L181.569 74.484C180.969 77.58 180.669 79.446 180.669 80.082C180.669 80.466 180.873 80.658 181.281 80.658C181.689 80.658 182.061 80.4 182.397 79.884C182.733 79.368 182.973 78.81 183.117 78.21L183.441 78.318C182.997 80.214 182.079 81.162 180.687 81.162C180.111 81.162 179.631 81.006 179.247 80.694C178.863 80.37 178.671 79.926 178.671 79.362C178.671 78.786 178.917 77.16 179.409 74.484L178.527 74.484L178.563 74.16L179.481 74.16ZM190.916 80.802C191.204 80.802 191.504 80.634 191.816 80.298L192.086 80.514C192.002 80.682 191.816 80.832 191.528 80.964C191.24 81.096 190.922 81.162 190.574 81.162C189.482 81.162 188.936 80.67 188.936 79.686C188.936 79.266 189.044 78.516 189.26 77.436C189.476 76.356 189.584 75.648 189.584 75.312C189.584 74.796 189.338 74.538 188.846 74.538C188.438 74.538 188.042 74.814 187.658 75.366C187.286 75.918 186.98 76.668 186.74 77.616L186.146 81L183.986 81L185.984 69.696C185.624 69.732 185.324 69.9 185.084 70.2L184.814 69.984C185.174 69.552 185.624 69.336 186.164 69.336C186.716 69.336 187.142 69.474 187.442 69.75C187.742 70.026 187.892 70.416 187.892 70.92C187.892 71.016 187.88 71.172 187.856 71.388L187.1 75.654C187.592 74.55 188.354 73.998 189.386 73.998C190.094 73.998 190.646 74.202 191.042 74.61C191.438 75.006 191.636 75.558 191.636 76.266C191.636 76.638 191.522 77.358 191.294 78.426C191.066 79.482 190.94 80.274 190.916 80.802ZM196.825 73.998C198.349 73.998 199.111 74.604 199.111 75.816C199.111 76.572 198.751 77.148 198.031 77.544C197.323 77.928 196.309 78.126 194.989 78.138C194.965 78.57 194.953 78.912 194.953 79.164C194.953 79.704 195.073 80.106 195.313 80.37C195.565 80.622 195.877 80.748 196.249 80.748C196.621 80.748 196.957 80.676 197.257 80.532C197.569 80.388 197.815 80.22 197.995 80.028C198.175 79.824 198.331 79.614 198.463 79.398C198.703 79.002 198.823 78.75 198.823 78.642L199.147 78.786C199.111 78.978 199.003 79.236 198.823 79.56C198.643 79.872 198.445 80.13 198.229 80.334C198.013 80.538 197.695 80.73 197.275 80.91C196.855 81.078 196.387 81.162 195.871 81.162C194.899 81.162 194.161 80.934 193.657 80.478C193.165 80.01 192.919 79.374 192.919 78.57C192.919 77.142 193.273 76.026 193.981 75.222C194.689 74.406 195.637 73.998 196.825 73.998ZM198.661 75.816C198.661 75.42 198.541 75.096 198.301 74.844C198.073 74.58 197.725 74.448 197.257 74.448C196.801 74.448 196.351 74.724 195.907 75.276C195.475 75.828 195.187 76.644 195.043 77.724C197.455 77.712 198.661 77.076 198.661 75.816ZM200.199 74.646C200.559 74.214 201.009 73.998 201.549 73.998C202.101 73.998 202.527 74.136 202.827 74.412C203.127 74.688 203.277 75.078 203.277 75.582L203.277 75.69C203.817 74.562 204.519 73.998 205.383 73.998C206.307 73.998 206.769 74.478 206.769 75.438C206.769 75.834 206.637 76.254 206.373 76.698C206.109 77.142 205.845 77.568 205.581 77.976C205.317 78.372 205.185 78.726 205.185 79.038L204.753 79.038C204.753 78.594 205.011 77.994 205.527 77.238C206.043 76.482 206.301 75.9 206.301 75.492C206.301 75.072 206.217 74.79 206.049 74.646C205.893 74.49 205.653 74.412 205.329 74.412C205.017 74.412 204.705 74.55 204.393 74.826C204.093 75.102 203.841 75.45 203.637 75.87C203.313 76.494 203.097 77.004 202.989 77.4L202.989 77.418L202.341 81L200.181 81L201.369 74.358C201.009 74.394 200.709 74.562 200.469 74.862L200.199 74.646ZM210.47 80.514C210.11 80.946 209.66 81.162 209.12 81.162C208.58 81.162 208.154 81.024 207.842 80.748C207.542 80.472 207.392 80.112 207.392 79.668C207.392 79.512 207.488 78.858 207.68 77.706L208.274 74.484L207.518 74.484L207.554 74.16L208.328 74.16C209.216 74.16 209.87 74.124 210.29 74.052L210.542 73.998L209.3 80.802C209.66 80.766 209.96 80.598 210.2 80.298L210.47 80.514ZM208.886 72.27C208.634 72.018 208.508 71.712 208.508 71.352C208.508 70.992 208.634 70.686 208.886 70.434C209.138 70.17 209.444 70.038 209.804 70.038C210.164 70.038 210.47 70.17 210.722 70.434C210.986 70.686 211.118 70.992 211.118 71.352C211.118 71.712 210.986 72.018 210.722 72.27C210.47 72.522 210.164 72.648 209.804 72.648C209.444 72.648 209.138 72.522 208.886 72.27ZM218.466 80.802C218.754 80.802 219.054 80.634 219.366 80.298L219.636 80.514C219.552 80.682 219.366 80.832 219.078 80.964C218.79 81.096 218.472 81.162 218.124 81.162C217.032 81.162 216.486 80.67 216.486 79.686C216.486 79.266 216.594 78.516 216.81 77.436C217.026 76.356 217.134 75.648 217.134 75.312C217.134 74.796 216.888 74.538 216.396 74.538C216 74.538 215.616 74.796 215.244 75.312C214.884 75.828 214.584 76.536 214.344 77.436L213.732 80.802C214.104 80.766 214.41 80.598 214.65 80.298L214.92 80.514C214.56 80.946 214.11 81.162 213.57 81.162C213.03 81.162 212.604 81.024 212.292 80.748C211.992 80.472 211.842 80.112 211.842 79.668C211.842 79.5 211.938 78.84 212.13 77.688L212.724 74.358C212.364 74.394 212.064 74.562 211.824 74.862L211.554 74.646C211.914 74.214 212.364 73.998 212.904 73.998C213.456 73.998 213.882 74.136 214.182 74.412C214.482 74.688 214.632 75.078 214.632 75.582L214.632 75.69C215.124 74.562 215.892 73.998 216.936 73.998C217.644 73.998 218.196 74.202 218.592 74.61C218.988 75.006 219.186 75.558 219.186 76.266C219.186 76.638 219.072 77.358 218.844 78.426C218.616 79.482 218.49 80.274 218.466 80.802ZM226.404 82.962C226.836 82.962 227.208 82.794 227.52 82.458L227.772 82.674C227.484 83.082 227.028 83.286 226.404 83.286C226.14 83.286 225.87 83.256 225.594 83.196C224.778 83.94 223.734 84.312 222.462 84.312C221.706 84.312 221.118 84.18 220.698 83.916C220.29 83.664 220.086 83.328 220.086 82.908C220.086 82.5 220.212 82.17 220.464 81.918C220.728 81.678 221.19 81.558 221.85 81.558C222.51 81.558 223.38 81.828 224.46 82.368L225.018 79.38C224.478 80.376 223.782 80.874 222.93 80.874C221.298 80.874 220.482 80.07 220.482 78.462C220.482 77.118 220.818 76.038 221.49 75.222C222.174 74.406 223.044 73.998 224.1 73.998C224.712 73.998 225.186 74.184 225.522 74.556C225.618 74.664 225.714 74.826 225.81 75.042L225.972 74.16C226.86 74.16 227.508 74.124 227.916 74.052L228.15 73.998L226.962 80.64C226.782 81.576 226.422 82.332 225.882 82.908C226.038 82.944 226.212 82.962 226.404 82.962ZM222.516 79.02C222.516 79.572 222.57 79.944 222.678 80.136C222.786 80.316 222.99 80.406 223.29 80.406C223.59 80.406 223.896 80.244 224.208 79.92C224.52 79.596 224.742 79.296 224.874 79.02C225.018 78.732 225.138 78.456 225.234 78.192L225.612 76.122L225.612 75.996C225.612 74.892 225.108 74.34 224.1 74.34C223.716 74.34 223.356 74.862 223.02 75.906C222.684 76.95 222.516 77.988 222.516 79.02ZM222.39 83.952C223.35 83.952 223.998 83.538 224.334 82.71L224.082 82.584C223.938 82.512 223.848 82.464 223.812 82.44C223.788 82.428 223.71 82.392 223.578 82.332C223.446 82.272 223.35 82.23 223.29 82.206C223.23 82.194 223.134 82.164 223.002 82.116C222.882 82.068 222.78 82.032 222.696 82.008C222.612 81.996 222.516 81.978 222.408 81.954C222.228 81.918 221.964 81.9 221.616 81.9C221.268 81.9 220.986 81.984 220.77 82.152C220.566 82.32 220.464 82.566 220.464 82.89C220.464 83.214 220.638 83.472 220.986 83.664C221.334 83.856 221.802 83.952 222.39 83.952Z" fill="black"/>
</g>
<defs>
<clipPath id="clip0">
<rect width="255.801" height="384.133" fill="white" transform="translate(0 0.132843) rotate(-0.0297571)"/>
</clipPath>
</defs>
</svg>
