<svg width="256" height="385" viewBox="0 0 256 385" fill="none" xmlns="http://www.w3.org/2000/svg">
<g clip-path="url(#clip0)">
<rect width="255.801" height="384.133" transform="translate(0 0.132843) rotate(-0.0297571)" fill="#E5E5E5"/>
<rect width="256" height="384" fill="#FFE7D6"/>
<rect x="35" y="302" width="181" height="34" fill="#C4C4C4"/>
<path d="M47.3574 110.646L41.3457 110.646L41.3457 121L37.9531 121L37.9531 95.4063L46.4258 95.4063C49.3086 95.4063 51.5234 96.0625 53.0703 97.375C54.6289 98.6875 55.4082 100.598 55.4082 103.105C55.4082 104.699 54.9746 106.088 54.1074 107.271C53.252 108.455 52.0566 109.34 50.5215 109.926L56.5332 120.789L56.5332 121L52.9121 121L47.3574 110.646ZM41.3457 107.887L46.5312 107.887C48.207 107.887 49.5371 107.453 50.5215 106.586C51.5176 105.719 52.0156 104.559 52.0156 103.105C52.0156 101.523 51.541 100.311 50.5918 99.4668C49.6543 98.623 48.2949 98.1953 46.5137 98.1836L41.3457 98.1836L41.3457 107.887ZM74.6211 109.17L63.5293 109.17L63.5293 118.24L76.4141 118.24L76.4141 121L60.1543 121L60.1543 95.4063L76.2383 95.4063L76.2383 98.1836L63.5293 98.1836L63.5293 106.41L74.6211 106.41L74.6211 109.17ZM99.4414 112.879C99.125 115.586 98.123 117.678 96.4355 119.154C94.7598 120.619 92.5273 121.352 89.7383 121.352C86.7148 121.352 84.2891 120.268 82.4609 118.1C80.6445 115.932 79.7363 113.031 79.7363 109.398L79.7363 106.938C79.7363 104.559 80.1582 102.467 81.002 100.662C81.8574 98.8574 83.0645 97.4746 84.623 96.5137C86.1816 95.541 87.9863 95.0547 90.0371 95.0547C92.7559 95.0547 94.9355 95.8164 96.5762 97.3398C98.2168 98.8516 99.1719 100.949 99.4414 103.633L96.0488 103.633C95.7559 101.594 95.1172 100.117 94.1328 99.2031C93.1602 98.2891 91.7949 97.832 90.0371 97.832C87.8809 97.832 86.1875 98.6289 84.957 100.223C83.7383 101.816 83.1289 104.084 83.1289 107.025L83.1289 109.504C83.1289 112.281 83.709 114.49 84.8691 116.131C86.0293 117.771 87.6523 118.592 89.7383 118.592C91.6133 118.592 93.0488 118.17 94.0449 117.326C95.0527 116.471 95.7207 114.988 96.0488 112.879L99.4414 112.879ZM118.531 109.17L107.439 109.17L107.439 118.24L120.324 118.24L120.324 121L104.064 121L104.064 95.4063L120.148 95.4063L120.148 98.1836L107.439 98.1836L107.439 106.41L118.531 106.41L118.531 109.17ZM128.146 121L124.771 121L124.771 95.4063L128.146 95.4063L128.146 121ZM137.709 110.98L137.709 121L134.334 121L134.334 95.4063L143.773 95.4063C146.574 95.4063 148.766 96.1211 150.348 97.5508C151.941 98.9805 152.738 100.873 152.738 103.229C152.738 105.713 151.959 107.629 150.4 108.977C148.854 110.313 146.633 110.98 143.738 110.98L137.709 110.98ZM137.709 108.221L143.773 108.221C145.578 108.221 146.961 107.799 147.922 106.955C148.883 106.1 149.363 104.869 149.363 103.264C149.363 101.74 148.883 100.521 147.922 99.6074C146.961 98.6934 145.643 98.2188 143.967 98.1836L137.709 98.1836L137.709 108.221ZM174.729 98.1836L166.502 98.1836L166.502 121L163.145 121L163.145 98.1836L154.936 98.1836L154.936 95.4063L174.729 95.4063L174.729 98.1836Z" fill="black"/>
<path d="M49.5518 198.66L44.1904 198.66L42.9863 202L41.2461 202L46.1328 189.203L47.6094 189.203L52.5049 202L50.7734 202L49.5518 198.66ZM44.7002 197.271L49.0508 197.271L46.8711 191.286L44.7002 197.271ZM56.6445 199.618L58.8594 192.49L60.5996 192.49L56.7764 203.468C56.1846 205.05 55.2441 205.841 53.9551 205.841L53.6475 205.814L53.041 205.7L53.041 204.382L53.4805 204.417C54.0312 204.417 54.459 204.306 54.7637 204.083C55.0742 203.86 55.3291 203.453 55.5283 202.861L55.8887 201.895L52.4961 192.49L54.2715 192.49L56.6445 199.618ZM67.7891 202C67.6953 201.813 67.6191 201.479 67.5605 200.998C66.8047 201.783 65.9023 202.176 64.8535 202.176C63.916 202.176 63.1455 201.912 62.542 201.385C61.9443 200.852 61.6455 200.178 61.6455 199.363C61.6455 198.373 62.0205 197.605 62.7705 197.061C63.5264 196.51 64.5869 196.234 65.9521 196.234L67.5342 196.234L67.5342 195.487C67.5342 194.919 67.3643 194.468 67.0244 194.134C66.6846 193.794 66.1836 193.624 65.5215 193.624C64.9414 193.624 64.4551 193.771 64.0625 194.063C63.6699 194.356 63.4736 194.711 63.4736 195.127L61.8389 195.127C61.8389 194.652 62.0059 194.195 62.3398 193.756C62.6797 193.311 63.1367 192.959 63.7109 192.701C64.291 192.443 64.9268 192.314 65.6182 192.314C66.7139 192.314 67.5723 192.59 68.1934 193.141C68.8145 193.686 69.1367 194.438 69.1602 195.399L69.1602 199.776C69.1602 200.649 69.2715 201.344 69.4941 201.859L69.4941 202L67.7891 202ZM65.0908 200.761C65.6006 200.761 66.084 200.629 66.541 200.365C66.998 200.102 67.3291 199.759 67.5342 199.337L67.5342 197.386L66.2598 197.386C64.2676 197.386 63.2715 197.969 63.2715 199.135C63.2715 199.645 63.4414 200.043 63.7812 200.33C64.1211 200.617 64.5576 200.761 65.0908 200.761ZM73.2383 192.49L73.2822 193.545C73.9795 192.725 74.9199 192.314 76.1035 192.314C77.4336 192.314 78.3389 192.824 78.8193 193.844C79.1357 193.387 79.5459 193.018 80.0498 192.736C80.5596 192.455 81.1602 192.314 81.8516 192.314C83.9375 192.314 84.998 193.419 85.0332 195.628L85.0332 202L83.4072 202L83.4072 195.725C83.4072 195.045 83.252 194.538 82.9414 194.204C82.6309 193.864 82.1094 193.694 81.377 193.694C80.7734 193.694 80.2725 193.876 79.874 194.239C79.4756 194.597 79.2441 195.08 79.1797 195.689L79.1797 202L77.5449 202L77.5449 195.769C77.5449 194.386 76.8682 193.694 75.5146 193.694C74.4482 193.694 73.7187 194.148 73.3262 195.057L73.3262 202L71.7002 202L71.7002 192.49L73.2383 192.49ZM101.662 200.321C101.229 200.942 100.622 201.408 99.8428 201.719C99.0693 202.023 98.167 202.176 97.1357 202.176C96.0928 202.176 95.167 201.933 94.3584 201.446C93.5498 200.954 92.9229 200.257 92.4775 199.354C92.0381 198.452 91.8125 197.406 91.8008 196.217L91.8008 195.101C91.8008 193.173 92.249 191.679 93.1455 190.618C94.0479 189.558 95.3135 189.027 96.9424 189.027C98.2783 189.027 99.3535 189.37 100.168 190.056C100.982 190.735 101.48 191.702 101.662 192.956L99.9746 192.956C99.6582 191.263 98.6504 190.416 96.9512 190.416C95.8203 190.416 94.9619 190.814 94.376 191.611C93.7959 192.402 93.5029 193.551 93.4971 195.057L93.4971 196.103C93.4971 197.538 93.8252 198.681 94.4814 199.53C95.1377 200.374 96.0254 200.796 97.1445 200.796C97.7773 200.796 98.3311 200.726 98.8057 200.585C99.2803 200.444 99.6729 200.207 99.9834 199.873L99.9834 196.999L97.0215 196.999L97.0215 195.628L101.662 195.628L101.662 200.321ZM103.798 197.157C103.798 196.226 103.979 195.388 104.343 194.644C104.712 193.899 105.222 193.325 105.872 192.921C106.528 192.517 107.275 192.314 108.113 192.314C109.408 192.314 110.454 192.763 111.251 193.659C112.054 194.556 112.455 195.748 112.455 197.236L112.455 197.351C112.455 198.276 112.276 199.108 111.919 199.847C111.567 200.579 111.061 201.15 110.398 201.561C109.742 201.971 108.986 202.176 108.131 202.176C106.842 202.176 105.796 201.728 104.993 200.831C104.196 199.935 103.798 198.748 103.798 197.271L103.798 197.157ZM105.433 197.351C105.433 198.405 105.676 199.252 106.162 199.891C106.654 200.529 107.311 200.849 108.131 200.849C108.957 200.849 109.613 200.526 110.1 199.882C110.586 199.231 110.829 198.323 110.829 197.157C110.829 196.114 110.58 195.271 110.082 194.626C109.59 193.976 108.934 193.65 108.113 193.65C107.311 193.65 106.663 193.97 106.171 194.608C105.679 195.247 105.433 196.161 105.433 197.351ZM119.091 193.949C118.845 193.908 118.578 193.888 118.291 193.888C117.225 193.888 116.501 194.342 116.12 195.25L116.12 202L114.494 202L114.494 192.49L116.076 192.49L116.103 193.589C116.636 192.739 117.392 192.314 118.37 192.314C118.687 192.314 118.927 192.355 119.091 192.438L119.091 193.949ZM124.364 202.176C123.075 202.176 122.026 201.754 121.218 200.91C120.409 200.061 120.005 198.927 120.005 197.509L120.005 197.21C120.005 196.267 120.184 195.426 120.541 194.688C120.904 193.943 121.408 193.363 122.053 192.947C122.703 192.525 123.406 192.314 124.162 192.314C125.398 192.314 126.359 192.722 127.045 193.536C127.73 194.351 128.073 195.517 128.073 197.034L128.073 197.711L121.631 197.711C121.654 198.648 121.927 199.407 122.448 199.987C122.976 200.562 123.644 200.849 124.452 200.849C125.026 200.849 125.513 200.731 125.911 200.497C126.31 200.263 126.658 199.952 126.957 199.565L127.95 200.339C127.153 201.563 125.958 202.176 124.364 202.176ZM124.162 193.65C123.506 193.65 122.955 193.891 122.51 194.371C122.064 194.846 121.789 195.514 121.684 196.375L126.447 196.375L126.447 196.252C126.4 195.426 126.178 194.787 125.779 194.336C125.381 193.879 124.842 193.65 124.162 193.65ZM131.501 192.49L131.554 193.686C132.28 192.771 133.229 192.314 134.401 192.314C136.411 192.314 137.425 193.448 137.442 195.716L137.442 202L135.816 202L135.816 195.707C135.811 195.021 135.652 194.515 135.342 194.187C135.037 193.858 134.56 193.694 133.909 193.694C133.382 193.694 132.919 193.835 132.521 194.116C132.122 194.397 131.812 194.767 131.589 195.224L131.589 202L129.963 202L129.963 192.49L131.501 192.49ZM139.508 197.166C139.508 195.684 139.851 194.506 140.536 193.633C141.222 192.754 142.13 192.314 143.261 192.314C144.421 192.314 145.326 192.725 145.977 193.545L146.056 192.49L147.541 192.49L147.541 201.771C147.541 203.002 147.175 203.972 146.442 204.681C145.716 205.39 144.737 205.744 143.507 205.744C142.821 205.744 142.15 205.598 141.494 205.305C140.838 205.012 140.337 204.61 139.991 204.101L140.835 203.125C141.532 203.986 142.385 204.417 143.393 204.417C144.184 204.417 144.799 204.194 145.238 203.749C145.684 203.304 145.906 202.677 145.906 201.868L145.906 201.051C145.256 201.801 144.368 202.176 143.243 202.176C142.13 202.176 141.228 201.728 140.536 200.831C139.851 199.935 139.508 198.713 139.508 197.166ZM141.143 197.351C141.143 198.423 141.362 199.267 141.802 199.882C142.241 200.491 142.856 200.796 143.647 200.796C144.673 200.796 145.426 200.33 145.906 199.398L145.906 195.057C145.408 194.148 144.661 193.694 143.665 193.694C142.874 193.694 142.256 194.002 141.811 194.617C141.365 195.232 141.143 196.144 141.143 197.351Z" fill="black"/>
<path d="M37.1729 280.99L37.1729 286L35.4854 286L35.4854 273.203L40.2051 273.203C41.6055 273.203 42.7012 273.561 43.4922 274.275C44.2891 274.99 44.6875 275.937 44.6875 277.114C44.6875 278.356 44.2979 279.314 43.5186 279.988C42.7451 280.656 41.6348 280.99 40.1875 280.99L37.1729 280.99ZM37.1729 279.61L40.2051 279.61C41.1074 279.61 41.7988 279.399 42.2793 278.978C42.7598 278.55 43 277.935 43 277.132C43 276.37 42.7598 275.761 42.2793 275.304C41.7988 274.847 41.1396 274.609 40.3018 274.592L37.1729 274.592L37.1729 279.61ZM52.3516 286C52.2578 285.812 52.1816 285.479 52.123 284.998C51.3672 285.783 50.4648 286.176 49.416 286.176C48.4785 286.176 47.708 285.912 47.1045 285.385C46.5068 284.852 46.208 284.178 46.208 283.363C46.208 282.373 46.583 281.605 47.333 281.061C48.0889 280.51 49.1494 280.234 50.5146 280.234L52.0967 280.234L52.0967 279.487C52.0967 278.919 51.9268 278.468 51.5869 278.134C51.2471 277.794 50.7461 277.624 50.084 277.624C49.5039 277.624 49.0176 277.77 48.625 278.063C48.2324 278.356 48.0361 278.711 48.0361 279.127L46.4014 279.127C46.4014 278.652 46.5684 278.195 46.9023 277.756C47.2422 277.311 47.6992 276.959 48.2734 276.701C48.8535 276.443 49.4893 276.314 50.1807 276.314C51.2764 276.314 52.1348 276.59 52.7559 277.141C53.377 277.686 53.6992 278.438 53.7227 279.399L53.7227 283.776C53.7227 284.649 53.834 285.344 54.0566 285.859L54.0566 286L52.3516 286ZM49.6533 284.761C50.1631 284.761 50.6465 284.629 51.1035 284.365C51.5605 284.102 51.8916 283.759 52.0967 283.337L52.0967 281.386L50.8223 281.386C48.8301 281.386 47.834 281.969 47.834 283.135C47.834 283.645 48.0039 284.043 48.3437 284.33C48.6836 284.617 49.1201 284.761 49.6533 284.761ZM59.2422 283.618L61.457 276.49L63.1973 276.49L59.374 287.468C58.7822 289.05 57.8418 289.841 56.5527 289.841L56.2451 289.814L55.6387 289.7L55.6387 288.382L56.0781 288.417C56.6289 288.417 57.0566 288.306 57.3613 288.083C57.6719 287.86 57.9268 287.453 58.126 286.861L58.4863 285.895L55.0937 276.49L56.8691 276.49L59.2422 283.618ZM66.1855 276.49L66.2295 277.545C66.9268 276.725 67.8672 276.314 69.0508 276.314C70.3809 276.314 71.2861 276.824 71.7666 277.844C72.083 277.387 72.4932 277.018 72.9971 276.736C73.5068 276.455 74.1074 276.314 74.7988 276.314C76.8848 276.314 77.9453 277.419 77.9805 279.628L77.9805 286L76.3545 286L76.3545 279.725C76.3545 279.045 76.1992 278.538 75.8887 278.204C75.5781 277.864 75.0566 277.694 74.3242 277.694C73.7207 277.694 73.2197 277.876 72.8213 278.239C72.4229 278.597 72.1914 279.08 72.127 279.689L72.127 286L70.4922 286L70.4922 279.769C70.4922 278.386 69.8154 277.694 68.4619 277.694C67.3955 277.694 66.666 278.148 66.2734 279.057L66.2734 286L64.6475 286L64.6475 276.49L66.1855 276.49ZM84.3877 286.176C83.0986 286.176 82.0498 285.754 81.2412 284.91C80.4326 284.061 80.0283 282.927 80.0283 281.509L80.0283 281.21C80.0283 280.267 80.207 279.426 80.5645 278.687C80.9277 277.943 81.4316 277.363 82.0762 276.947C82.7266 276.525 83.4297 276.314 84.1855 276.314C85.4219 276.314 86.3828 276.722 87.0684 277.536C87.7539 278.351 88.0967 279.517 88.0967 281.034L88.0967 281.711L81.6543 281.711C81.6777 282.648 81.9502 283.407 82.4717 283.987C82.999 284.562 83.667 284.849 84.4756 284.849C85.0498 284.849 85.5361 284.731 85.9346 284.497C86.333 284.263 86.6816 283.952 86.9805 283.565L87.9736 284.339C87.1768 285.563 85.9814 286.176 84.3877 286.176ZM84.1855 277.65C83.5293 277.65 82.9785 277.891 82.5332 278.371C82.0879 278.846 81.8125 279.514 81.707 280.375L86.4707 280.375L86.4707 280.252C86.4238 279.426 86.2012 278.787 85.8027 278.336C85.4043 277.879 84.8652 277.65 84.1855 277.65ZM91.5244 276.49L91.5771 277.686C92.3037 276.771 93.2529 276.314 94.4248 276.314C96.4346 276.314 97.4482 277.448 97.4658 279.716L97.4658 286L95.8398 286L95.8398 279.707C95.834 279.021 95.6758 278.515 95.3652 278.187C95.0605 277.858 94.583 277.694 93.9326 277.694C93.4053 277.694 92.9424 277.835 92.5439 278.116C92.1455 278.397 91.835 278.767 91.6123 279.224L91.6123 286L89.9863 286L89.9863 276.49L91.5244 276.49ZM102.124 274.187L102.124 276.49L103.899 276.49L103.899 277.747L102.124 277.747L102.124 283.645C102.124 284.025 102.203 284.312 102.361 284.506C102.52 284.693 102.789 284.787 103.17 284.787C103.357 284.787 103.615 284.752 103.943 284.682L103.943 286C103.516 286.117 103.1 286.176 102.695 286.176C101.969 286.176 101.421 285.956 101.052 285.517C100.683 285.077 100.498 284.453 100.498 283.645L100.498 277.747L98.7666 277.747L98.7666 276.49L100.498 276.49L100.498 274.187L102.124 274.187ZM112.706 273.203L116.89 283.645L121.073 273.203L123.262 273.203L123.262 286L121.574 286L121.574 281.017L121.732 275.638L117.531 286L116.239 286L112.047 275.664L112.214 281.017L112.214 286L110.526 286L110.526 273.203L112.706 273.203ZM129.933 286.176C128.644 286.176 127.595 285.754 126.786 284.91C125.978 284.061 125.573 282.927 125.573 281.509L125.573 281.21C125.573 280.267 125.752 279.426 126.109 278.687C126.473 277.943 126.977 277.363 127.621 276.947C128.271 276.525 128.975 276.314 129.73 276.314C130.967 276.314 131.928 276.722 132.613 277.536C133.299 278.351 133.642 279.517 133.642 281.034L133.642 281.711L127.199 281.711C127.223 282.648 127.495 283.407 128.017 283.987C128.544 284.562 129.212 284.849 130.021 284.849C130.595 284.849 131.081 284.731 131.479 284.497C131.878 284.263 132.227 283.952 132.525 283.565L133.519 284.339C132.722 285.563 131.526 286.176 129.933 286.176ZM129.73 277.65C129.074 277.65 128.523 277.891 128.078 278.371C127.633 278.846 127.357 279.514 127.252 280.375L132.016 280.375L132.016 280.252C131.969 279.426 131.746 278.787 131.348 278.336C130.949 277.879 130.41 277.65 129.73 277.65ZM137.737 274.187L137.737 276.49L139.513 276.49L139.513 277.747L137.737 277.747L137.737 283.645C137.737 284.025 137.816 284.312 137.975 284.506C138.133 284.693 138.402 284.787 138.783 284.787C138.971 284.787 139.229 284.752 139.557 284.682L139.557 286C139.129 286.117 138.713 286.176 138.309 286.176C137.582 286.176 137.034 285.956 136.665 285.517C136.296 285.077 136.111 284.453 136.111 283.645L136.111 277.747L134.38 277.747L134.38 276.49L136.111 276.49L136.111 274.187L137.737 274.187ZM143.046 277.642C143.767 276.757 144.704 276.314 145.858 276.314C147.868 276.314 148.882 277.448 148.899 279.716L148.899 286L147.273 286L147.273 279.707C147.268 279.021 147.109 278.515 146.799 278.187C146.494 277.858 146.017 277.694 145.366 277.694C144.839 277.694 144.376 277.835 143.978 278.116C143.579 278.397 143.269 278.767 143.046 279.224L143.046 286L141.42 286L141.42 272.5L143.046 272.5L143.046 277.642ZM150.903 281.157C150.903 280.226 151.085 279.388 151.448 278.644C151.817 277.899 152.327 277.325 152.978 276.921C153.634 276.517 154.381 276.314 155.219 276.314C156.514 276.314 157.56 276.763 158.356 277.659C159.159 278.556 159.561 279.748 159.561 281.236L159.561 281.351C159.561 282.276 159.382 283.108 159.024 283.847C158.673 284.579 158.166 285.15 157.504 285.561C156.848 285.971 156.092 286.176 155.236 286.176C153.947 286.176 152.901 285.728 152.099 284.831C151.302 283.935 150.903 282.748 150.903 281.271L150.903 281.157ZM152.538 281.351C152.538 282.405 152.781 283.252 153.268 283.891C153.76 284.529 154.416 284.849 155.236 284.849C156.062 284.849 156.719 284.526 157.205 283.882C157.691 283.231 157.935 282.323 157.935 281.157C157.935 280.114 157.686 279.27 157.187 278.626C156.695 277.976 156.039 277.65 155.219 277.65C154.416 277.65 153.769 277.97 153.276 278.608C152.784 279.247 152.538 280.161 152.538 281.351ZM161.204 281.166C161.204 279.707 161.55 278.535 162.241 277.65C162.933 276.76 163.838 276.314 164.957 276.314C166.07 276.314 166.952 276.695 167.603 277.457L167.603 272.5L169.229 272.5L169.229 286L167.734 286L167.655 284.98C167.005 285.777 166.1 286.176 164.939 286.176C163.838 286.176 162.938 285.725 162.241 284.822C161.55 283.92 161.204 282.742 161.204 281.289L161.204 281.166ZM162.83 281.351C162.83 282.429 163.053 283.272 163.498 283.882C163.943 284.491 164.559 284.796 165.344 284.796C166.375 284.796 167.128 284.333 167.603 283.407L167.603 279.039C167.116 278.143 166.369 277.694 165.361 277.694C164.564 277.694 163.943 278.002 163.498 278.617C163.053 279.232 162.83 280.144 162.83 281.351ZM176.172 285.147C176.172 284.866 176.254 284.632 176.418 284.444C176.588 284.257 176.84 284.163 177.174 284.163C177.508 284.163 177.76 284.257 177.93 284.444C178.105 284.632 178.193 284.866 178.193 285.147C178.193 285.417 178.105 285.643 177.93 285.824C177.76 286.006 177.508 286.097 177.174 286.097C176.84 286.097 176.588 286.006 176.418 285.824C176.254 285.643 176.172 285.417 176.172 285.147ZM176.181 277.387C176.181 277.105 176.263 276.871 176.427 276.684C176.597 276.496 176.849 276.402 177.183 276.402C177.517 276.402 177.769 276.496 177.938 276.684C178.114 276.871 178.202 277.105 178.202 277.387C178.202 277.656 178.114 277.882 177.938 278.063C177.769 278.245 177.517 278.336 177.183 278.336C176.849 278.336 176.597 278.245 176.427 278.063C176.263 277.882 176.181 277.656 176.181 277.387Z" fill="black"/>
<path d="M54.8984 321.939C54.7402 323.293 54.2393 324.339 53.3955 325.077C52.5576 325.81 51.4414 326.176 50.0469 326.176C48.5352 326.176 47.3223 325.634 46.4082 324.55C45.5 323.466 45.0459 322.016 45.0459 320.199L45.0459 318.969C45.0459 317.779 45.2568 316.733 45.6787 315.831C46.1064 314.929 46.71 314.237 47.4893 313.757C48.2686 313.271 49.1709 313.027 50.1963 313.027C51.5557 313.027 52.6455 313.408 53.4658 314.17C54.2861 314.926 54.7637 315.975 54.8984 317.316L53.2021 317.316C53.0557 316.297 52.7363 315.559 52.2441 315.102C51.7578 314.645 51.0752 314.416 50.1963 314.416C49.1182 314.416 48.2715 314.814 47.6562 315.611C47.0469 316.408 46.7422 317.542 46.7422 319.013L46.7422 320.252C46.7422 321.641 47.0322 322.745 47.6123 323.565C48.1924 324.386 49.0039 324.796 50.0469 324.796C50.9844 324.796 51.7021 324.585 52.2002 324.163C52.7041 323.735 53.0381 322.994 53.2021 321.939L54.8984 321.939ZM62.8262 326C62.7324 325.812 62.6562 325.479 62.5977 324.998C61.8418 325.783 60.9395 326.176 59.8906 326.176C58.9531 326.176 58.1826 325.912 57.5791 325.385C56.9814 324.852 56.6826 324.178 56.6826 323.363C56.6826 322.373 57.0576 321.605 57.8076 321.061C58.5635 320.51 59.624 320.234 60.9893 320.234L62.5713 320.234L62.5713 319.487C62.5713 318.919 62.4014 318.468 62.0615 318.134C61.7217 317.794 61.2207 317.624 60.5586 317.624C59.9785 317.624 59.4922 317.771 59.0996 318.063C58.707 318.356 58.5107 318.711 58.5107 319.127L56.876 319.127C56.876 318.652 57.043 318.195 57.377 317.756C57.7168 317.311 58.1738 316.959 58.748 316.701C59.3281 316.443 59.9639 316.314 60.6553 316.314C61.751 316.314 62.6094 316.59 63.2305 317.141C63.8516 317.686 64.1738 318.438 64.1973 319.399L64.1973 323.776C64.1973 324.649 64.3086 325.344 64.5312 325.859L64.5312 326L62.8262 326ZM60.1279 324.761C60.6377 324.761 61.1211 324.629 61.5781 324.365C62.0352 324.102 62.3662 323.759 62.5713 323.337L62.5713 321.386L61.2969 321.386C59.3047 321.386 58.3086 321.969 58.3086 323.135C58.3086 323.645 58.4785 324.043 58.8184 324.33C59.1582 324.617 59.5947 324.761 60.1279 324.761ZM72.2832 323.478C72.2832 323.038 72.1162 322.698 71.7822 322.458C71.4541 322.212 70.877 322.001 70.0508 321.825C69.2305 321.649 68.5771 321.438 68.0908 321.192C67.6104 320.946 67.2529 320.653 67.0186 320.313C66.79 319.974 66.6758 319.569 66.6758 319.101C66.6758 318.321 67.0039 317.662 67.6602 317.123C68.3223 316.584 69.166 316.314 70.1914 316.314C71.2695 316.314 72.1426 316.593 72.8105 317.149C73.4844 317.706 73.8213 318.418 73.8213 319.285L72.1865 319.285C72.1865 318.84 71.9961 318.456 71.6152 318.134C71.2402 317.812 70.7656 317.65 70.1914 317.65C69.5996 317.65 69.1367 317.779 68.8027 318.037C68.4687 318.295 68.3018 318.632 68.3018 319.048C68.3018 319.44 68.457 319.736 68.7676 319.936C69.0781 320.135 69.6377 320.325 70.4463 320.507C71.2607 320.688 71.9199 320.905 72.4238 321.157C72.9277 321.409 73.2998 321.714 73.54 322.071C73.7861 322.423 73.9092 322.854 73.9092 323.363C73.9092 324.213 73.5693 324.896 72.8896 325.411C72.21 325.921 71.3281 326.176 70.2441 326.176C69.4824 326.176 68.8086 326.041 68.2227 325.771C67.6367 325.502 67.1768 325.127 66.8428 324.646C66.5146 324.16 66.3506 323.636 66.3506 323.073L67.9766 323.073C68.0059 323.618 68.2227 324.052 68.627 324.374C69.0371 324.69 69.5762 324.849 70.2441 324.849C70.8594 324.849 71.3516 324.726 71.7207 324.479C72.0957 324.228 72.2832 323.894 72.2832 323.478ZM77.6533 317.642C78.374 316.757 79.3115 316.314 80.4658 316.314C82.4756 316.314 83.4893 317.448 83.5068 319.716L83.5068 326L81.8809 326L81.8809 319.707C81.875 319.021 81.7168 318.515 81.4062 318.187C81.1016 317.858 80.624 317.694 79.9736 317.694C79.4463 317.694 78.9834 317.835 78.585 318.116C78.1865 318.397 77.876 318.767 77.6533 319.224L77.6533 326L76.0273 326L76.0273 312.5L77.6533 312.5L77.6533 317.642ZM89.9756 321.157C89.9756 320.226 90.1572 319.388 90.5205 318.644C90.8896 317.899 91.3994 317.325 92.0498 316.921C92.7061 316.517 93.4531 316.314 94.291 316.314C95.5859 316.314 96.6318 316.763 97.4287 317.659C98.2314 318.556 98.6328 319.748 98.6328 321.236L98.6328 321.351C98.6328 322.276 98.4541 323.108 98.0967 323.847C97.7451 324.579 97.2383 325.15 96.5762 325.561C95.9199 325.971 95.1641 326.176 94.3086 326.176C93.0195 326.176 91.9736 325.728 91.1709 324.831C90.374 323.935 89.9756 322.748 89.9756 321.271L89.9756 321.157ZM91.6104 321.351C91.6104 322.405 91.8535 323.252 92.3398 323.891C92.832 324.529 93.4883 324.849 94.3086 324.849C95.1348 324.849 95.791 324.526 96.2773 323.882C96.7637 323.231 97.0068 322.323 97.0068 321.157C97.0068 320.114 96.7578 319.271 96.2598 318.626C95.7676 317.976 95.1113 317.65 94.291 317.65C93.4883 317.65 92.8408 317.97 92.3486 318.608C91.8564 319.247 91.6104 320.161 91.6104 321.351ZM102.21 316.49L102.263 317.686C102.989 316.771 103.938 316.314 105.11 316.314C107.12 316.314 108.134 317.448 108.151 319.716L108.151 326L106.525 326L106.525 319.707C106.52 319.021 106.361 318.515 106.051 318.187C105.746 317.858 105.269 317.694 104.618 317.694C104.091 317.694 103.628 317.835 103.229 318.116C102.831 318.397 102.521 318.767 102.298 319.224L102.298 326L100.672 326L100.672 316.49L102.21 316.49ZM115.323 326L115.323 313.203L118.936 313.203C120.049 313.203 121.033 313.449 121.889 313.941C122.744 314.434 123.403 315.134 123.866 316.042C124.335 316.95 124.572 317.993 124.578 319.171L124.578 319.988C124.578 321.195 124.344 322.253 123.875 323.161C123.412 324.069 122.747 324.767 121.88 325.253C121.019 325.739 120.014 325.988 118.865 326L115.323 326ZM117.011 314.592L117.011 324.62L118.786 324.62C120.087 324.62 121.098 324.216 121.818 323.407C122.545 322.599 122.908 321.447 122.908 319.953L122.908 319.206C122.908 317.753 122.565 316.625 121.88 315.822C121.2 315.014 120.233 314.604 118.979 314.592L117.011 314.592ZM130.827 326.176C129.538 326.176 128.489 325.754 127.681 324.91C126.872 324.061 126.468 322.927 126.468 321.509L126.468 321.21C126.468 320.267 126.646 319.426 127.004 318.687C127.367 317.943 127.871 317.363 128.516 316.947C129.166 316.525 129.869 316.314 130.625 316.314C131.861 316.314 132.822 316.722 133.508 317.536C134.193 318.351 134.536 319.517 134.536 321.034L134.536 321.711L128.094 321.711C128.117 322.648 128.39 323.407 128.911 323.987C129.438 324.562 130.106 324.849 130.915 324.849C131.489 324.849 131.976 324.731 132.374 324.497C132.772 324.263 133.121 323.952 133.42 323.565L134.413 324.339C133.616 325.563 132.421 326.176 130.827 326.176ZM130.625 317.65C129.969 317.65 129.418 317.891 128.973 318.371C128.527 318.846 128.252 319.514 128.146 320.375L132.91 320.375L132.91 320.252C132.863 319.426 132.641 318.787 132.242 318.336C131.844 317.879 131.305 317.65 130.625 317.65ZM138.192 326L136.566 326L136.566 312.5L138.192 312.5L138.192 326ZM142.569 326L140.943 326L140.943 316.49L142.569 316.49L142.569 326ZM140.812 313.968C140.812 313.704 140.891 313.481 141.049 313.3C141.213 313.118 141.453 313.027 141.77 313.027C142.086 313.027 142.326 313.118 142.49 313.3C142.654 313.481 142.736 313.704 142.736 313.968C142.736 314.231 142.654 314.451 142.49 314.627C142.326 314.803 142.086 314.891 141.77 314.891C141.453 314.891 141.213 314.803 141.049 314.627C140.891 314.451 140.812 314.231 140.812 313.968ZM148.317 323.794L150.673 316.49L152.334 316.49L148.924 326L147.685 326L144.239 316.49L145.9 316.49L148.317 323.794ZM157.722 326.176C156.433 326.176 155.384 325.754 154.575 324.91C153.767 324.061 153.362 322.927 153.362 321.509L153.362 321.21C153.362 320.267 153.541 319.426 153.898 318.687C154.262 317.943 154.766 317.363 155.41 316.947C156.061 316.525 156.764 316.314 157.52 316.314C158.756 316.314 159.717 316.722 160.402 317.536C161.088 318.351 161.431 319.517 161.431 321.034L161.431 321.711L154.988 321.711C155.012 322.648 155.284 323.407 155.806 323.987C156.333 324.562 157.001 324.849 157.81 324.849C158.384 324.849 158.87 324.731 159.269 324.497C159.667 324.263 160.016 323.952 160.314 323.565L161.308 324.339C160.511 325.563 159.315 326.176 157.722 326.176ZM157.52 317.65C156.863 317.65 156.312 317.891 155.867 318.371C155.422 318.846 155.146 319.514 155.041 320.375L159.805 320.375L159.805 320.252C159.758 319.426 159.535 318.787 159.137 318.336C158.738 317.879 158.199 317.65 157.52 317.65ZM167.917 317.949C167.671 317.908 167.404 317.888 167.117 317.888C166.051 317.888 165.327 318.342 164.946 319.25L164.946 326L163.32 326L163.32 316.49L164.902 316.49L164.929 317.589C165.462 316.739 166.218 316.314 167.196 316.314C167.513 316.314 167.753 316.355 167.917 316.437L167.917 317.949ZM172.689 323.618L174.904 316.49L176.645 316.49L172.821 327.468C172.229 329.05 171.289 329.841 170 329.841L169.692 329.814L169.086 329.7L169.086 328.382L169.525 328.417C170.076 328.417 170.504 328.306 170.809 328.083C171.119 327.86 171.374 327.453 171.573 326.861L171.934 325.895L168.541 316.49L170.316 316.49L172.689 323.618Z" fill="black"/>
<path d="M189.448 202L181.063 202L181.063 200.831L185.493 195.909C186.149 195.165 186.601 194.562 186.847 194.099C187.099 193.63 187.225 193.146 187.225 192.648C187.225 191.98 187.022 191.433 186.618 191.005C186.214 190.577 185.675 190.363 185.001 190.363C184.192 190.363 183.562 190.595 183.111 191.058C182.666 191.515 182.443 192.153 182.443 192.974L180.817 192.974C180.817 191.796 181.195 190.844 181.951 190.117C182.713 189.391 183.729 189.027 185.001 189.027C186.19 189.027 187.131 189.341 187.822 189.968C188.514 190.589 188.859 191.418 188.859 192.455C188.859 193.715 188.057 195.215 186.451 196.955L183.023 200.673L189.448 200.673L189.448 202ZM191.918 195.584L192.568 189.203L199.125 189.203L199.125 190.706L193.948 190.706L193.562 194.195C194.188 193.826 194.9 193.642 195.697 193.642C196.863 193.642 197.789 194.028 198.475 194.802C199.16 195.569 199.503 196.609 199.503 197.922C199.503 199.24 199.146 200.28 198.431 201.042C197.722 201.798 196.729 202.176 195.451 202.176C194.32 202.176 193.397 201.862 192.683 201.235C191.968 200.608 191.561 199.741 191.461 198.634L192.999 198.634C193.099 199.366 193.359 199.92 193.781 200.295C194.203 200.664 194.76 200.849 195.451 200.849C196.207 200.849 196.799 200.591 197.227 200.075C197.66 199.56 197.877 198.848 197.877 197.939C197.877 197.084 197.643 196.398 197.174 195.883C196.711 195.361 196.093 195.101 195.319 195.101C194.61 195.101 194.054 195.256 193.649 195.566L193.219 195.918L191.918 195.584ZM204.1 197.597L203.08 198.66L203.08 202L201.454 202L201.454 188.5L203.08 188.5L203.08 196.665L203.95 195.619L206.912 192.49L208.89 192.49L205.189 196.463L209.32 202L207.413 202L204.1 197.597Z" fill="black"/>
<path d="M40.9834 139L39.7119 139L39.7119 130.571L37.1621 131.508L37.1621 130.359L40.7852 128.999L40.9834 128.999L40.9834 139ZM50.9297 134.755C50.9297 136.236 50.6768 137.337 50.1709 138.057C49.665 138.777 48.8743 139.137 47.7988 139.137C46.737 139.137 45.9508 138.786 45.4404 138.084C44.93 137.378 44.6657 136.325 44.6475 134.926L44.6475 133.237C44.6475 131.774 44.9004 130.688 45.4062 129.977C45.9121 129.266 46.7051 128.91 47.7852 128.91C48.8561 128.91 49.6445 129.254 50.1504 129.942C50.6562 130.626 50.916 131.683 50.9297 133.114L50.9297 134.755ZM49.665 133.025C49.665 131.954 49.5146 131.175 49.2139 130.688C48.9131 130.195 48.4368 129.949 47.7852 129.949C47.138 129.949 46.6663 130.193 46.3701 130.681C46.0739 131.168 45.9212 131.918 45.9121 132.93L45.9121 134.953C45.9121 136.029 46.0671 136.824 46.377 137.339C46.6914 137.849 47.1654 138.104 47.7988 138.104C48.4232 138.104 48.8857 137.863 49.1865 137.38C49.4919 136.897 49.6514 136.136 49.665 135.097L49.665 133.025ZM52.9326 139.854L51.8457 139.854L56.002 129.047L57.082 129.047L52.9326 139.854ZM64.5605 134.755C64.5605 136.236 64.3076 137.337 63.8018 138.057C63.2959 138.777 62.5052 139.137 61.4297 139.137C60.3678 139.137 59.5817 138.786 59.0713 138.084C58.5609 137.378 58.2965 136.325 58.2783 134.926L58.2783 133.237C58.2783 131.774 58.5312 130.688 59.0371 129.977C59.543 129.266 60.3359 128.91 61.416 128.91C62.487 128.91 63.2754 129.254 63.7812 129.942C64.2871 130.626 64.5469 131.683 64.5605 133.114L64.5605 134.755ZM63.2959 133.025C63.2959 131.954 63.1455 131.175 62.8447 130.688C62.5439 130.195 62.0677 129.949 61.416 129.949C60.7689 129.949 60.2972 130.193 60.001 130.681C59.7048 131.168 59.5521 131.918 59.543 132.93L59.543 134.953C59.543 136.029 59.6979 136.824 60.0078 137.339C60.3223 137.849 60.7962 138.104 61.4297 138.104C62.054 138.104 62.5166 137.863 62.8174 137.38C63.1227 136.897 63.2822 136.136 63.2959 135.097L63.2959 133.025ZM71.1436 129.04L71.1436 130.113L70.9111 130.113C69.9268 130.132 69.1429 130.423 68.5596 130.988C67.9762 131.553 67.639 132.349 67.5479 133.374C68.0719 132.772 68.7874 132.472 69.6943 132.472C70.5602 132.472 71.2507 132.777 71.7656 133.388C72.2852 133.998 72.5449 134.787 72.5449 135.753C72.5449 136.778 72.2646 137.599 71.7041 138.214C71.1481 138.829 70.4007 139.137 69.4619 139.137C68.5094 139.137 67.737 138.772 67.1445 138.043C66.5521 137.309 66.2559 136.366 66.2559 135.213L66.2559 134.728C66.2559 132.896 66.6455 131.496 67.4248 130.53C68.2087 129.56 69.373 129.063 70.918 129.04L71.1436 129.04ZM69.4824 133.524C69.0495 133.524 68.6507 133.654 68.2861 133.914C67.9215 134.174 67.6686 134.5 67.5273 134.892L67.5273 135.356C67.5273 136.177 67.7119 136.838 68.0811 137.339C68.4502 137.84 68.9105 138.091 69.4619 138.091C70.0316 138.091 70.4782 137.881 70.8018 137.462C71.1299 137.043 71.2939 136.493 71.2939 135.814C71.2939 135.131 71.1276 134.579 70.7949 134.16C70.4668 133.736 70.0293 133.524 69.4824 133.524ZM74.4248 139.854L73.3379 139.854L77.4941 129.047L78.5742 129.047L74.4248 139.854ZM86.333 139L79.8115 139L79.8115 138.091L83.2568 134.263C83.7673 133.684 84.1182 133.215 84.3096 132.854C84.5055 132.49 84.6035 132.114 84.6035 131.727C84.6035 131.207 84.4463 130.781 84.1318 130.448C83.8174 130.116 83.3981 129.949 82.874 129.949C82.2451 129.949 81.7552 130.129 81.4043 130.489C81.0579 130.845 80.8848 131.341 80.8848 131.979L79.6201 131.979C79.6201 131.063 79.9141 130.323 80.502 129.758C81.0944 129.193 81.8851 128.91 82.874 128.91C83.7992 128.91 84.5306 129.154 85.0684 129.642C85.6061 130.125 85.875 130.77 85.875 131.576C85.875 132.556 85.2507 133.723 84.002 135.076L81.3359 137.968L86.333 137.968L86.333 139ZM93.9141 134.755C93.9141 136.236 93.6611 137.337 93.1553 138.057C92.6494 138.777 91.8587 139.137 90.7832 139.137C89.7214 139.137 88.9352 138.786 88.4248 138.084C87.9144 137.378 87.6501 136.325 87.6318 134.926L87.6318 133.237C87.6318 131.774 87.8848 130.688 88.3906 129.977C88.8965 129.266 89.6895 128.91 90.7695 128.91C91.8405 128.91 92.6289 129.254 93.1348 129.942C93.6406 130.626 93.9004 131.683 93.9141 133.114L93.9141 134.755ZM92.6494 133.025C92.6494 131.954 92.499 131.175 92.1982 130.688C91.8975 130.195 91.4212 129.949 90.7695 129.949C90.1224 129.949 89.6507 130.193 89.3545 130.681C89.0583 131.168 88.9056 131.918 88.8965 132.93L88.8965 134.953C88.8965 136.029 89.0514 136.824 89.3613 137.339C89.6758 137.849 90.1497 138.104 90.7832 138.104C91.4076 138.104 91.8701 137.863 92.1709 137.38C92.4762 136.897 92.6357 136.136 92.6494 135.097L92.6494 133.025ZM102.056 139L95.5342 139L95.5342 138.091L98.9795 134.263C99.4899 133.684 99.8408 133.215 100.032 132.854C100.228 132.49 100.326 132.114 100.326 131.727C100.326 131.207 100.169 130.781 99.8545 130.448C99.54 130.116 99.1208 129.949 98.5967 129.949C97.9678 129.949 97.4779 130.129 97.127 130.489C96.7806 130.845 96.6074 131.341 96.6074 131.979L95.3428 131.979C95.3428 131.063 95.6367 130.323 96.2246 129.758C96.8171 129.193 97.6077 128.91 98.5967 128.91C99.5218 128.91 100.253 129.154 100.791 129.642C101.329 130.125 101.598 130.77 101.598 131.576C101.598 132.556 100.973 133.723 99.7246 135.076L97.0586 137.968L102.056 137.968L102.056 139ZM109.637 134.755C109.637 136.236 109.384 137.337 108.878 138.057C108.372 138.777 107.581 139.137 106.506 139.137C105.444 139.137 104.658 138.786 104.147 138.084C103.637 137.378 103.373 136.325 103.354 134.926L103.354 133.237C103.354 131.774 103.607 130.688 104.113 129.977C104.619 129.266 105.412 128.91 106.492 128.91C107.563 128.91 108.352 129.254 108.857 129.942C109.363 130.626 109.623 131.683 109.637 133.114L109.637 134.755ZM108.372 133.025C108.372 131.954 108.222 131.175 107.921 130.688C107.62 130.195 107.144 129.949 106.492 129.949C105.845 129.949 105.373 130.193 105.077 130.681C104.781 131.168 104.628 131.918 104.619 132.93L104.619 134.953C104.619 136.029 104.774 136.824 105.084 137.339C105.398 137.849 105.872 138.104 106.506 138.104C107.13 138.104 107.593 137.863 107.894 137.38C108.199 136.897 108.358 136.136 108.372 135.097L108.372 133.025Z" fill="black"/>
<path d="M152.042 49.296C151.658 48.936 151.292 48.66 150.944 48.468C150.596 48.288 150.17 48.198 149.666 48.198C149.174 48.198 148.784 48.288 148.496 48.468C148.196 48.66 148.046 48.924 148.046 49.26C148.046 49.608 148.244 49.884 148.64 50.088C149.024 50.304 149.48 50.412 150.008 50.412C150.536 50.412 151.004 50.364 151.412 50.268C151.652 50.052 151.862 49.728 152.042 49.296ZM155.084 51.114C155.288 51.186 155.504 51.234 155.732 51.258C155.96 51.282 156.26 51.294 156.632 51.294C157.016 51.294 157.406 51.192 157.802 50.988C158.198 50.784 158.51 50.544 158.738 50.268C158.978 50.004 159.188 49.704 159.368 49.368C159.596 48.972 159.764 48.576 159.872 48.18L160.304 48.324C159.992 49.344 159.494 50.154 158.81 50.754C158.138 51.354 157.352 51.654 156.452 51.654C155.744 51.654 155.252 51.6 154.976 51.492C154.712 51.396 154.52 51.33 154.4 51.294C154.28 51.27 154.118 51.18 153.914 51.024C153.722 50.88 153.608 50.796 153.572 50.772C153.476 50.7 153.23 50.466 152.834 50.07C152.066 50.526 151.238 50.754 150.35 50.754C149.462 50.754 148.784 50.61 148.316 50.322C147.848 50.046 147.614 49.692 147.614 49.26C147.614 48.84 147.788 48.498 148.136 48.234C148.472 47.982 148.982 47.856 149.666 47.856C150.602 47.856 151.442 48.204 152.186 48.9C152.33 48.456 152.45 47.964 152.546 47.424L153.752 40.458C154.04 38.658 154.664 37.446 155.624 36.822C156.464 36.282 157.418 36.012 158.486 36.012C159.554 36.012 160.424 36.318 161.096 36.93C161.78 37.542 162.122 38.508 162.122 39.828L161.69 39.828C161.69 38.76 161.432 37.95 160.916 37.398C160.412 36.834 159.77 36.552 158.99 36.552C157.562 36.552 156.716 37.44 156.452 39.216C156.452 39.408 156.296 40.398 155.984 42.186C155.684 43.962 155.414 45.432 155.174 46.596C154.922 48 154.25 49.086 153.158 49.854C153.806 50.502 154.286 50.874 154.598 50.97C154.718 51.006 154.88 51.054 155.084 51.114ZM163.874 48.162C162.95 48.162 162.248 47.934 161.768 47.478C161.288 47.01 161.048 46.428 161.048 45.732C161.048 45.024 161.108 44.424 161.228 43.932C161.36 43.428 161.57 42.948 161.858 42.492C162.146 42.024 162.578 41.658 163.154 41.394C163.742 41.13 164.468 40.998 165.332 40.998C166.208 40.998 166.886 41.232 167.366 41.7C167.858 42.156 168.104 42.786 168.104 43.59C168.104 44.958 167.738 46.062 167.006 46.902C166.286 47.742 165.242 48.162 163.874 48.162ZM163.082 46.308C163.082 47.268 163.358 47.748 163.91 47.748C164.474 47.748 164.972 47.268 165.404 46.308C165.848 45.336 166.07 44.184 166.07 42.852C166.07 41.844 165.794 41.34 165.242 41.34C164.702 41.34 164.204 41.802 163.748 42.726C163.304 43.638 163.082 44.832 163.082 46.308ZM173.71 43.23C173.458 42.978 173.332 42.672 173.332 42.312C173.332 41.952 173.458 41.646 173.71 41.394C173.962 41.13 174.244 40.998 174.556 40.998C174.88 40.998 175.15 41.082 175.366 41.25C175.594 41.406 175.756 41.61 175.852 41.862C175.864 41.874 175.87 41.886 175.87 41.898L175.87 41.916C176.014 42.228 176.086 42.684 176.086 43.284C176.086 43.872 176.014 44.412 175.87 44.904C175.738 45.396 175.528 45.9 175.24 46.416C174.964 46.92 174.556 47.34 174.016 47.676C173.476 48 172.84 48.162 172.108 48.162C171.376 48.162 170.764 47.922 170.272 47.442C169.792 46.962 169.552 46.41 169.552 45.786C169.552 45.162 169.66 44.394 169.876 43.482C170.104 42.558 170.23 41.85 170.254 41.358C170.062 41.37 169.876 41.442 169.696 41.574C169.516 41.694 169.384 41.814 169.3 41.934L169.174 42.114L168.904 41.898C168.94 41.826 168.994 41.742 169.066 41.646C169.138 41.55 169.318 41.418 169.606 41.25C169.906 41.082 170.278 40.998 170.722 40.998C171.166 40.998 171.52 41.142 171.784 41.43C172.06 41.718 172.198 42.084 172.198 42.528C172.198 42.972 172.078 43.662 171.838 44.598C171.598 45.522 171.478 46.176 171.478 46.56C171.478 46.932 171.562 47.226 171.73 47.442C171.91 47.658 172.162 47.766 172.486 47.766C173.29 47.766 174.022 47.328 174.682 46.452C175.342 45.576 175.672 44.598 175.672 43.518C175.672 43.434 175.66 43.308 175.636 43.14C175.384 43.452 175.06 43.608 174.664 43.608C174.28 43.608 173.962 43.482 173.71 43.23ZM180.827 40.998C182.351 40.998 183.113 41.604 183.113 42.816C183.113 43.572 182.753 44.148 182.033 44.544C181.325 44.928 180.311 45.126 178.991 45.138C178.967 45.57 178.955 45.912 178.955 46.164C178.955 46.704 179.075 47.106 179.315 47.37C179.567 47.622 179.879 47.748 180.251 47.748C180.623 47.748 180.959 47.676 181.259 47.532C181.571 47.388 181.817 47.22 181.997 47.028C182.177 46.824 182.333 46.614 182.465 46.398C182.705 46.002 182.825 45.75 182.825 45.642L183.149 45.786C183.113 45.978 183.005 46.236 182.825 46.56C182.645 46.872 182.447 47.13 182.231 47.334C182.015 47.538 181.697 47.73 181.277 47.91C180.857 48.078 180.389 48.162 179.873 48.162C178.901 48.162 178.163 47.934 177.659 47.478C177.167 47.01 176.921 46.374 176.921 45.57C176.921 44.142 177.275 43.026 177.983 42.222C178.691 41.406 179.639 40.998 180.827 40.998ZM182.663 42.816C182.663 42.42 182.543 42.096 182.303 41.844C182.075 41.58 181.727 41.448 181.259 41.448C180.803 41.448 180.353 41.724 179.909 42.276C179.477 42.828 179.189 43.644 179.045 44.724C181.457 44.712 182.663 44.076 182.663 42.816ZM187.387 47.352C187.231 47.556 187.015 47.742 186.739 47.91C186.475 48.078 186.127 48.162 185.695 48.162C185.263 48.162 184.897 48.024 184.597 47.748C184.297 47.472 184.147 47.082 184.147 46.578C184.147 46.482 184.159 46.326 184.183 46.11L185.353 39.63C185.569 38.442 185.863 37.596 186.235 37.092C186.619 36.588 187.123 36.336 187.747 36.336C188.179 36.336 188.533 36.498 188.809 36.822C189.097 37.146 189.241 37.638 189.241 38.298C189.241 38.958 188.983 39.9 188.467 41.124C187.963 42.348 187.711 43.242 187.711 43.806L187.387 43.806C187.387 43.17 187.639 42.264 188.143 41.088C188.647 39.9 188.899 38.952 188.899 38.244C188.899 37.812 188.797 37.44 188.593 37.128C188.401 36.816 188.161 36.66 187.873 36.66C187.861 36.972 187.651 38.376 187.243 40.872C186.847 43.356 186.451 45.666 186.055 47.802C186.391 47.802 186.703 47.628 186.991 47.28C187.279 46.932 187.483 46.584 187.603 46.236L187.801 45.696L188.125 45.84C188.089 46.008 187.993 46.254 187.837 46.578C187.693 46.89 187.543 47.148 187.387 47.352ZM190.219 41.358C189.931 41.358 189.631 41.526 189.319 41.862L189.049 41.646C189.133 41.478 189.319 41.328 189.607 41.196C189.895 41.064 190.213 40.998 190.561 40.998C191.653 40.998 192.199 41.49 192.199 42.474C192.199 42.894 192.085 43.584 191.857 44.544C191.629 45.492 191.515 46.134 191.515 46.47C191.515 47.046 191.755 47.334 192.235 47.334C192.631 47.334 193.015 47.064 193.387 46.524C193.771 45.984 194.083 45.258 194.323 44.346L194.917 41.16C195.805 41.16 196.453 41.124 196.861 41.052L197.095 40.998L195.961 47.37C195.745 48.606 195.241 49.572 194.449 50.268C193.669 50.964 192.655 51.312 191.407 51.312C190.651 51.312 190.063 51.18 189.643 50.916C189.235 50.664 189.031 50.328 189.031 49.908C189.031 49.5 189.157 49.17 189.409 48.918C189.661 48.678 190.015 48.558 190.471 48.558C190.939 48.558 191.371 48.63 191.767 48.774C192.163 48.93 192.451 49.02 192.631 49.044L192.595 49.368C192.391 49.344 192.097 49.26 191.713 49.116C191.329 48.972 190.945 48.9 190.561 48.9C190.189 48.9 189.901 48.984 189.697 49.152C189.505 49.32 189.409 49.56 189.409 49.872C189.409 50.196 189.583 50.454 189.931 50.646C190.279 50.85 190.711 50.952 191.227 50.952C192.475 50.952 193.243 50.202 193.531 48.702L193.981 46.218C193.477 47.322 192.715 47.874 191.695 47.874C190.999 47.874 190.459 47.676 190.075 47.28C189.703 46.884 189.517 46.326 189.517 45.606C189.517 45.234 189.625 44.568 189.841 43.608C190.069 42.636 190.195 41.886 190.219 41.358ZM152.78 66.552C152.78 68.352 153.362 69.54 154.526 70.116C154.814 70.152 155.192 70.17 155.66 70.17C156.14 70.17 156.644 70.08 157.172 69.9C157.7 69.72 158.108 69.498 158.396 69.234C159.008 68.67 159.392 68.184 159.548 67.776L159.638 67.506L159.998 67.65C159.914 67.926 159.752 68.244 159.512 68.604C159.272 68.964 158.996 69.27 158.684 69.522C158.384 69.774 157.94 70.002 157.352 70.206C156.776 70.422 156.134 70.53 155.426 70.53C153.914 70.53 152.738 70.092 151.898 69.216C151.07 68.34 150.656 67.104 150.656 65.508C150.656 63.336 151.358 61.548 152.762 60.144C154.166 58.74 156.008 58.038 158.288 58.038C159.344 58.038 160.106 58.23 160.574 58.614C161.042 58.986 161.276 59.574 161.276 60.378C161.276 60.918 161.012 61.584 160.484 62.376C160.004 63.144 159.764 63.744 159.764 64.176L159.368 64.176C159.368 63.936 159.416 63.678 159.512 63.402C159.608 63.126 159.692 62.928 159.764 62.808C159.836 62.688 159.968 62.472 160.16 62.16C160.628 61.452 160.862 60.87 160.862 60.414C160.862 59.454 160.466 58.848 159.674 58.596C159.302 58.476 158.912 58.416 158.504 58.416C158.096 58.416 157.664 58.44 157.208 58.488C156.788 58.62 156.386 58.794 156.002 59.01C155.63 59.214 155.24 59.532 154.832 59.964C154.424 60.384 154.076 60.876 153.788 61.44C153.5 62.004 153.26 62.73 153.068 63.618C152.876 64.494 152.78 65.472 152.78 66.552ZM168 69.162C166.944 69.162 166.368 68.7 166.272 67.776C165.744 68.7 165.078 69.162 164.274 69.162C163.47 69.162 162.828 68.922 162.348 68.442C161.88 67.95 161.646 67.266 161.646 66.39C161.646 65.022 161.982 63.948 162.654 63.168C163.326 62.388 164.196 61.998 165.264 61.998C166.14 61.998 166.722 62.412 167.01 63.24C167.07 62.88 167.136 62.52 167.208 62.16C168.096 62.16 168.756 62.124 169.188 62.052L169.422 61.998L168.18 68.802C168.54 68.766 168.84 68.598 169.08 68.298L169.35 68.514C168.99 68.946 168.54 69.162 168 69.162ZM163.68 67.308C163.68 67.848 163.746 68.226 163.878 68.442C164.022 68.646 164.238 68.748 164.526 68.748C164.814 68.748 165.108 68.592 165.408 68.28C165.804 67.872 166.122 67.356 166.362 66.732C166.398 66.576 166.464 66.204 166.56 65.616C166.668 65.016 166.758 64.524 166.83 64.14C166.794 63.684 166.668 63.288 166.452 62.952C166.236 62.616 165.966 62.448 165.642 62.448C165.054 62.448 164.58 62.976 164.22 64.032C163.86 65.076 163.68 66.168 163.68 67.308ZM171.481 62.16L171.967 59.496C172.855 59.496 173.515 59.46 173.947 59.388L174.181 59.334C174.013 60.174 173.827 61.116 173.623 62.16L175.855 62.16L175.819 62.484L173.569 62.484C172.969 65.58 172.669 67.446 172.669 68.082C172.669 68.466 172.873 68.658 173.281 68.658C173.689 68.658 174.061 68.4 174.397 67.884C174.733 67.368 174.973 66.81 175.117 66.21L175.441 66.318C174.997 68.214 174.079 69.162 172.687 69.162C172.111 69.162 171.631 69.006 171.247 68.694C170.863 68.37 170.671 67.926 170.671 67.362C170.671 66.786 170.917 65.16 171.409 62.484L170.527 62.484L170.563 62.16L171.481 62.16ZM182.916 68.802C183.204 68.802 183.504 68.634 183.816 68.298L184.086 68.514C184.002 68.682 183.816 68.832 183.528 68.964C183.24 69.096 182.922 69.162 182.574 69.162C181.482 69.162 180.936 68.67 180.936 67.686C180.936 67.266 181.044 66.516 181.26 65.436C181.476 64.356 181.584 63.648 181.584 63.312C181.584 62.796 181.338 62.538 180.846 62.538C180.438 62.538 180.042 62.814 179.658 63.366C179.286 63.918 178.98 64.668 178.74 65.616L178.146 69L175.986 69L177.984 57.696C177.624 57.732 177.324 57.9 177.084 58.2L176.814 57.984C177.174 57.552 177.624 57.336 178.164 57.336C178.716 57.336 179.142 57.474 179.442 57.75C179.742 58.026 179.892 58.416 179.892 58.92C179.892 59.016 179.88 59.172 179.856 59.388L179.1 63.654C179.592 62.55 180.354 61.998 181.386 61.998C182.094 61.998 182.646 62.202 183.042 62.61C183.438 63.006 183.636 63.558 183.636 64.266C183.636 64.638 183.522 65.358 183.294 66.426C183.066 67.482 182.94 68.274 182.916 68.802ZM188.825 61.998C190.349 61.998 191.111 62.604 191.111 63.816C191.111 64.572 190.751 65.148 190.031 65.544C189.323 65.928 188.309 66.126 186.989 66.138C186.965 66.57 186.953 66.912 186.953 67.164C186.953 67.704 187.073 68.106 187.313 68.37C187.565 68.622 187.877 68.748 188.249 68.748C188.621 68.748 188.957 68.676 189.257 68.532C189.569 68.388 189.815 68.22 189.995 68.028C190.175 67.824 190.331 67.614 190.463 67.398C190.703 67.002 190.823 66.75 190.823 66.642L191.147 66.786C191.111 66.978 191.003 67.236 190.823 67.56C190.643 67.872 190.445 68.13 190.229 68.334C190.013 68.538 189.695 68.73 189.275 68.91C188.855 69.078 188.387 69.162 187.871 69.162C186.899 69.162 186.161 68.934 185.657 68.478C185.165 68.01 184.919 67.374 184.919 66.57C184.919 65.142 185.273 64.026 185.981 63.222C186.689 62.406 187.637 61.998 188.825 61.998ZM190.661 63.816C190.661 63.42 190.541 63.096 190.301 62.844C190.073 62.58 189.725 62.448 189.257 62.448C188.801 62.448 188.351 62.724 187.907 63.276C187.475 63.828 187.187 64.644 187.043 65.724C189.455 65.712 190.661 65.076 190.661 63.816ZM192.199 62.646C192.559 62.214 193.009 61.998 193.549 61.998C194.101 61.998 194.527 62.136 194.827 62.412C195.127 62.688 195.277 63.078 195.277 63.582L195.277 63.69C195.817 62.562 196.519 61.998 197.383 61.998C198.307 61.998 198.769 62.478 198.769 63.438C198.769 63.834 198.637 64.254 198.373 64.698C198.109 65.142 197.845 65.568 197.581 65.976C197.317 66.372 197.185 66.726 197.185 67.038L196.753 67.038C196.753 66.594 197.011 65.994 197.527 65.238C198.043 64.482 198.301 63.9 198.301 63.492C198.301 63.072 198.217 62.79 198.049 62.646C197.893 62.49 197.653 62.412 197.329 62.412C197.017 62.412 196.705 62.55 196.393 62.826C196.093 63.102 195.841 63.45 195.637 63.87C195.313 64.494 195.097 65.004 194.989 65.4L194.989 65.418L194.341 69L192.181 69L193.369 62.358C193.009 62.394 192.709 62.562 192.469 62.862L192.199 62.646ZM202.47 68.514C202.11 68.946 201.66 69.162 201.12 69.162C200.58 69.162 200.154 69.024 199.842 68.748C199.542 68.472 199.392 68.112 199.392 67.668C199.392 67.512 199.488 66.858 199.68 65.706L200.274 62.484L199.518 62.484L199.554 62.16L200.328 62.16C201.216 62.16 201.87 62.124 202.29 62.052L202.542 61.998L201.3 68.802C201.66 68.766 201.96 68.598 202.2 68.298L202.47 68.514ZM200.886 60.27C200.634 60.018 200.508 59.712 200.508 59.352C200.508 58.992 200.634 58.686 200.886 58.434C201.138 58.17 201.444 58.038 201.804 58.038C202.164 58.038 202.47 58.17 202.722 58.434C202.986 58.686 203.118 58.992 203.118 59.352C203.118 59.712 202.986 60.018 202.722 60.27C202.47 60.522 202.164 60.648 201.804 60.648C201.444 60.648 201.138 60.522 200.886 60.27ZM210.466 68.802C210.754 68.802 211.054 68.634 211.366 68.298L211.636 68.514C211.552 68.682 211.366 68.832 211.078 68.964C210.79 69.096 210.472 69.162 210.124 69.162C209.032 69.162 208.486 68.67 208.486 67.686C208.486 67.266 208.594 66.516 208.81 65.436C209.026 64.356 209.134 63.648 209.134 63.312C209.134 62.796 208.888 62.538 208.396 62.538C208 62.538 207.616 62.796 207.244 63.312C206.884 63.828 206.584 64.536 206.344 65.436L205.732 68.802C206.104 68.766 206.41 68.598 206.65 68.298L206.92 68.514C206.56 68.946 206.11 69.162 205.57 69.162C205.03 69.162 204.604 69.024 204.292 68.748C203.992 68.472 203.842 68.112 203.842 67.668C203.842 67.5 203.938 66.84 204.13 65.688L204.724 62.358C204.364 62.394 204.064 62.562 203.824 62.862L203.554 62.646C203.914 62.214 204.364 61.998 204.904 61.998C205.456 61.998 205.882 62.136 206.182 62.412C206.482 62.688 206.632 63.078 206.632 63.582L206.632 63.69C207.124 62.562 207.892 61.998 208.936 61.998C209.644 61.998 210.196 62.202 210.592 62.61C210.988 63.006 211.186 63.558 211.186 64.266C211.186 64.638 211.072 65.358 210.844 66.426C210.616 67.482 210.49 68.274 210.466 68.802ZM218.404 70.962C218.836 70.962 219.208 70.794 219.52 70.458L219.772 70.674C219.484 71.082 219.028 71.286 218.404 71.286C218.14 71.286 217.87 71.256 217.594 71.196C216.778 71.94 215.734 72.312 214.462 72.312C213.706 72.312 213.118 72.18 212.698 71.916C212.29 71.664 212.086 71.328 212.086 70.908C212.086 70.5 212.212 70.17 212.464 69.918C212.728 69.678 213.19 69.558 213.85 69.558C214.51 69.558 215.38 69.828 216.46 70.368L217.018 67.38C216.478 68.376 215.782 68.874 214.93 68.874C213.298 68.874 212.482 68.07 212.482 66.462C212.482 65.118 212.818 64.038 213.49 63.222C214.174 62.406 215.044 61.998 216.1 61.998C216.712 61.998 217.186 62.184 217.522 62.556C217.618 62.664 217.714 62.826 217.81 63.042L217.972 62.16C218.86 62.16 219.508 62.124 219.916 62.052L220.15 61.998L218.962 68.64C218.782 69.576 218.422 70.332 217.882 70.908C218.038 70.944 218.212 70.962 218.404 70.962ZM214.516 67.02C214.516 67.572 214.57 67.944 214.678 68.136C214.786 68.316 214.99 68.406 215.29 68.406C215.59 68.406 215.896 68.244 216.208 67.92C216.52 67.596 216.742 67.296 216.874 67.02C217.018 66.732 217.138 66.456 217.234 66.192L217.612 64.122L217.612 63.996C217.612 62.892 217.108 62.34 216.1 62.34C215.716 62.34 215.356 62.862 215.02 63.906C214.684 64.95 214.516 65.988 214.516 67.02ZM214.39 71.952C215.35 71.952 215.998 71.538 216.334 70.71L216.082 70.584C215.938 70.512 215.848 70.464 215.812 70.44C215.788 70.428 215.71 70.392 215.578 70.332C215.446 70.272 215.35 70.23 215.29 70.206C215.23 70.194 215.134 70.164 215.002 70.116C214.882 70.068 214.78 70.032 214.696 70.008C214.612 69.996 214.516 69.978 214.408 69.954C214.228 69.918 213.964 69.9 213.616 69.9C213.268 69.9 212.986 69.984 212.77 70.152C212.566 70.32 212.464 70.566 212.464 70.89C212.464 71.214 212.638 71.472 212.986 71.664C213.334 71.856 213.802 71.952 214.39 71.952Z" fill="black"/>
<path d="M42.9233 75.3423C42.9233 76.1086 42.7944 76.7782 42.5366 77.3511C42.2788 77.9204 41.9136 78.3555 41.4409 78.6563C40.9683 78.957 40.4168 79.1074 39.7866 79.1074C39.1707 79.1074 38.6247 78.957 38.1484 78.6563C37.6722 78.3519 37.3016 77.9204 37.0366 77.3618C36.7752 76.7996 36.641 76.1497 36.6338 75.4121L36.6338 74.8481C36.6338 74.0962 36.7645 73.432 37.0259 72.8555C37.2873 72.279 37.6561 71.8385 38.1323 71.5342C38.6121 71.2262 39.16 71.0723 39.7759 71.0723C40.4025 71.0723 40.9539 71.2244 41.4302 71.5288C41.91 71.8296 42.2788 72.2682 42.5366 72.8447C42.7944 73.4176 42.9233 74.0854 42.9233 74.8481L42.9233 75.3423ZM41.8975 74.8374C41.8975 73.91 41.7113 73.1992 41.3389 72.7051C40.9665 72.2074 40.4455 71.9585 39.7759 71.9585C39.1242 71.9585 38.6104 72.2074 38.2344 72.7051C37.862 73.1992 37.6704 73.8867 37.6597 74.7676L37.6597 75.3423C37.6597 76.241 37.8477 76.9482 38.2236 77.4639C38.6032 77.9759 39.1242 78.2319 39.7866 78.2319C40.4526 78.2319 40.9683 77.9902 41.3335 77.5068C41.6987 77.0199 41.8867 76.3234 41.8975 75.4175L41.8975 74.8374ZM47.1235 74.0801C46.9731 74.055 46.8102 74.0425 46.6348 74.0425C45.9831 74.0425 45.5409 74.32 45.3081 74.875L45.3081 79L44.3145 79L44.3145 73.1885L45.2812 73.1885L45.2974 73.8599C45.6232 73.3407 46.0851 73.0811 46.6831 73.0811C46.8765 73.0811 47.0233 73.1061 47.1235 73.1563L47.1235 74.0801ZM47.6929 76.0459C47.6929 75.1543 47.9041 74.4382 48.3267 73.8975C48.7492 73.3532 49.3024 73.0811 49.9863 73.0811C50.6667 73.0811 51.2056 73.3138 51.603 73.7793L51.603 70.75L52.5967 70.75L52.5967 79L51.6836 79L51.6353 78.377C51.2378 78.8639 50.6846 79.1074 49.9756 79.1074C49.3024 79.1074 48.7528 78.8317 48.3267 78.2803C47.9041 77.7288 47.6929 77.0091 47.6929 76.1211L47.6929 76.0459ZM48.6865 76.1587C48.6865 76.8175 48.8226 77.3332 49.0947 77.7056C49.3669 78.078 49.7428 78.2642 50.2227 78.2642C50.8529 78.2642 51.313 77.9813 51.603 77.4155L51.603 74.7461C51.3058 74.1982 50.8493 73.9243 50.2334 73.9243C49.7464 73.9243 49.3669 74.1123 49.0947 74.4883C48.8226 74.8643 48.6865 75.4211 48.6865 76.1587ZM56.5552 79.1074C55.7674 79.1074 55.1265 78.8496 54.6323 78.334C54.1382 77.8148 53.8911 77.1219 53.8911 76.2554L53.8911 76.0728C53.8911 75.4963 54.0003 74.9824 54.2187 74.5313C54.4408 74.0765 54.7487 73.722 55.1426 73.4678C55.54 73.21 55.9697 73.0811 56.4316 73.0811C57.1872 73.0811 57.7744 73.3299 58.1934 73.8276C58.6123 74.3254 58.8218 75.0379 58.8218 75.9653L58.8218 76.3789L54.8848 76.3789C54.8991 76.9518 55.0656 77.4155 55.3843 77.77C55.7065 78.1209 56.1147 78.2964 56.6089 78.2964C56.9598 78.2964 57.257 78.2248 57.5005 78.0815C57.744 77.9383 57.957 77.7485 58.1396 77.5122L58.7466 77.9849C58.2596 78.7332 57.5291 79.1074 56.5552 79.1074ZM56.4316 73.8975C56.0306 73.8975 55.694 74.0443 55.4219 74.3379C55.1497 74.6279 54.9814 75.0361 54.917 75.5625L57.8281 75.5625L57.8281 75.4873C57.7995 74.9824 57.6634 74.5921 57.4199 74.3164C57.1764 74.0371 56.847 73.8975 56.4316 73.8975ZM62.7856 74.0801C62.6353 74.055 62.4723 74.0425 62.2969 74.0425C61.6452 74.0425 61.203 74.32 60.9702 74.875L60.9702 79L59.9766 79L59.9766 73.1885L60.9434 73.1885L60.9595 73.8599C61.2853 73.3407 61.7472 73.0811 62.3452 73.0811C62.5386 73.0811 62.6854 73.1061 62.7856 73.1563L62.7856 74.0801ZM67.6948 79L66.6636 79L66.6636 71.1797L67.6948 71.1797L67.6948 79ZM69.5854 79L69.5854 71.1797L71.793 71.1797C72.4733 71.1797 73.0749 71.3301 73.5977 71.6309C74.1204 71.9316 74.5233 72.3595 74.8062 72.9146C75.0926 73.4696 75.2376 74.1069 75.2412 74.8267L75.2412 75.3262C75.2412 76.0638 75.098 76.7101 74.8115 77.2651C74.5286 77.8201 74.1222 78.2463 73.5923 78.5435C73.0659 78.8407 72.4518 78.9928 71.75 79L69.5854 79ZM70.6167 72.0283L70.6167 78.1567L71.7017 78.1567C72.4966 78.1567 73.1143 77.9097 73.5547 77.4155C73.9987 76.9214 74.2207 76.2178 74.2207 75.3047L74.2207 74.8481C74.2207 73.9601 74.0112 73.2708 73.5923 72.7803C73.1769 72.2861 72.5861 72.0355 71.8198 72.0283L70.6167 72.0283ZM79.3447 78.479C79.3447 78.3071 79.3949 78.1639 79.4951 78.0493C79.599 77.9347 79.7529 77.8774 79.957 77.8774C80.1611 77.8774 80.3151 77.9347 80.4189 78.0493C80.5264 78.1639 80.5801 78.3071 80.5801 78.479C80.5801 78.6437 80.5264 78.7816 80.4189 78.8926C80.3151 79.0036 80.1611 79.0591 79.957 79.0591C79.7529 79.0591 79.599 79.0036 79.4951 78.8926C79.3949 78.7816 79.3447 78.6437 79.3447 78.479ZM79.3501 73.7363C79.3501 73.5645 79.4002 73.4212 79.5005 73.3066C79.6043 73.1921 79.7583 73.1348 79.9624 73.1348C80.1665 73.1348 80.3205 73.1921 80.4243 73.3066C80.5317 73.4212 80.5854 73.5645 80.5854 73.7363C80.5854 73.901 80.5317 74.0389 80.4243 74.1499C80.3205 74.2609 80.1665 74.3164 79.9624 74.3164C79.7583 74.3164 79.6043 74.2609 79.5005 74.1499C79.4002 74.0389 79.3501 73.901 79.3501 73.7363ZM90.9409 75.3423C90.9409 76.1086 90.812 76.7782 90.5542 77.3511C90.2964 77.9204 89.9312 78.3555 89.4585 78.6563C88.9858 78.957 88.4344 79.1074 87.8042 79.1074C87.1883 79.1074 86.6423 78.957 86.166 78.6563C85.6898 78.3519 85.3192 77.9204 85.0542 77.3618C84.7928 76.7996 84.6585 76.1497 84.6514 75.4121L84.6514 74.8481C84.6514 74.0962 84.7821 73.432 85.0435 72.8555C85.3049 72.279 85.6737 71.8385 86.1499 71.5342C86.6297 71.2262 87.1776 71.0723 87.7935 71.0723C88.4201 71.0723 88.9715 71.2244 89.4478 71.5288C89.9276 71.8296 90.2964 72.2682 90.5542 72.8447C90.812 73.4176 90.9409 74.0854 90.9409 74.8481L90.9409 75.3423ZM89.915 74.8374C89.915 73.91 89.7288 73.1992 89.3564 72.7051C88.984 72.2074 88.4631 71.9585 87.7935 71.9585C87.1418 71.9585 86.6279 72.2074 86.252 72.7051C85.8796 73.1992 85.688 73.8867 85.6772 74.7676L85.6772 75.3423C85.6772 76.241 85.8652 76.9482 86.2412 77.4639C86.6208 77.9759 87.1418 78.2319 87.8042 78.2319C88.4702 78.2319 88.9858 77.9902 89.3511 77.5068C89.7163 77.0199 89.9043 76.3234 89.915 75.4175L89.915 74.8374ZM95.356 75.8364L93.519 75.8364L93.519 79L92.4824 79L92.4824 71.1797L95.0713 71.1797C95.9521 71.1797 96.6289 71.3802 97.1016 71.7813C97.5778 72.1823 97.8159 72.766 97.8159 73.5322C97.8159 74.0192 97.6834 74.4435 97.4185 74.8052C97.1571 75.1668 96.7918 75.4372 96.3228 75.6162L98.1597 78.9355L98.1597 79L97.0532 79L95.356 75.8364ZM93.519 74.9932L95.1035 74.9932C95.6156 74.9932 96.022 74.8607 96.3228 74.5957C96.6271 74.3307 96.7793 73.9762 96.7793 73.5322C96.7793 73.0488 96.6343 72.6782 96.3442 72.4204C96.0578 72.1626 95.6424 72.0319 95.0981 72.0283L93.519 72.0283L93.519 74.9932ZM103.912 75.6646C103.912 76.8283 103.713 77.693 103.316 78.2588C102.918 78.8245 102.297 79.1074 101.452 79.1074C100.618 79.1074 100 78.8317 99.5991 78.2803C99.1981 77.7253 98.9904 76.8981 98.9761 75.7988L98.9761 74.4722C98.9761 73.3228 99.1748 72.4688 99.5723 71.9102C99.9697 71.3516 100.593 71.0723 101.441 71.0723C102.283 71.0723 102.902 71.3426 103.3 71.8833C103.697 72.4204 103.901 73.2511 103.912 74.3755L103.912 75.6646ZM102.918 74.3057C102.918 73.4642 102.8 72.8519 102.564 72.4688C102.328 72.082 101.953 71.8887 101.441 71.8887C100.933 71.8887 100.562 72.0802 100.33 72.4634C100.097 72.8465 99.9769 73.4355 99.9697 74.2305L99.9697 75.8203C99.9697 76.6654 100.091 77.2902 100.335 77.6948C100.582 78.0959 100.954 78.2964 101.452 78.2964C101.943 78.2964 102.306 78.1066 102.542 77.7271C102.782 77.3475 102.908 76.7495 102.918 75.9331L102.918 74.3057ZM110.089 75.6646C110.089 76.8283 109.89 77.693 109.493 78.2588C109.095 78.8245 108.474 79.1074 107.629 79.1074C106.795 79.1074 106.177 78.8317 105.776 78.2803C105.375 77.7253 105.167 76.8981 105.153 75.7988L105.153 74.4722C105.153 73.3228 105.352 72.4688 105.749 71.9102C106.146 71.3516 106.77 71.0723 107.618 71.0723C108.46 71.0723 109.079 71.3426 109.477 71.8833C109.874 72.4204 110.078 73.2511 110.089 74.3755L110.089 75.6646ZM109.095 74.3057C109.095 73.4642 108.977 72.8519 108.741 72.4688C108.504 72.082 108.13 71.8887 107.618 71.8887C107.11 71.8887 106.739 72.0802 106.506 72.4634C106.274 72.8465 106.154 73.4355 106.146 74.2305L106.146 75.8203C106.146 76.6654 106.268 77.2902 106.512 77.6948C106.759 78.0959 107.131 78.2964 107.629 78.2964C108.119 78.2964 108.483 78.1066 108.719 77.7271C108.959 77.3475 109.084 76.7495 109.095 75.9331L109.095 74.3057ZM114.627 79L113.628 79L113.628 72.3774L111.625 73.1133L111.625 72.2109L114.472 71.1421L114.627 71.1421L114.627 79Z" fill="black"/>
<rect x="35" y="215" width="181" height="34" fill="#C4C4C4"/>
<path d="M58.3271 226.592L54.2139 226.592L54.2139 238L52.5352 238L52.5352 226.592L48.4307 226.592L48.4307 225.203L58.3271 225.203L58.3271 226.592ZM58.6611 233.157C58.6611 232.226 58.8428 231.388 59.2061 230.644C59.5752 229.899 60.085 229.325 60.7354 228.921C61.3916 228.517 62.1387 228.314 62.9766 228.314C64.2715 228.314 65.3174 228.763 66.1143 229.659C66.917 230.556 67.3184 231.748 67.3184 233.236L67.3184 233.351C67.3184 234.276 67.1396 235.108 66.7822 235.847C66.4307 236.579 65.9238 237.15 65.2617 237.561C64.6055 237.971 63.8496 238.176 62.9941 238.176C61.7051 238.176 60.6592 237.728 59.8564 236.831C59.0596 235.935 58.6611 234.748 58.6611 233.271L58.6611 233.157ZM60.2959 233.351C60.2959 234.405 60.5391 235.252 61.0254 235.891C61.5176 236.529 62.1738 236.849 62.9941 236.849C63.8203 236.849 64.4766 236.526 64.9629 235.882C65.4492 235.231 65.6924 234.323 65.6924 233.157C65.6924 232.114 65.4434 231.271 64.9453 230.626C64.4531 229.976 63.7969 229.65 62.9766 229.65C62.1738 229.65 61.5264 229.97 61.0342 230.608C60.542 231.247 60.2959 232.161 60.2959 233.351ZM71.5635 226.188L71.5635 228.49L73.3389 228.49L73.3389 229.747L71.5635 229.747L71.5635 235.645C71.5635 236.025 71.6426 236.313 71.8008 236.506C71.959 236.693 72.2285 236.787 72.6094 236.787C72.7969 236.787 73.0547 236.752 73.3828 236.682L73.3828 238C72.9551 238.117 72.5391 238.176 72.1348 238.176C71.4082 238.176 70.8604 237.956 70.4912 237.517C70.1221 237.077 69.9375 236.453 69.9375 235.645L69.9375 229.747L68.2061 229.747L68.2061 228.49L69.9375 228.49L69.9375 226.188L71.5635 226.188ZM81.1172 238C81.0234 237.813 80.9473 237.479 80.8887 236.998C80.1328 237.783 79.2305 238.176 78.1816 238.176C77.2441 238.176 76.4736 237.912 75.8701 237.385C75.2725 236.852 74.9736 236.178 74.9736 235.363C74.9736 234.373 75.3486 233.605 76.0986 233.061C76.8545 232.51 77.915 232.234 79.2803 232.234L80.8623 232.234L80.8623 231.487C80.8623 230.919 80.6924 230.468 80.3525 230.134C80.0127 229.794 79.5117 229.624 78.8496 229.624C78.2695 229.624 77.7832 229.771 77.3906 230.063C76.998 230.356 76.8018 230.711 76.8018 231.127L75.167 231.127C75.167 230.652 75.334 230.195 75.668 229.756C76.0078 229.311 76.4648 228.959 77.0391 228.701C77.6191 228.443 78.2549 228.314 78.9463 228.314C80.042 228.314 80.9004 228.59 81.5215 229.141C82.1426 229.686 82.4648 230.438 82.4883 231.399L82.4883 235.776C82.4883 236.649 82.5996 237.344 82.8223 237.859L82.8223 238L81.1172 238ZM78.4189 236.761C78.9287 236.761 79.4121 236.629 79.8691 236.365C80.3262 236.102 80.6572 235.759 80.8623 235.337L80.8623 233.386L79.5879 233.386C77.5957 233.386 76.5996 233.969 76.5996 235.135C76.5996 235.645 76.7695 236.043 77.1094 236.33C77.4492 236.617 77.8857 236.761 78.4189 236.761ZM86.8037 238L85.1777 238L85.1777 224.5L86.8037 224.5L86.8037 238Z" fill="black"/>
<path d="M189.448 237L181.063 237L181.063 235.831L185.493 230.909C186.149 230.165 186.601 229.562 186.847 229.099C187.099 228.63 187.225 228.146 187.225 227.648C187.225 226.98 187.022 226.433 186.618 226.005C186.214 225.577 185.675 225.363 185.001 225.363C184.192 225.363 183.562 225.595 183.111 226.058C182.666 226.515 182.443 227.153 182.443 227.974L180.817 227.974C180.817 226.796 181.195 225.844 181.951 225.117C182.713 224.391 183.729 224.027 185.001 224.027C186.19 224.027 187.131 224.341 187.822 224.968C188.514 225.589 188.859 226.418 188.859 227.455C188.859 228.715 188.057 230.215 186.451 231.955L183.023 235.673L189.448 235.673L189.448 237ZM191.918 230.584L192.568 224.203L199.125 224.203L199.125 225.706L193.948 225.706L193.562 229.195C194.188 228.826 194.9 228.642 195.697 228.642C196.863 228.642 197.789 229.028 198.475 229.802C199.16 230.569 199.503 231.609 199.503 232.922C199.503 234.24 199.146 235.28 198.431 236.042C197.722 236.798 196.729 237.176 195.451 237.176C194.32 237.176 193.397 236.862 192.683 236.235C191.968 235.608 191.561 234.741 191.461 233.634L192.999 233.634C193.099 234.366 193.359 234.92 193.781 235.295C194.203 235.664 194.76 235.849 195.451 235.849C196.207 235.849 196.799 235.591 197.227 235.075C197.66 234.56 197.877 233.848 197.877 232.939C197.877 232.084 197.643 231.398 197.174 230.883C196.711 230.361 196.093 230.101 195.319 230.101C194.61 230.101 194.054 230.256 193.649 230.566L193.219 230.918L191.918 230.584ZM204.1 232.597L203.08 233.66L203.08 237L201.454 237L201.454 223.5L203.08 223.5L203.08 231.665L203.95 230.619L206.912 227.49L208.89 227.49L205.189 231.463L209.32 237L207.413 237L204.1 232.597Z" fill="black"/>
</g>
<defs>
<clipPath id="clip0">
<rect width="255.801" height="384.133" fill="white" transform="translate(0 0.132843) rotate(-0.0297571)"/>
</clipPath>
</defs>
</svg>
