<svg width="256" height="385" viewBox="0 0 256 385" fill="none" xmlns="http://www.w3.org/2000/svg">
<g clip-path="url(#clip0)">
<rect width="255.801" height="384.44" transform="translate(0 0.132843) rotate(-0.0297571)" fill="#E5E5E5"/>
<rect width="256" height="384" fill="#FFE7D6"/>
<rect x="43" y="141" width="171" height="28" fill="#C4C4C4"/>
<rect x="43" y="209" width="171" height="28" fill="#C4C4C4"/>
<path d="M49.9521 126.399L45.6387 126.399L45.6387 129.927L50.6494 129.927L50.6494 131L44.3262 131L44.3262 121.047L50.5811 121.047L50.5811 122.127L45.6387 122.127L45.6387 125.326L49.9521 125.326L49.9521 126.399ZM53.2744 123.604L53.3086 124.424C53.8509 123.786 54.5824 123.467 55.5029 123.467C56.5374 123.467 57.2415 123.863 57.6152 124.656C57.8613 124.301 58.1803 124.014 58.5723 123.795C58.9687 123.576 59.4359 123.467 59.9736 123.467C61.596 123.467 62.4209 124.326 62.4482 126.044L62.4482 131L61.1836 131L61.1836 126.119C61.1836 125.59 61.0628 125.196 60.8213 124.937C60.5798 124.672 60.1742 124.54 59.6045 124.54C59.1351 124.54 58.7454 124.681 58.4355 124.964C58.1257 125.242 57.9456 125.618 57.8955 126.092L57.8955 131L56.624 131L56.624 126.153C56.624 125.078 56.0977 124.54 55.0449 124.54C54.2155 124.54 53.6481 124.893 53.3428 125.6L53.3428 131L52.0781 131L52.0781 123.604L53.2744 123.604ZM68.9287 131C68.8558 130.854 68.7965 130.594 68.751 130.221C68.1631 130.831 67.4613 131.137 66.6455 131.137C65.9163 131.137 65.3171 130.932 64.8477 130.521C64.3828 130.107 64.1504 129.583 64.1504 128.949C64.1504 128.179 64.4421 127.582 65.0254 127.158C65.6133 126.73 66.4382 126.516 67.5 126.516L68.7305 126.516L68.7305 125.935C68.7305 125.493 68.5983 125.142 68.334 124.882C68.0697 124.618 67.68 124.485 67.165 124.485C66.7139 124.485 66.3356 124.599 66.0303 124.827C65.7249 125.055 65.5723 125.331 65.5723 125.654L64.3008 125.654C64.3008 125.285 64.4307 124.93 64.6904 124.588C64.9548 124.242 65.3102 123.968 65.7568 123.768C66.208 123.567 66.7025 123.467 67.2402 123.467C68.0924 123.467 68.7601 123.681 69.2432 124.109C69.7262 124.533 69.9769 125.119 69.9951 125.866L69.9951 129.271C69.9951 129.95 70.0817 130.49 70.2549 130.891L70.2549 131L68.9287 131ZM66.8301 130.036C67.2266 130.036 67.6025 129.934 67.958 129.729C68.3135 129.523 68.571 129.257 68.7305 128.929L68.7305 127.411L67.7393 127.411C66.1898 127.411 65.415 127.865 65.415 128.771C65.415 129.168 65.5472 129.478 65.8115 129.701C66.0758 129.924 66.4154 130.036 66.8301 130.036ZM73.3516 131L72.0869 131L72.0869 123.604L73.3516 123.604L73.3516 131ZM71.9844 121.642C71.9844 121.437 72.0459 121.263 72.1689 121.122C72.2965 120.981 72.4834 120.91 72.7295 120.91C72.9756 120.91 73.1624 120.981 73.29 121.122C73.4176 121.263 73.4814 121.437 73.4814 121.642C73.4814 121.847 73.4176 122.018 73.29 122.154C73.1624 122.291 72.9756 122.359 72.7295 122.359C72.4834 122.359 72.2965 122.291 72.1689 122.154C72.0459 122.018 71.9844 121.847 71.9844 121.642ZM76.7559 131L75.4912 131L75.4912 120.5L76.7559 120.5L76.7559 131Z" fill="black"/>
<path d="M45.4678 194.104L45.4678 198L44.1553 198L44.1553 188.047L47.8262 188.047C48.9154 188.047 49.7676 188.325 50.3828 188.881C51.0026 189.437 51.3125 190.173 51.3125 191.089C51.3125 192.055 51.0094 192.8 50.4033 193.324C49.8018 193.844 48.9382 194.104 47.8125 194.104L45.4678 194.104ZM45.4678 193.03L47.8262 193.03C48.528 193.03 49.0658 192.866 49.4395 192.538C49.8132 192.205 50 191.727 50 191.103C50 190.51 49.8132 190.036 49.4395 189.681C49.0658 189.325 48.5531 189.141 47.9014 189.127L45.4678 189.127L45.4678 193.03ZM57.2734 198C57.2005 197.854 57.1413 197.594 57.0957 197.221C56.5078 197.831 55.806 198.137 54.9902 198.137C54.2611 198.137 53.6618 197.932 53.1924 197.521C52.7275 197.107 52.4951 196.583 52.4951 195.949C52.4951 195.179 52.7868 194.582 53.3701 194.158C53.958 193.73 54.7829 193.516 55.8447 193.516L57.0752 193.516L57.0752 192.935C57.0752 192.493 56.943 192.142 56.6787 191.882C56.4144 191.618 56.0247 191.485 55.5098 191.485C55.0586 191.485 54.6803 191.599 54.375 191.827C54.0697 192.055 53.917 192.331 53.917 192.654L52.6455 192.654C52.6455 192.285 52.7754 191.93 53.0352 191.588C53.2995 191.242 53.6549 190.968 54.1016 190.768C54.5527 190.567 55.0472 190.467 55.585 190.467C56.4372 190.467 57.1048 190.681 57.5879 191.109C58.071 191.533 58.3216 192.119 58.3398 192.866L58.3398 196.271C58.3398 196.95 58.4264 197.49 58.5996 197.891L58.5996 198L57.2734 198ZM55.1748 197.036C55.5713 197.036 55.9473 196.934 56.3027 196.729C56.6582 196.523 56.9157 196.257 57.0752 195.929L57.0752 194.411L56.084 194.411C54.5345 194.411 53.7598 194.865 53.7598 195.771C53.7598 196.168 53.8919 196.478 54.1562 196.701C54.4206 196.924 54.7601 197.036 55.1748 197.036ZM64.6289 196.038C64.6289 195.696 64.499 195.432 64.2393 195.245C63.984 195.054 63.5352 194.89 62.8926 194.753C62.2546 194.616 61.7464 194.452 61.3682 194.261C60.9945 194.069 60.7165 193.841 60.5342 193.577C60.3564 193.313 60.2676 192.998 60.2676 192.634C60.2676 192.028 60.5228 191.515 61.0332 191.096C61.5482 190.676 62.2044 190.467 63.002 190.467C63.8405 190.467 64.5195 190.683 65.0391 191.116C65.5632 191.549 65.8252 192.103 65.8252 192.777L64.5537 192.777C64.5537 192.431 64.4056 192.132 64.1094 191.882C63.8177 191.631 63.4486 191.506 63.002 191.506C62.5417 191.506 62.1816 191.606 61.9219 191.807C61.6621 192.007 61.5322 192.269 61.5322 192.593C61.5322 192.898 61.653 193.128 61.8945 193.283C62.1361 193.438 62.5713 193.586 63.2002 193.728C63.8337 193.869 64.3464 194.037 64.7383 194.233C65.1302 194.429 65.4196 194.666 65.6064 194.944C65.7979 195.218 65.8936 195.553 65.8936 195.949C65.8936 196.61 65.6292 197.141 65.1006 197.542C64.5719 197.938 63.8861 198.137 63.043 198.137C62.4505 198.137 61.9264 198.032 61.4707 197.822C61.015 197.613 60.6572 197.321 60.3975 196.947C60.1423 196.569 60.0146 196.161 60.0146 195.724L61.2793 195.724C61.3021 196.147 61.4707 196.485 61.7852 196.735C62.1042 196.981 62.5234 197.104 63.043 197.104C63.5215 197.104 63.9043 197.009 64.1914 196.817C64.4831 196.621 64.6289 196.362 64.6289 196.038ZM71.8477 196.038C71.8477 195.696 71.7178 195.432 71.458 195.245C71.2028 195.054 70.7539 194.89 70.1113 194.753C69.4733 194.616 68.9652 194.452 68.5869 194.261C68.2132 194.069 67.9352 193.841 67.7529 193.577C67.5752 193.313 67.4863 192.998 67.4863 192.634C67.4863 192.028 67.7415 191.515 68.252 191.096C68.7669 190.676 69.4232 190.467 70.2207 190.467C71.0592 190.467 71.7383 190.683 72.2578 191.116C72.7819 191.549 73.0439 192.103 73.0439 192.777L71.7725 192.777C71.7725 192.431 71.6243 192.132 71.3281 191.882C71.0365 191.631 70.6673 191.506 70.2207 191.506C69.7604 191.506 69.4004 191.606 69.1406 191.807C68.8809 192.007 68.751 192.269 68.751 192.593C68.751 192.898 68.8717 193.128 69.1133 193.283C69.3548 193.438 69.79 193.586 70.4189 193.728C71.0524 193.869 71.5651 194.037 71.957 194.233C72.349 194.429 72.6383 194.666 72.8252 194.944C73.0166 195.218 73.1123 195.553 73.1123 195.949C73.1123 196.61 72.848 197.141 72.3193 197.542C71.7907 197.938 71.1048 198.137 70.2617 198.137C69.6693 198.137 69.1452 198.032 68.6895 197.822C68.2337 197.613 67.876 197.321 67.6162 196.947C67.361 196.569 67.2334 196.161 67.2334 195.724L68.498 195.724C68.5208 196.147 68.6895 196.485 69.0039 196.735C69.3229 196.981 69.7422 197.104 70.2617 197.104C70.7402 197.104 71.123 197.009 71.4102 196.817C71.7018 196.621 71.8477 196.362 71.8477 196.038ZM81.3086 196.257L82.7305 190.604L83.9951 190.604L81.8418 198L80.8164 198L79.0186 192.395L77.2686 198L76.2432 198L74.0967 190.604L75.3545 190.604L76.8105 196.141L78.5332 190.604L79.5518 190.604L81.3086 196.257ZM84.9521 194.233C84.9521 193.509 85.0934 192.857 85.376 192.278C85.6631 191.7 86.0596 191.253 86.5654 190.938C87.0758 190.624 87.6569 190.467 88.3086 190.467C89.3158 190.467 90.1292 190.815 90.749 191.513C91.3734 192.21 91.6855 193.137 91.6855 194.295L91.6855 194.384C91.6855 195.104 91.5465 195.751 91.2686 196.325C90.9951 196.895 90.6009 197.339 90.0859 197.658C89.5755 197.977 88.9876 198.137 88.3223 198.137C87.3197 198.137 86.5062 197.788 85.8818 197.091C85.262 196.394 84.9521 195.471 84.9521 194.322L84.9521 194.233ZM86.2236 194.384C86.2236 195.204 86.4128 195.863 86.791 196.359C87.1738 196.856 87.6842 197.104 88.3223 197.104C88.9648 197.104 89.4753 196.854 89.8535 196.353C90.2318 195.847 90.4209 195.14 90.4209 194.233C90.4209 193.422 90.2272 192.766 89.8398 192.265C89.457 191.759 88.9466 191.506 88.3086 191.506C87.6842 191.506 87.1807 191.754 86.7979 192.251C86.415 192.748 86.2236 193.459 86.2236 194.384ZM96.8467 191.738C96.6553 191.706 96.4479 191.69 96.2246 191.69C95.3952 191.69 94.8324 192.044 94.5361 192.75L94.5361 198L93.2715 198L93.2715 190.604L94.502 190.604L94.5225 191.458C94.9372 190.797 95.5251 190.467 96.2861 190.467C96.5322 190.467 96.7191 190.499 96.8467 190.563L96.8467 191.738ZM97.5713 194.24C97.5713 193.105 97.8402 192.194 98.3779 191.506C98.9157 190.813 99.6198 190.467 100.49 190.467C101.356 190.467 102.042 190.763 102.548 191.355L102.548 187.5L103.812 187.5L103.812 198L102.65 198L102.589 197.207C102.083 197.827 101.379 198.137 100.477 198.137C99.6198 198.137 98.9202 197.786 98.3779 197.084C97.8402 196.382 97.5713 195.466 97.5713 194.336L97.5713 194.24ZM98.8359 194.384C98.8359 195.222 99.0091 195.879 99.3555 196.353C99.7018 196.826 100.18 197.063 100.791 197.063C101.593 197.063 102.179 196.703 102.548 195.983L102.548 192.586C102.17 191.889 101.589 191.54 100.805 191.54C100.185 191.54 99.7018 191.779 99.3555 192.258C99.0091 192.736 98.8359 193.445 98.8359 194.384Z" fill="black"/>
<path d="M56.1387 223.28L54.0742 222.665L54.3887 221.633L56.4531 222.398L56.3916 220.047L57.4375 220.047L57.3691 222.433L59.3994 221.681L59.7139 222.72L57.6152 223.342L58.9687 225.194L58.1211 225.837L56.8496 223.868L55.6191 225.789L54.7646 225.167L56.1387 223.28ZM62.168 223.28L60.1035 222.665L60.418 221.633L62.4824 222.398L62.4209 220.047L63.4668 220.047L63.3984 222.433L65.4287 221.681L65.7432 222.72L63.6445 223.342L64.998 225.194L64.1504 225.837L62.8789 223.868L61.6484 225.789L60.7939 225.167L62.168 223.28ZM68.1973 223.28L66.1328 222.665L66.4473 221.633L68.5117 222.398L68.4502 220.047L69.4961 220.047L69.4277 222.433L71.458 221.681L71.7725 222.72L69.6738 223.342L71.0273 225.194L70.1797 225.837L68.9082 223.868L67.6777 225.789L66.8232 225.167L68.1973 223.28ZM74.2266 223.28L72.1621 222.665L72.4766 221.633L74.541 222.398L74.4795 220.047L75.5254 220.047L75.457 222.433L77.4873 221.681L77.8018 222.72L75.7031 223.342L77.0566 225.194L76.209 225.837L74.9375 223.868L73.707 225.789L72.8525 225.167L74.2266 223.28ZM80.2559 223.28L78.1914 222.665L78.5059 221.633L80.5703 222.398L80.5088 220.047L81.5547 220.047L81.4863 222.433L83.5166 221.681L83.8311 222.72L81.7324 223.342L83.0859 225.194L82.2383 225.837L80.9668 223.868L79.7363 225.789L78.8818 225.167L80.2559 223.28ZM86.2852 223.28L84.2207 222.665L84.5352 221.633L86.5996 222.398L86.5381 220.047L87.584 220.047L87.5156 222.433L89.5459 221.681L89.8604 222.72L87.7617 223.342L89.1152 225.194L88.2676 225.837L86.9961 223.868L85.7656 225.789L84.9111 225.167L86.2852 223.28ZM92.3145 223.28L90.25 222.665L90.5645 221.633L92.6289 222.398L92.5674 220.047L93.6133 220.047L93.5449 222.433L95.5752 221.681L95.8896 222.72L93.791 223.342L95.1445 225.194L94.2969 225.837L93.0254 223.868L91.7949 225.789L90.9404 225.167L92.3145 223.28ZM98.3437 223.28L96.2793 222.665L96.5937 221.633L98.6582 222.398L98.5967 220.047L99.6426 220.047L99.5742 222.433L101.604 221.681L101.919 222.72L99.8203 223.342L101.174 225.194L100.326 225.837L99.0547 223.868L97.8242 225.789L96.9697 225.167L98.3437 223.28Z" fill="black"/>
<path d="M100.228 56.728C99.7159 56.248 99.2279 55.88 98.7639 55.624C98.2999 55.384 97.7319 55.264 97.0599 55.264C96.4039 55.264 95.8839 55.384 95.4999 55.624C95.0999 55.88 94.8999 56.232 94.8999 56.68C94.8999 57.144 95.1639 57.512 95.6919 57.784C96.2039 58.072 96.8119 58.216 97.5159 58.216C98.2199 58.216 98.8439 58.152 99.3879 58.024C99.7079 57.736 99.9879 57.304 100.228 56.728ZM104.284 59.152C104.556 59.248 104.844 59.312 105.148 59.344C105.452 59.376 105.852 59.392 106.348 59.392C106.86 59.392 107.38 59.256 107.908 58.984C108.436 58.712 108.852 58.392 109.156 58.024C109.476 57.672 109.756 57.272 109.996 56.824C110.3 56.296 110.524 55.768 110.668 55.24L111.244 55.432C110.828 56.792 110.164 57.872 109.252 58.672C108.356 59.472 107.308 59.872 106.108 59.872C105.164 59.872 104.508 59.8 104.14 59.656C103.788 59.528 103.532 59.44 103.372 59.392C103.212 59.36 102.996 59.24 102.724 59.032C102.468 58.84 102.316 58.728 102.268 58.696C102.14 58.6 101.812 58.288 101.284 57.76C100.26 58.368 99.1559 58.672 97.9719 58.672C96.7879 58.672 95.8839 58.48 95.2599 58.096C94.6359 57.728 94.3239 57.256 94.3239 56.68C94.3239 56.12 94.5559 55.664 95.0199 55.312C95.4679 54.976 96.1479 54.808 97.0599 54.808C98.3079 54.808 99.4279 55.272 100.42 56.2C100.612 55.608 100.772 54.952 100.9 54.232L102.508 44.944C102.892 42.544 103.724 40.928 105.004 40.096C106.124 39.376 107.396 39.016 108.82 39.016C110.244 39.016 111.404 39.424 112.3 40.24C113.212 41.056 113.668 42.344 113.668 44.104L113.092 44.104C113.092 42.68 112.748 41.6 112.06 40.864C111.388 40.112 110.532 39.736 109.492 39.736C107.588 39.736 106.46 40.92 106.108 43.288C106.108 43.544 105.9 44.864 105.484 47.248C105.084 49.616 104.724 51.576 104.404 53.128C104.068 55 103.172 56.448 101.716 57.472C102.58 58.336 103.22 58.832 103.636 58.96C103.796 59.008 104.012 59.072 104.284 59.152ZM116.004 55.216C114.772 55.216 113.836 54.912 113.196 54.304C112.556 53.68 112.236 52.904 112.236 51.976C112.236 51.032 112.316 50.232 112.476 49.576C112.652 48.904 112.932 48.264 113.316 47.656C113.7 47.032 114.276 46.544 115.044 46.192C115.828 45.84 116.796 45.664 117.948 45.664C119.116 45.664 120.02 45.976 120.66 46.6C121.316 47.208 121.644 48.048 121.644 49.12C121.644 50.944 121.156 52.416 120.18 53.536C119.22 54.656 117.828 55.216 116.004 55.216ZM114.948 52.744C114.948 54.024 115.316 54.664 116.052 54.664C116.804 54.664 117.468 54.024 118.044 52.744C118.636 51.448 118.932 49.912 118.932 48.136C118.932 46.792 118.564 46.12 117.828 46.12C117.108 46.12 116.444 46.736 115.836 47.968C115.244 49.184 114.948 50.776 114.948 52.744ZM129.118 48.64C128.782 48.304 128.614 47.896 128.614 47.416C128.614 46.936 128.782 46.528 129.118 46.192C129.454 45.84 129.83 45.664 130.246 45.664C130.678 45.664 131.038 45.776 131.326 46C131.63 46.208 131.846 46.48 131.974 46.816C131.99 46.832 131.998 46.848 131.998 46.864L131.998 46.888C132.19 47.304 132.286 47.912 132.286 48.712C132.286 49.496 132.19 50.216 131.998 50.872C131.822 51.528 131.542 52.2 131.158 52.888C130.79 53.56 130.246 54.12 129.526 54.568C128.806 55 127.958 55.216 126.982 55.216C126.006 55.216 125.19 54.896 124.534 54.256C123.894 53.616 123.574 52.88 123.574 52.048C123.574 51.216 123.718 50.192 124.006 48.976C124.31 47.744 124.478 46.8 124.51 46.144C124.254 46.16 124.006 46.256 123.766 46.432C123.526 46.592 123.35 46.752 123.238 46.912L123.07 47.152L122.71 46.864C122.758 46.768 122.83 46.656 122.926 46.528C123.022 46.4 123.262 46.224 123.646 46C124.046 45.776 124.542 45.664 125.134 45.664C125.726 45.664 126.198 45.856 126.55 46.24C126.918 46.624 127.102 47.112 127.102 47.704C127.102 48.296 126.942 49.216 126.622 50.464C126.302 51.696 126.142 52.568 126.142 53.08C126.142 53.576 126.254 53.968 126.478 54.256C126.718 54.544 127.054 54.688 127.486 54.688C128.558 54.688 129.534 54.104 130.414 52.936C131.294 51.768 131.734 50.464 131.734 49.024C131.734 48.912 131.718 48.744 131.686 48.52C131.35 48.936 130.918 49.144 130.39 49.144C129.878 49.144 129.454 48.976 129.118 48.64ZM138.608 45.664C140.64 45.664 141.656 46.472 141.656 48.088C141.656 49.096 141.176 49.864 140.216 50.392C139.272 50.904 137.92 51.168 136.16 51.184C136.128 51.76 136.112 52.216 136.112 52.552C136.112 53.272 136.272 53.808 136.592 54.16C136.928 54.496 137.344 54.664 137.84 54.664C138.336 54.664 138.784 54.568 139.184 54.376C139.6 54.184 139.928 53.96 140.168 53.704C140.408 53.432 140.616 53.152 140.792 52.864C141.112 52.336 141.272 52 141.272 51.856L141.704 52.048C141.656 52.304 141.512 52.648 141.272 53.08C141.032 53.496 140.768 53.84 140.48 54.112C140.192 54.384 139.768 54.64 139.208 54.88C138.648 55.104 138.024 55.216 137.336 55.216C136.04 55.216 135.056 54.912 134.384 54.304C133.728 53.68 133.4 52.832 133.4 51.76C133.4 49.856 133.872 48.368 134.816 47.296C135.76 46.208 137.024 45.664 138.608 45.664ZM141.056 48.088C141.056 47.56 140.896 47.128 140.576 46.792C140.272 46.44 139.808 46.264 139.184 46.264C138.576 46.264 137.976 46.632 137.384 47.368C136.808 48.104 136.424 49.192 136.232 50.632C139.448 50.616 141.056 49.768 141.056 48.088ZM147.355 54.136C147.147 54.408 146.859 54.656 146.491 54.88C146.139 55.104 145.675 55.216 145.099 55.216C144.523 55.216 144.035 55.032 143.635 54.664C143.235 54.296 143.035 53.776 143.035 53.104C143.035 52.976 143.051 52.768 143.083 52.48L144.643 43.84C144.931 42.256 145.323 41.128 145.819 40.456C146.331 39.784 147.003 39.448 147.835 39.448C148.411 39.448 148.883 39.664 149.251 40.096C149.635 40.528 149.827 41.184 149.827 42.064C149.827 42.944 149.483 44.2 148.795 45.832C148.123 47.464 147.787 48.656 147.787 49.408L147.355 49.408C147.355 48.56 147.691 47.352 148.363 45.784C149.035 44.2 149.371 42.936 149.371 41.992C149.371 41.416 149.235 40.92 148.963 40.504C148.707 40.088 148.387 39.88 148.003 39.88C147.987 40.296 147.707 42.168 147.163 45.496C146.635 48.808 146.107 51.888 145.579 54.736C146.027 54.736 146.443 54.504 146.827 54.04C147.211 53.576 147.483 53.112 147.643 52.648L147.907 51.928L148.339 52.12C148.291 52.344 148.163 52.672 147.955 53.104C147.763 53.52 147.563 53.864 147.355 54.136ZM151.131 46.144C150.747 46.144 150.347 46.368 149.931 46.816L149.571 46.528C149.683 46.304 149.931 46.104 150.315 45.928C150.699 45.752 151.123 45.664 151.587 45.664C153.043 45.664 153.771 46.32 153.771 47.632C153.771 48.192 153.619 49.112 153.315 50.392C153.011 51.656 152.859 52.512 152.859 52.96C152.859 53.728 153.179 54.112 153.819 54.112C154.347 54.112 154.859 53.752 155.355 53.032C155.867 52.312 156.283 51.344 156.603 50.128L157.395 45.88C158.579 45.88 159.443 45.832 159.987 45.736L160.299 45.664L158.787 54.16C158.499 55.808 157.827 57.096 156.771 58.024C155.731 58.952 154.379 59.416 152.715 59.416C151.707 59.416 150.923 59.24 150.363 58.888C149.819 58.552 149.547 58.104 149.547 57.544C149.547 57 149.715 56.56 150.051 56.224C150.387 55.904 150.859 55.744 151.467 55.744C152.091 55.744 152.667 55.84 153.195 56.032C153.723 56.24 154.107 56.36 154.347 56.392L154.299 56.824C154.027 56.792 153.635 56.68 153.123 56.488C152.611 56.296 152.099 56.2 151.587 56.2C151.091 56.2 150.707 56.312 150.435 56.536C150.179 56.76 150.051 57.08 150.051 57.496C150.051 57.928 150.283 58.272 150.747 58.528C151.211 58.8 151.787 58.936 152.475 58.936C154.139 58.936 155.163 57.936 155.547 55.936L156.147 52.624C155.475 54.096 154.459 54.832 153.099 54.832C152.171 54.832 151.451 54.568 150.939 54.04C150.443 53.512 150.195 52.768 150.195 51.808C150.195 51.312 150.339 50.424 150.627 49.144C150.931 47.848 151.099 46.848 151.131 46.144ZM85.8486 79.736C85.8486 82.136 86.6246 83.72 88.1766 84.488C88.5606 84.536 89.0646 84.56 89.6886 84.56C90.3286 84.56 91.0006 84.44 91.7046 84.2C92.4086 83.96 92.9526 83.664 93.3366 83.312C94.1526 82.56 94.6646 81.912 94.8726 81.368L94.9926 81.008L95.4726 81.2C95.3606 81.568 95.1446 81.992 94.8246 82.472C94.5046 82.952 94.1366 83.36 93.7206 83.696C93.3206 84.032 92.7286 84.336 91.9446 84.608C91.1766 84.896 90.3206 85.04 89.3766 85.04C87.3606 85.04 85.7926 84.456 84.6726 83.288C83.5686 82.12 83.0166 80.472 83.0166 78.344C83.0166 75.448 83.9526 73.064 85.8246 71.192C87.6966 69.32 90.1526 68.384 93.1926 68.384C94.6006 68.384 95.6166 68.64 96.2406 69.152C96.8646 69.648 97.1766 70.432 97.1766 71.504C97.1766 72.224 96.8246 73.112 96.1206 74.168C95.4806 75.192 95.1606 75.992 95.1606 76.568L94.6326 76.568C94.6326 76.248 94.6966 75.904 94.8246 75.536C94.9526 75.168 95.0646 74.904 95.1606 74.744C95.2566 74.584 95.4326 74.296 95.6886 73.88C96.3126 72.936 96.6246 72.16 96.6246 71.552C96.6246 70.272 96.0966 69.464 95.0406 69.128C94.5446 68.968 94.0246 68.888 93.4806 68.888C92.9366 68.888 92.3606 68.92 91.7526 68.984C91.1926 69.16 90.6566 69.392 90.1446 69.68C89.6486 69.952 89.1286 70.376 88.5846 70.952C88.0406 71.512 87.5766 72.168 87.1926 72.92C86.8086 73.672 86.4886 74.64 86.2326 75.824C85.9766 76.992 85.8486 78.296 85.8486 79.736ZM106.142 83.216C104.734 83.216 103.966 82.6 103.838 81.368C103.134 82.6 102.246 83.216 101.174 83.216C100.102 83.216 99.2459 82.896 98.6059 82.256C97.9819 81.6 97.6699 80.688 97.6699 79.52C97.6699 77.696 98.1179 76.264 99.0139 75.224C99.9099 74.184 101.07 73.664 102.494 73.664C103.662 73.664 104.438 74.216 104.822 75.32C104.902 74.84 104.99 74.36 105.086 73.88C106.27 73.88 107.15 73.832 107.726 73.736L108.038 73.664L106.382 82.736C106.862 82.688 107.262 82.464 107.582 82.064L107.942 82.352C107.462 82.928 106.862 83.216 106.142 83.216ZM100.382 80.744C100.382 81.464 100.47 81.968 100.646 82.256C100.838 82.528 101.126 82.664 101.51 82.664C101.894 82.664 102.286 82.456 102.686 82.04C103.214 81.496 103.638 80.808 103.958 79.976C104.006 79.768 104.094 79.272 104.222 78.488C104.366 77.688 104.486 77.032 104.582 76.52C104.534 75.912 104.366 75.384 104.078 74.936C103.79 74.488 103.43 74.264 102.998 74.264C102.214 74.264 101.582 74.968 101.102 76.376C100.622 77.768 100.382 79.224 100.382 80.744ZM110.783 73.88L111.431 70.328C112.615 70.328 113.495 70.28 114.071 70.184L114.383 70.112C114.159 71.232 113.911 72.488 113.639 73.88L116.615 73.88L116.567 74.312L113.567 74.312C112.767 78.44 112.367 80.928 112.367 81.776C112.367 82.288 112.639 82.544 113.183 82.544C113.727 82.544 114.223 82.2 114.671 81.512C115.119 80.824 115.439 80.08 115.631 79.28L116.063 79.424C115.471 81.952 114.247 83.216 112.391 83.216C111.623 83.216 110.983 83.008 110.471 82.592C109.959 82.16 109.703 81.568 109.703 80.816C109.703 80.048 110.031 77.88 110.687 74.312L109.511 74.312L109.559 73.88L110.783 73.88ZM126.029 82.736C126.413 82.736 126.813 82.512 127.229 82.064L127.589 82.352C127.477 82.576 127.229 82.776 126.845 82.952C126.461 83.128 126.037 83.216 125.573 83.216C124.117 83.216 123.389 82.56 123.389 81.248C123.389 80.688 123.533 79.688 123.821 78.248C124.109 76.808 124.253 75.864 124.253 75.416C124.253 74.728 123.925 74.384 123.269 74.384C122.725 74.384 122.197 74.752 121.685 75.488C121.189 76.224 120.781 77.224 120.461 78.488L119.669 83L116.789 83L119.453 67.928C118.973 67.976 118.573 68.2 118.253 68.6L117.893 68.312C118.373 67.736 118.973 67.448 119.693 67.448C120.429 67.448 120.997 67.632 121.397 68C121.797 68.368 121.997 68.888 121.997 69.56C121.997 69.688 121.981 69.896 121.949 70.184L120.941 75.872C121.597 74.4 122.613 73.664 123.989 73.664C124.933 73.664 125.669 73.936 126.197 74.48C126.725 75.008 126.989 75.744 126.989 76.688C126.989 77.184 126.837 78.144 126.533 79.568C126.229 80.976 126.061 82.032 126.029 82.736ZM133.909 73.664C135.941 73.664 136.957 74.472 136.957 76.088C136.957 77.096 136.477 77.864 135.517 78.392C134.573 78.904 133.221 79.168 131.461 79.184C131.429 79.76 131.413 80.216 131.413 80.552C131.413 81.272 131.573 81.808 131.893 82.16C132.229 82.496 132.645 82.664 133.141 82.664C133.637 82.664 134.085 82.568 134.485 82.376C134.901 82.184 135.229 81.96 135.469 81.704C135.709 81.432 135.917 81.152 136.093 80.864C136.413 80.336 136.573 80 136.573 79.856L137.005 80.048C136.957 80.304 136.813 80.648 136.573 81.08C136.333 81.496 136.069 81.84 135.781 82.112C135.493 82.384 135.069 82.64 134.509 82.88C133.949 83.104 133.325 83.216 132.637 83.216C131.341 83.216 130.357 82.912 129.685 82.304C129.029 81.68 128.701 80.832 128.701 79.76C128.701 77.856 129.173 76.368 130.117 75.296C131.061 74.208 132.325 73.664 133.909 73.664ZM136.357 76.088C136.357 75.56 136.197 75.128 135.877 74.792C135.573 74.44 135.109 74.264 134.485 74.264C133.877 74.264 133.277 74.632 132.685 75.368C132.109 76.104 131.725 77.192 131.533 78.632C134.749 78.616 136.357 77.768 136.357 76.088ZM138.408 74.528C138.888 73.952 139.488 73.664 140.208 73.664C140.944 73.664 141.512 73.848 141.912 74.216C142.312 74.584 142.512 75.104 142.512 75.776L142.512 75.92C143.232 74.416 144.168 73.664 145.32 73.664C146.552 73.664 147.168 74.304 147.168 75.584C147.168 76.112 146.992 76.672 146.64 77.264C146.288 77.856 145.936 78.424 145.584 78.968C145.232 79.496 145.056 79.968 145.056 80.384L144.48 80.384C144.48 79.792 144.824 78.992 145.512 77.984C146.2 76.976 146.544 76.2 146.544 75.656C146.544 75.096 146.432 74.72 146.208 74.528C146 74.32 145.68 74.216 145.248 74.216C144.832 74.216 144.416 74.4 144 74.768C143.6 75.136 143.264 75.6 142.992 76.16C142.56 76.992 142.272 77.672 142.128 78.2L142.128 78.224L141.264 83L138.384 83L139.968 74.144C139.488 74.192 139.088 74.416 138.768 74.816L138.408 74.528ZM152.102 82.352C151.622 82.928 151.022 83.216 150.302 83.216C149.582 83.216 149.014 83.032 148.598 82.664C148.198 82.296 147.998 81.816 147.998 81.224C147.998 81.016 148.126 80.144 148.382 78.608L149.174 74.312L148.166 74.312L148.214 73.88L149.246 73.88C150.43 73.88 151.302 73.832 151.862 73.736L152.198 73.664L150.542 82.736C151.022 82.688 151.422 82.464 151.742 82.064L152.102 82.352ZM149.99 71.36C149.654 71.024 149.486 70.616 149.486 70.136C149.486 69.656 149.654 69.248 149.99 68.912C150.326 68.56 150.734 68.384 151.214 68.384C151.694 68.384 152.102 68.56 152.438 68.912C152.79 69.248 152.966 69.656 152.966 70.136C152.966 70.616 152.79 71.024 152.438 71.36C152.102 71.696 151.694 71.864 151.214 71.864C150.734 71.864 150.326 71.696 149.99 71.36ZM162.763 82.736C163.147 82.736 163.547 82.512 163.963 82.064L164.323 82.352C164.211 82.576 163.963 82.776 163.579 82.952C163.195 83.128 162.771 83.216 162.307 83.216C160.851 83.216 160.123 82.56 160.123 81.248C160.123 80.688 160.267 79.688 160.555 78.248C160.843 76.808 160.987 75.864 160.987 75.416C160.987 74.728 160.659 74.384 160.003 74.384C159.475 74.384 158.963 74.728 158.467 75.416C157.987 76.104 157.587 77.048 157.267 78.248L156.451 82.736C156.947 82.688 157.355 82.464 157.675 82.064L158.035 82.352C157.555 82.928 156.955 83.216 156.235 83.216C155.515 83.216 154.947 83.032 154.531 82.664C154.131 82.296 153.931 81.816 153.931 81.224C153.931 81 154.059 80.12 154.315 78.584L155.107 74.144C154.627 74.192 154.227 74.416 153.907 74.816L153.547 74.528C154.027 73.952 154.627 73.664 155.347 73.664C156.083 73.664 156.651 73.848 157.051 74.216C157.451 74.584 157.651 75.104 157.651 75.776L157.651 75.92C158.307 74.416 159.331 73.664 160.723 73.664C161.667 73.664 162.403 73.936 162.931 74.48C163.459 75.008 163.723 75.744 163.723 76.688C163.723 77.184 163.571 78.144 163.267 79.568C162.963 80.976 162.795 82.032 162.763 82.736ZM173.347 85.616C173.923 85.616 174.419 85.392 174.835 84.944L175.171 85.232C174.787 85.776 174.179 86.048 173.347 86.048C172.995 86.048 172.635 86.008 172.267 85.928C171.179 86.92 169.787 87.416 168.091 87.416C167.083 87.416 166.299 87.24 165.739 86.888C165.195 86.552 164.923 86.104 164.923 85.544C164.923 85 165.091 84.56 165.427 84.224C165.779 83.904 166.395 83.744 167.275 83.744C168.155 83.744 169.315 84.104 170.755 84.824L171.499 80.84C170.779 82.168 169.851 82.832 168.715 82.832C166.539 82.832 165.451 81.76 165.451 79.616C165.451 77.824 165.899 76.384 166.795 75.296C167.707 74.208 168.867 73.664 170.275 73.664C171.091 73.664 171.723 73.912 172.171 74.408C172.299 74.552 172.427 74.768 172.555 75.056L172.771 73.88C173.955 73.88 174.819 73.832 175.363 73.736L175.675 73.664L174.091 82.52C173.851 83.768 173.371 84.776 172.651 85.544C172.859 85.592 173.091 85.616 173.347 85.616ZM168.163 80.36C168.163 81.096 168.235 81.592 168.379 81.848C168.523 82.088 168.795 82.208 169.195 82.208C169.595 82.208 170.003 81.992 170.419 81.56C170.835 81.128 171.131 80.728 171.307 80.36C171.499 79.976 171.659 79.608 171.787 79.256L172.291 76.496L172.291 76.328C172.291 74.856 171.619 74.12 170.275 74.12C169.763 74.12 169.283 74.816 168.835 76.208C168.387 77.6 168.163 78.984 168.163 80.36ZM167.995 86.936C169.275 86.936 170.139 86.384 170.587 85.28L170.251 85.112C170.059 85.016 169.939 84.952 169.891 84.92C169.859 84.904 169.755 84.856 169.579 84.776C169.403 84.696 169.275 84.64 169.195 84.608C169.115 84.592 168.987 84.552 168.811 84.488C168.651 84.424 168.515 84.376 168.403 84.344C168.291 84.328 168.163 84.304 168.019 84.272C167.779 84.224 167.427 84.2 166.963 84.2C166.499 84.2 166.123 84.312 165.835 84.536C165.563 84.76 165.427 85.088 165.427 85.52C165.427 85.952 165.659 86.296 166.123 86.552C166.587 86.808 167.211 86.936 167.995 86.936Z" fill="black"/>
<rect x="84.0161" y="286.046" width="88" height="31" rx="15.5" fill="#FA8686"/>
<path d="M105.198 306.666L111.262 306.666L111.262 308.046L103.501 308.046L103.501 295.249L105.198 295.249L105.198 306.666ZM122.451 302.06C122.451 303.314 122.24 304.41 121.818 305.347C121.396 306.279 120.798 306.991 120.025 307.483C119.251 307.975 118.349 308.221 117.318 308.221C116.31 308.221 115.417 307.975 114.637 307.483C113.858 306.985 113.251 306.279 112.818 305.365C112.39 304.445 112.17 303.382 112.159 302.175L112.159 301.252C112.159 300.021 112.373 298.934 112.8 297.991C113.228 297.048 113.832 296.327 114.611 295.829C115.396 295.325 116.292 295.073 117.3 295.073C118.326 295.073 119.228 295.322 120.007 295.82C120.792 296.312 121.396 297.03 121.818 297.973C122.24 298.911 122.451 300.004 122.451 301.252L122.451 302.06ZM120.772 301.234C120.772 299.717 120.467 298.554 119.858 297.745C119.249 296.93 118.396 296.523 117.3 296.523C116.234 296.523 115.393 296.93 114.778 297.745C114.168 298.554 113.855 299.679 113.837 301.12L113.837 302.06C113.837 303.531 114.145 304.688 114.76 305.532C115.381 306.37 116.234 306.789 117.318 306.789C118.408 306.789 119.251 306.393 119.849 305.602C120.447 304.805 120.754 303.666 120.772 302.183L120.772 301.234ZM134.43 306.367C133.997 306.988 133.39 307.454 132.611 307.764C131.837 308.069 130.935 308.221 129.904 308.221C128.861 308.221 127.935 307.978 127.126 307.492C126.318 307 125.691 306.303 125.246 305.4C124.806 304.498 124.581 303.452 124.569 302.262L124.569 301.146C124.569 299.219 125.017 297.724 125.914 296.664C126.816 295.603 128.082 295.073 129.71 295.073C131.046 295.073 132.122 295.416 132.936 296.101C133.75 296.781 134.249 297.748 134.43 299.002L132.743 299.002C132.426 297.308 131.418 296.462 129.719 296.462C128.588 296.462 127.73 296.86 127.144 297.657C126.564 298.448 126.271 299.596 126.265 301.102L126.265 302.148C126.265 303.584 126.593 304.726 127.25 305.576C127.906 306.42 128.793 306.842 129.913 306.842C130.545 306.842 131.099 306.771 131.574 306.631C132.048 306.49 132.441 306.253 132.751 305.919L132.751 303.045L129.79 303.045L129.79 301.674L134.43 301.674L134.43 306.367ZM139.062 308.046L137.375 308.046L137.375 295.249L139.062 295.249L139.062 308.046ZM151.991 308.046L150.294 308.046L143.852 298.184L143.852 308.046L142.156 308.046L142.156 295.249L143.852 295.249L150.312 305.154L150.312 295.249L151.991 295.249L151.991 308.046Z" fill="black"/>
<path d="M53.5234 160C53.4505 159.854 53.3913 159.594 53.3457 159.221C52.7578 159.831 52.056 160.137 51.2402 160.137C50.5111 160.137 49.9118 159.932 49.4424 159.521C48.9775 159.107 48.7451 158.583 48.7451 157.949C48.7451 157.179 49.0368 156.582 49.6201 156.158C50.208 155.73 51.0329 155.516 52.0947 155.516L53.3252 155.516L53.3252 154.935C53.3252 154.493 53.193 154.142 52.9287 153.882C52.6644 153.618 52.2747 153.485 51.7598 153.485C51.3086 153.485 50.9303 153.599 50.625 153.827C50.3197 154.055 50.167 154.331 50.167 154.654L48.8955 154.654C48.8955 154.285 49.0254 153.93 49.2852 153.588C49.5495 153.242 49.9049 152.968 50.3516 152.768C50.8027 152.567 51.2972 152.467 51.835 152.467C52.6872 152.467 53.3548 152.681 53.8379 153.109C54.321 153.533 54.5716 154.119 54.5898 154.866L54.5898 158.271C54.5898 158.95 54.6764 159.49 54.8496 159.891L54.8496 160L53.5234 160ZM51.4248 159.036C51.8213 159.036 52.1973 158.934 52.5527 158.729C52.9082 158.523 53.1657 158.257 53.3252 157.929L53.3252 156.411L52.334 156.411C50.7845 156.411 50.0098 156.865 50.0098 157.771C50.0098 158.168 50.1419 158.478 50.4062 158.701C50.6706 158.924 51.0101 159.036 51.4248 159.036ZM62.834 156.384C62.834 157.514 62.5742 158.423 62.0547 159.111C61.5352 159.795 60.8379 160.137 59.9629 160.137C59.0286 160.137 58.3063 159.806 57.7959 159.146L57.7344 160L56.5723 160L56.5723 149.5L57.8369 149.5L57.8369 153.417C58.3473 152.784 59.0514 152.467 59.9492 152.467C60.847 152.467 61.5511 152.806 62.0615 153.485C62.5765 154.164 62.834 155.094 62.834 156.274L62.834 156.384ZM61.5693 156.24C61.5693 155.379 61.403 154.714 61.0703 154.244C60.7376 153.775 60.2591 153.54 59.6348 153.54C58.8008 153.54 58.2015 153.927 57.8369 154.702L57.8369 157.901C58.2243 158.676 58.8281 159.063 59.6484 159.063C60.2546 159.063 60.7262 158.829 61.0635 158.359C61.4007 157.89 61.5693 157.184 61.5693 156.24ZM67.4004 159.104C67.8516 159.104 68.2458 158.968 68.583 158.694C68.9202 158.421 69.1071 158.079 69.1436 157.669L70.3398 157.669C70.3171 158.093 70.1712 158.496 69.9023 158.879C69.6335 159.262 69.2734 159.567 68.8223 159.795C68.3757 160.023 67.9017 160.137 67.4004 160.137C66.3932 160.137 65.5911 159.802 64.9941 159.132C64.4017 158.457 64.1055 157.537 64.1055 156.37L64.1055 156.158C64.1055 155.438 64.2376 154.798 64.502 154.237C64.7663 153.677 65.1445 153.242 65.6367 152.932C66.1335 152.622 66.7191 152.467 67.3936 152.467C68.223 152.467 68.9111 152.715 69.458 153.212C70.0094 153.709 70.3034 154.354 70.3398 155.146L69.1436 155.146C69.1071 154.668 68.9248 154.276 68.5967 153.971C68.2731 153.661 67.8721 153.506 67.3936 153.506C66.751 153.506 66.252 153.738 65.8965 154.203C65.5456 154.663 65.3701 155.331 65.3701 156.206L65.3701 156.445C65.3701 157.298 65.5456 157.954 65.8965 158.414C66.2474 158.874 66.7487 159.104 67.4004 159.104ZM75.7881 160L74.5166 160L74.5166 151.571L71.9668 152.508L71.9668 151.359L75.5898 149.999L75.7881 149.999L75.7881 160ZM86.0146 160L79.4932 160L79.4932 159.091L82.9385 155.263C83.4489 154.684 83.7998 154.215 83.9912 153.854C84.1872 153.49 84.2852 153.114 84.2852 152.727C84.2852 152.207 84.1279 151.781 83.8135 151.448C83.499 151.116 83.0798 150.949 82.5557 150.949C81.9268 150.949 81.4368 151.129 81.0859 151.489C80.7396 151.845 80.5664 152.341 80.5664 152.979L79.3018 152.979C79.3018 152.063 79.5957 151.323 80.1836 150.758C80.776 150.193 81.5667 149.91 82.5557 149.91C83.4808 149.91 84.2122 150.154 84.75 150.642C85.2878 151.125 85.5566 151.77 85.5566 152.576C85.5566 153.556 84.9323 154.723 83.6836 156.076L81.0176 158.968L86.0146 158.968L86.0146 160ZM89.1934 154.408L90.1436 154.408C90.7406 154.399 91.21 154.242 91.5518 153.937C91.8936 153.631 92.0645 153.219 92.0645 152.699C92.0645 151.533 91.4834 150.949 90.3213 150.949C89.7744 150.949 89.3369 151.106 89.0088 151.421C88.6852 151.731 88.5234 152.143 88.5234 152.658L87.2588 152.658C87.2588 151.87 87.5459 151.216 88.1201 150.696C88.6989 150.172 89.4326 149.91 90.3213 149.91C91.2601 149.91 91.9961 150.159 92.5293 150.655C93.0625 151.152 93.3291 151.842 93.3291 152.727C93.3291 153.159 93.1878 153.579 92.9053 153.984C92.6273 154.39 92.2467 154.693 91.7637 154.894C92.3105 155.067 92.7321 155.354 93.0283 155.755C93.3291 156.156 93.4795 156.646 93.4795 157.225C93.4795 158.118 93.1878 158.826 92.6045 159.351C92.0212 159.875 91.2624 160.137 90.3281 160.137C89.3939 160.137 88.6328 159.884 88.0449 159.378C87.4616 158.872 87.1699 158.204 87.1699 157.375L88.4414 157.375C88.4414 157.899 88.6123 158.318 88.9541 158.633C89.2959 158.947 89.7539 159.104 90.3281 159.104C90.9388 159.104 91.4059 158.945 91.7295 158.626C92.0531 158.307 92.2148 157.849 92.2148 157.252C92.2148 156.673 92.0371 156.229 91.6816 155.919C91.3262 155.609 90.8135 155.45 90.1436 155.44L89.1934 155.44L89.1934 154.408ZM106.27 156.568C106.215 157.671 105.941 158.542 105.449 159.18C104.957 159.818 104.299 160.137 103.474 160.137C102.621 160.137 102.075 159.754 101.833 158.988C101.587 159.376 101.304 159.665 100.985 159.856C100.671 160.043 100.345 160.137 100.008 160.137C99.3607 160.137 98.8708 159.872 98.5381 159.344C98.2054 158.815 98.0824 158.084 98.1689 157.149C98.2373 156.397 98.4082 155.728 98.6816 155.14C98.9596 154.547 99.3151 154.082 99.748 153.745C100.186 153.408 100.644 153.239 101.122 153.239C101.491 153.239 101.822 153.289 102.113 153.39C102.405 153.485 102.733 153.677 103.098 153.964L102.742 157.751C102.656 158.804 102.947 159.33 103.617 159.33C104.132 159.33 104.549 159.075 104.868 158.564C105.187 158.054 105.36 157.389 105.388 156.568C105.474 154.796 105.144 153.444 104.396 152.515C103.654 151.585 102.521 151.12 100.999 151.12C100.083 151.12 99.2695 151.348 98.5586 151.804C97.8477 152.255 97.2871 152.909 96.877 153.766C96.4668 154.622 96.2367 155.611 96.1865 156.732C96.1318 157.863 96.2686 158.845 96.5967 159.679C96.9248 160.508 97.4238 161.142 98.0937 161.579C98.7682 162.021 99.5817 162.242 100.534 162.242C100.944 162.242 101.354 162.192 101.765 162.092C102.179 161.992 102.523 161.862 102.797 161.702L103.05 162.488C102.767 162.666 102.391 162.812 101.922 162.926C101.457 163.04 100.985 163.097 100.507 163.097C99.3675 163.097 98.3877 162.839 97.5674 162.324C96.7471 161.814 96.1318 161.076 95.7217 160.109C95.3161 159.148 95.1406 158.022 95.1953 156.732C95.25 155.479 95.5303 154.354 96.0361 153.355C96.542 152.353 97.2279 151.58 98.0937 151.038C98.9596 150.491 99.9372 150.218 101.026 150.218C102.161 150.218 103.134 150.473 103.945 150.983C104.757 151.494 105.36 152.23 105.757 153.191C106.153 154.153 106.324 155.279 106.27 156.568ZM99.2559 157.149C99.1921 157.797 99.2513 158.293 99.4336 158.64C99.6204 158.986 99.9144 159.159 100.315 159.159C100.589 159.159 100.851 159.043 101.102 158.811C101.357 158.578 101.566 158.245 101.73 157.812L101.737 157.751L102.052 154.312C101.797 154.18 101.523 154.114 101.231 154.114C100.698 154.114 100.256 154.385 99.9053 154.928C99.5589 155.47 99.3424 156.211 99.2559 157.149ZM107.623 156.24C107.623 155.087 107.89 154.171 108.423 153.492C108.956 152.809 109.662 152.467 110.542 152.467C111.444 152.467 112.148 152.786 112.654 153.424L112.716 152.604L113.871 152.604L113.871 159.822C113.871 160.779 113.586 161.534 113.017 162.085C112.451 162.636 111.69 162.912 110.733 162.912C110.2 162.912 109.678 162.798 109.168 162.57C108.658 162.342 108.268 162.03 107.999 161.634L108.655 160.875C109.198 161.545 109.861 161.88 110.645 161.88C111.26 161.88 111.738 161.707 112.08 161.36C112.426 161.014 112.6 160.526 112.6 159.897L112.6 159.262C112.094 159.845 111.403 160.137 110.528 160.137C109.662 160.137 108.961 159.788 108.423 159.091C107.89 158.394 107.623 157.443 107.623 156.24ZM108.895 156.384C108.895 157.218 109.065 157.874 109.407 158.353C109.749 158.826 110.228 159.063 110.843 159.063C111.64 159.063 112.226 158.701 112.6 157.977L112.6 154.6C112.212 153.893 111.631 153.54 110.856 153.54C110.241 153.54 109.76 153.779 109.414 154.258C109.068 154.736 108.895 155.445 108.895 156.384ZM116.975 152.604L117.009 153.424C117.551 152.786 118.283 152.467 119.203 152.467C120.238 152.467 120.942 152.863 121.315 153.656C121.562 153.301 121.881 153.014 122.272 152.795C122.669 152.576 123.136 152.467 123.674 152.467C125.296 152.467 126.121 153.326 126.148 155.044L126.148 160L124.884 160L124.884 155.119C124.884 154.59 124.763 154.196 124.521 153.937C124.28 153.672 123.874 153.54 123.305 153.54C122.835 153.54 122.446 153.681 122.136 153.964C121.826 154.242 121.646 154.618 121.596 155.092L121.596 160L120.324 160L120.324 155.153C120.324 154.078 119.798 153.54 118.745 153.54C117.916 153.54 117.348 153.893 117.043 154.6L117.043 160L115.778 160L115.778 152.604L116.975 152.604ZM132.629 160C132.556 159.854 132.497 159.594 132.451 159.221C131.863 159.831 131.161 160.137 130.346 160.137C129.617 160.137 129.017 159.932 128.548 159.521C128.083 159.107 127.851 158.583 127.851 157.949C127.851 157.179 128.142 156.582 128.726 156.158C129.313 155.73 130.138 155.516 131.2 155.516L132.431 155.516L132.431 154.935C132.431 154.493 132.299 154.142 132.034 153.882C131.77 153.618 131.38 153.485 130.865 153.485C130.414 153.485 130.036 153.599 129.73 153.827C129.425 154.055 129.272 154.331 129.272 154.654L128.001 154.654C128.001 154.285 128.131 153.93 128.391 153.588C128.655 153.242 129.01 152.968 129.457 152.768C129.908 152.567 130.403 152.467 130.94 152.467C131.793 152.467 132.46 152.681 132.943 153.109C133.426 153.533 133.677 154.119 133.695 154.866L133.695 158.271C133.695 158.95 133.782 159.49 133.955 159.891L133.955 160L132.629 160ZM130.53 159.036C130.927 159.036 131.303 158.934 131.658 158.729C132.014 158.523 132.271 158.257 132.431 157.929L132.431 156.411L131.439 156.411C129.89 156.411 129.115 156.865 129.115 157.771C129.115 158.168 129.247 158.478 129.512 158.701C129.776 158.924 130.116 159.036 130.53 159.036ZM137.052 160L135.787 160L135.787 152.604L137.052 152.604L137.052 160ZM135.685 150.642C135.685 150.437 135.746 150.263 135.869 150.122C135.997 149.981 136.184 149.91 136.43 149.91C136.676 149.91 136.863 149.981 136.99 150.122C137.118 150.263 137.182 150.437 137.182 150.642C137.182 150.847 137.118 151.018 136.99 151.154C136.863 151.291 136.676 151.359 136.43 151.359C136.184 151.359 135.997 151.291 135.869 151.154C135.746 151.018 135.685 150.847 135.685 150.642ZM140.456 160L139.191 160L139.191 149.5L140.456 149.5L140.456 160ZM142.514 159.337C142.514 159.118 142.577 158.936 142.705 158.79C142.837 158.644 143.033 158.571 143.293 158.571C143.553 158.571 143.749 158.644 143.881 158.79C144.018 158.936 144.086 159.118 144.086 159.337C144.086 159.547 144.018 159.722 143.881 159.863C143.749 160.005 143.553 160.075 143.293 160.075C143.033 160.075 142.837 160.005 142.705 159.863C142.577 159.722 142.514 159.547 142.514 159.337ZM149.145 159.104C149.596 159.104 149.99 158.968 150.327 158.694C150.664 158.421 150.851 158.079 150.888 157.669L152.084 157.669C152.061 158.093 151.915 158.496 151.646 158.879C151.378 159.262 151.018 159.567 150.566 159.795C150.12 160.023 149.646 160.137 149.145 160.137C148.137 160.137 147.335 159.802 146.738 159.132C146.146 158.457 145.85 157.537 145.85 156.37L145.85 156.158C145.85 155.438 145.982 154.798 146.246 154.237C146.51 153.677 146.889 153.242 147.381 152.932C147.878 152.622 148.463 152.467 149.138 152.467C149.967 152.467 150.655 152.715 151.202 153.212C151.754 153.709 152.048 154.354 152.084 155.146L150.888 155.146C150.851 154.668 150.669 154.276 150.341 153.971C150.017 153.661 149.616 153.506 149.138 153.506C148.495 153.506 147.996 153.738 147.641 154.203C147.29 154.663 147.114 155.331 147.114 156.206L147.114 156.445C147.114 157.298 147.29 157.954 147.641 158.414C147.992 158.874 148.493 159.104 149.145 159.104ZM153.171 156.233C153.171 155.509 153.312 154.857 153.595 154.278C153.882 153.7 154.278 153.253 154.784 152.938C155.295 152.624 155.876 152.467 156.527 152.467C157.535 152.467 158.348 152.815 158.968 153.513C159.592 154.21 159.904 155.137 159.904 156.295L159.904 156.384C159.904 157.104 159.765 157.751 159.487 158.325C159.214 158.895 158.82 159.339 158.305 159.658C157.794 159.977 157.206 160.137 156.541 160.137C155.538 160.137 154.725 159.788 154.101 159.091C153.481 158.394 153.171 157.471 153.171 156.322L153.171 156.233ZM154.442 156.384C154.442 157.204 154.632 157.863 155.01 158.359C155.393 158.856 155.903 159.104 156.541 159.104C157.184 159.104 157.694 158.854 158.072 158.353C158.451 157.847 158.64 157.14 158.64 156.233C158.64 155.422 158.446 154.766 158.059 154.265C157.676 153.759 157.165 153.506 156.527 153.506C155.903 153.506 155.399 153.754 155.017 154.251C154.634 154.748 154.442 155.459 154.442 156.384ZM162.68 152.604L162.714 153.424C163.256 152.786 163.988 152.467 164.908 152.467C165.943 152.467 166.647 152.863 167.021 153.656C167.267 153.301 167.586 153.014 167.978 152.795C168.374 152.576 168.841 152.467 169.379 152.467C171.001 152.467 171.826 153.326 171.854 155.044L171.854 160L170.589 160L170.589 155.119C170.589 154.59 170.468 154.196 170.227 153.937C169.985 153.672 169.579 153.54 169.01 153.54C168.54 153.54 168.151 153.681 167.841 153.964C167.531 154.242 167.351 154.618 167.301 155.092L167.301 160L166.029 160L166.029 155.153C166.029 154.078 165.503 153.54 164.45 153.54C163.621 153.54 163.053 153.893 162.748 154.6L162.748 160L161.483 160L161.483 152.604L162.68 152.604Z" fill="black"/>
<a href="mailto:abc123@gmail.com">
<rect fill="black" fill-opacity="0" y="-0.203125" width="124.804" height="16.4062"/>
</a>
</g>
<defs>
<clipPath id="clip0">
<rect width="255.801" height="384.44" fill="white" transform="translate(0 0.132843) rotate(-0.0297571)"/>
</clipPath>
</defs>
</svg>
