<svg width="256" height="385" viewBox="0 0 256 385" fill="none" xmlns="http://www.w3.org/2000/svg">
<g clip-path="url(#clip0)">
<rect width="255.801" height="384.133" transform="translate(0 0.132843) rotate(-0.0297571)" fill="#E5E5E5"/>
<rect width="256" height="384" fill="#FFE7D6"/>
<path d="M57.3457 104.98L57.3457 115L53.9707 115L53.9707 89.4063L63.4102 89.4063C66.2109 89.4063 68.4023 90.1211 69.9844 91.5508C71.5781 92.9805 72.375 94.873 72.375 97.2285C72.375 99.7129 71.5957 101.629 70.0371 102.977C68.4902 104.313 66.2695 104.98 63.375 104.98L57.3457 104.98ZM57.3457 102.221L63.4102 102.221C65.2148 102.221 66.5977 101.799 67.5586 100.955C68.5195 100.1 69 98.8691 69 97.2637C69 95.7402 68.5195 94.5215 67.5586 93.6074C66.5977 92.6934 65.2793 92.2188 63.6035 92.1836L57.3457 92.1836L57.3457 102.221ZM88.3887 108.32L77.666 108.32L75.2578 115L71.7773 115L81.5508 89.4063L84.5039 89.4063L94.2949 115L90.832 115L88.3887 108.32ZM78.6855 105.543L87.3867 105.543L83.0273 93.5723L78.6855 105.543ZM103.893 102.256L110.572 89.4063L114.404 89.4063L105.58 105.455L105.58 115L102.205 115L102.205 105.455L93.3809 89.4063L97.248 89.4063L103.893 102.256ZM122.068 89.4063L130.436 110.289L138.803 89.4063L143.18 89.4063L143.18 115L139.805 115L139.805 105.033L140.121 94.2754L131.719 115L129.135 115L120.75 94.3281L121.084 105.033L121.084 115L117.709 115L117.709 89.4063L122.068 89.4063ZM163.605 103.17L152.514 103.17L152.514 112.24L165.398 112.24L165.398 115L149.139 115L149.139 89.4063L165.223 89.4063L165.223 92.1836L152.514 92.1836L152.514 100.41L163.605 100.41L163.605 103.17ZM189.27 115L185.877 115L172.992 95.2773L172.992 115L169.6 115L169.6 89.4063L172.992 89.4063L185.912 109.217L185.912 89.4063L189.27 89.4063L189.27 115ZM212.42 92.1836L204.193 92.1836L204.193 115L200.836 115L200.836 92.1836L192.627 92.1836L192.627 89.4063L212.42 89.4063L212.42 92.1836Z" fill="black"/>
<path d="M63.3271 142.592L59.2139 142.592L59.2139 154L57.5352 154L57.5352 142.592L53.4307 142.592L53.4307 141.203L63.3271 141.203L63.3271 142.592ZM63.6611 149.157C63.6611 148.226 63.8428 147.388 64.2061 146.644C64.5752 145.899 65.085 145.325 65.7354 144.921C66.3916 144.517 67.1387 144.314 67.9766 144.314C69.2715 144.314 70.3174 144.763 71.1143 145.659C71.917 146.556 72.3184 147.748 72.3184 149.236L72.3184 149.351C72.3184 150.276 72.1396 151.108 71.7822 151.847C71.4307 152.579 70.9238 153.15 70.2617 153.561C69.6055 153.971 68.8496 154.176 67.9941 154.176C66.7051 154.176 65.6592 153.728 64.8564 152.831C64.0596 151.935 63.6611 150.748 63.6611 149.271L63.6611 149.157ZM65.2959 149.351C65.2959 150.405 65.5391 151.252 66.0254 151.891C66.5176 152.529 67.1738 152.849 67.9941 152.849C68.8203 152.849 69.4766 152.526 69.9629 151.882C70.4492 151.231 70.6924 150.323 70.6924 149.157C70.6924 148.114 70.4434 147.271 69.9453 146.626C69.4531 145.976 68.7969 145.65 67.9766 145.65C67.1738 145.65 66.5264 145.97 66.0342 146.608C65.542 147.247 65.2959 148.161 65.2959 149.351ZM76.5635 142.188L76.5635 144.49L78.3389 144.49L78.3389 145.747L76.5635 145.747L76.5635 151.645C76.5635 152.025 76.6426 152.313 76.8008 152.506C76.959 152.693 77.2285 152.787 77.6094 152.787C77.7969 152.787 78.0547 152.752 78.3828 152.682L78.3828 154C77.9551 154.117 77.5391 154.176 77.1348 154.176C76.4082 154.176 75.8604 153.956 75.4912 153.517C75.1221 153.077 74.9375 152.453 74.9375 151.645L74.9375 145.747L73.2061 145.747L73.2061 144.49L74.9375 144.49L74.9375 142.188L76.5635 142.188ZM86.1172 154C86.0234 153.813 85.9473 153.479 85.8887 152.998C85.1328 153.783 84.2305 154.176 83.1816 154.176C82.2441 154.176 81.4736 153.912 80.8701 153.385C80.2725 152.852 79.9736 152.178 79.9736 151.363C79.9736 150.373 80.3486 149.605 81.0986 149.061C81.8545 148.51 82.915 148.234 84.2803 148.234L85.8623 148.234L85.8623 147.487C85.8623 146.919 85.6924 146.468 85.3525 146.134C85.0127 145.794 84.5117 145.624 83.8496 145.624C83.2695 145.624 82.7832 145.771 82.3906 146.063C81.998 146.356 81.8018 146.711 81.8018 147.127L80.167 147.127C80.167 146.652 80.334 146.195 80.668 145.756C81.0078 145.311 81.4648 144.959 82.0391 144.701C82.6191 144.443 83.2549 144.314 83.9463 144.314C85.042 144.314 85.9004 144.59 86.5215 145.141C87.1426 145.686 87.4648 146.438 87.4883 147.399L87.4883 151.776C87.4883 152.649 87.5996 153.344 87.8223 153.859L87.8223 154L86.1172 154ZM83.4189 152.761C83.9287 152.761 84.4121 152.629 84.8691 152.365C85.3262 152.102 85.6572 151.759 85.8623 151.337L85.8623 149.386L84.5879 149.386C82.5957 149.386 81.5996 149.969 81.5996 151.135C81.5996 151.645 81.7695 152.043 82.1094 152.33C82.4492 152.617 82.8857 152.761 83.4189 152.761ZM91.8037 154L90.1777 154L90.1777 140.5L91.8037 140.5L91.8037 154Z" fill="black"/>
<path d="M171.448 154L163.063 154L163.063 152.831L167.493 147.909C168.149 147.165 168.601 146.562 168.847 146.099C169.099 145.63 169.225 145.146 169.225 144.648C169.225 143.98 169.022 143.433 168.618 143.005C168.214 142.577 167.675 142.363 167.001 142.363C166.192 142.363 165.562 142.595 165.111 143.058C164.666 143.515 164.443 144.153 164.443 144.974L162.817 144.974C162.817 143.796 163.195 142.844 163.951 142.117C164.713 141.391 165.729 141.027 167.001 141.027C168.19 141.027 169.131 141.341 169.822 141.968C170.514 142.589 170.859 143.418 170.859 144.455C170.859 145.715 170.057 147.215 168.451 148.955L165.023 152.673L171.448 152.673L171.448 154ZM173.918 147.584L174.568 141.203L181.125 141.203L181.125 142.706L175.948 142.706L175.562 146.195C176.188 145.826 176.9 145.642 177.697 145.642C178.863 145.642 179.789 146.028 180.475 146.802C181.16 147.569 181.503 148.609 181.503 149.922C181.503 151.24 181.146 152.28 180.431 153.042C179.722 153.798 178.729 154.176 177.451 154.176C176.32 154.176 175.397 153.862 174.683 153.235C173.968 152.608 173.561 151.741 173.461 150.634L174.999 150.634C175.099 151.366 175.359 151.92 175.781 152.295C176.203 152.664 176.76 152.849 177.451 152.849C178.207 152.849 178.799 152.591 179.227 152.075C179.66 151.56 179.877 150.848 179.877 149.939C179.877 149.084 179.643 148.398 179.174 147.883C178.711 147.361 178.093 147.101 177.319 147.101C176.61 147.101 176.054 147.256 175.649 147.566L175.219 147.918L173.918 147.584ZM186.1 149.597L185.08 150.66L185.08 154L183.454 154L183.454 140.5L185.08 140.5L185.08 148.665L185.95 147.619L188.912 144.49L190.89 144.49L187.189 148.463L191.32 154L189.413 154L186.1 149.597Z" fill="black"/>
<path d="M62.1094 191.488C61.9336 192.992 61.377 194.154 60.4395 194.975C59.5085 195.788 58.2682 196.195 56.7187 196.195C55.0391 196.195 53.6914 195.593 52.6758 194.389C51.6667 193.184 51.1621 191.573 51.1621 189.555L51.1621 188.188C51.1621 186.866 51.3965 185.704 51.8652 184.701C52.3405 183.699 53.0111 182.93 53.877 182.396C54.7428 181.856 55.7454 181.586 56.8848 181.586C58.3952 181.586 59.6061 182.009 60.5176 182.855C61.429 183.695 61.9596 184.861 62.1094 186.352L60.2246 186.352C60.0618 185.219 59.707 184.398 59.1602 183.891C58.6198 183.383 57.8613 183.129 56.8848 183.129C55.6868 183.129 54.7461 183.572 54.0625 184.457C53.3854 185.342 53.0469 186.602 53.0469 188.236L53.0469 189.613C53.0469 191.156 53.3691 192.383 54.0137 193.295C54.6582 194.206 55.5599 194.662 56.7187 194.662C57.7604 194.662 58.5579 194.428 59.1113 193.959C59.6712 193.484 60.0423 192.66 60.2246 191.488L62.1094 191.488ZM66.2012 186.713C67.002 185.73 68.0436 185.238 69.3262 185.238C71.5592 185.238 72.6855 186.498 72.7051 189.018L72.7051 196L70.8984 196L70.8984 189.008C70.8919 188.246 70.7161 187.683 70.3711 187.318C70.0326 186.954 69.502 186.771 68.7793 186.771C68.1934 186.771 67.679 186.928 67.2363 187.24C66.7936 187.553 66.4486 187.963 66.2012 188.471L66.2012 196L64.3945 196L64.3945 181L66.2012 181L66.2012 186.713ZM74.9316 190.619C74.9316 189.584 75.1335 188.653 75.5371 187.826C75.9473 186.999 76.5137 186.361 77.2363 185.912C77.9655 185.463 78.7956 185.238 79.7266 185.238C81.1654 185.238 82.3275 185.736 83.2129 186.732C84.1048 187.729 84.5508 189.053 84.5508 190.707L84.5508 190.834C84.5508 191.863 84.3522 192.787 83.9551 193.607C83.5645 194.421 83.0013 195.056 82.2656 195.512C81.5365 195.967 80.6966 196.195 79.7461 196.195C78.3138 196.195 77.1517 195.697 76.2598 194.701C75.3743 193.705 74.9316 192.387 74.9316 190.746L74.9316 190.619ZM76.748 190.834C76.748 192.006 77.0182 192.947 77.5586 193.656C78.1055 194.366 78.8346 194.721 79.7461 194.721C80.6641 194.721 81.3932 194.363 81.9336 193.646C82.474 192.924 82.7441 191.915 82.7441 190.619C82.7441 189.46 82.4674 188.523 81.9141 187.807C81.3672 187.084 80.638 186.723 79.7266 186.723C78.8346 186.723 78.1152 187.077 77.5684 187.787C77.0215 188.497 76.748 189.512 76.748 190.834ZM86.3379 190.619C86.3379 189.584 86.5397 188.653 86.9434 187.826C87.3535 186.999 87.9199 186.361 88.6426 185.912C89.3717 185.463 90.2018 185.238 91.1328 185.238C92.5716 185.238 93.7337 185.736 94.6191 186.732C95.5111 187.729 95.957 189.053 95.957 190.707L95.957 190.834C95.957 191.863 95.7585 192.787 95.3613 193.607C94.9707 194.421 94.4076 195.056 93.6719 195.512C92.9427 195.967 92.1029 196.195 91.1523 196.195C89.7201 196.195 88.5579 195.697 87.666 194.701C86.7806 193.705 86.3379 192.387 86.3379 190.746L86.3379 190.619ZM88.1543 190.834C88.1543 192.006 88.4245 192.947 88.9648 193.656C89.5117 194.366 90.2409 194.721 91.1523 194.721C92.0703 194.721 92.7995 194.363 93.3398 193.646C93.8802 192.924 94.1504 191.915 94.1504 190.619C94.1504 189.46 93.8737 188.523 93.3203 187.807C92.7734 187.084 92.0443 186.723 91.1328 186.723C90.2409 186.723 89.5215 187.077 88.9746 187.787C88.4277 188.497 88.1543 189.512 88.1543 190.834ZM104.375 193.197C104.375 192.709 104.189 192.331 103.818 192.064C103.454 191.791 102.812 191.557 101.895 191.361C100.983 191.166 100.257 190.932 99.7168 190.658C99.1829 190.385 98.7858 190.059 98.5254 189.682C98.2715 189.304 98.1445 188.855 98.1445 188.334C98.1445 187.468 98.5091 186.736 99.2383 186.137C99.974 185.538 100.911 185.238 102.051 185.238C103.249 185.238 104.219 185.548 104.961 186.166C105.71 186.785 106.084 187.576 106.084 188.539L104.268 188.539C104.268 188.044 104.056 187.618 103.633 187.26C103.216 186.902 102.689 186.723 102.051 186.723C101.393 186.723 100.879 186.866 100.508 187.152C100.137 187.439 99.9512 187.813 99.9512 188.275C99.9512 188.712 100.124 189.04 100.469 189.262C100.814 189.483 101.436 189.695 102.334 189.896C103.239 190.098 103.971 190.339 104.531 190.619C105.091 190.899 105.505 191.238 105.771 191.635C106.045 192.025 106.182 192.504 106.182 193.07C106.182 194.014 105.804 194.773 105.049 195.346C104.294 195.912 103.314 196.195 102.109 196.195C101.263 196.195 100.514 196.046 99.8633 195.746C99.2122 195.447 98.7012 195.03 98.3301 194.496C97.9655 193.956 97.7832 193.373 97.7832 192.748L99.5898 192.748C99.6224 193.354 99.8633 193.835 100.312 194.193C100.768 194.545 101.367 194.721 102.109 194.721C102.793 194.721 103.34 194.584 103.75 194.311C104.167 194.031 104.375 193.66 104.375 193.197ZM112.92 196.195C111.488 196.195 110.322 195.727 109.424 194.789C108.525 193.845 108.076 192.585 108.076 191.01L108.076 190.678C108.076 189.63 108.275 188.695 108.672 187.875C109.076 187.048 109.635 186.404 110.352 185.941C111.074 185.473 111.855 185.238 112.695 185.238C114.069 185.238 115.137 185.691 115.898 186.596C116.66 187.501 117.041 188.796 117.041 190.482L117.041 191.234L109.883 191.234C109.909 192.276 110.212 193.119 110.791 193.764C111.377 194.402 112.119 194.721 113.018 194.721C113.656 194.721 114.196 194.59 114.639 194.33C115.081 194.07 115.469 193.725 115.801 193.295L116.904 194.154C116.019 195.515 114.691 196.195 112.92 196.195ZM112.695 186.723C111.966 186.723 111.354 186.99 110.859 187.523C110.365 188.051 110.059 188.793 109.941 189.75L115.234 189.75L115.234 189.613C115.182 188.695 114.935 187.986 114.492 187.484C114.049 186.977 113.451 186.723 112.695 186.723ZM126.26 190.434L126.26 196L124.385 196L124.385 181.781L129.629 181.781C131.185 181.781 132.402 182.178 133.281 182.973C134.167 183.767 134.609 184.818 134.609 186.127C134.609 187.507 134.176 188.572 133.311 189.32C132.451 190.063 131.217 190.434 129.609 190.434L126.26 190.434ZM126.26 188.9L129.629 188.9C130.632 188.9 131.4 188.666 131.934 188.197C132.467 187.722 132.734 187.038 132.734 186.146C132.734 185.3 132.467 184.623 131.934 184.115C131.4 183.607 130.667 183.344 129.736 183.324L126.26 183.324L126.26 188.9ZM143.125 196C143.021 195.792 142.936 195.421 142.871 194.887C142.031 195.759 141.029 196.195 139.863 196.195C138.822 196.195 137.965 195.902 137.295 195.316C136.631 194.724 136.299 193.975 136.299 193.07C136.299 191.97 136.715 191.117 137.549 190.512C138.389 189.9 139.567 189.594 141.084 189.594L142.842 189.594L142.842 188.764C142.842 188.132 142.653 187.631 142.275 187.26C141.898 186.882 141.341 186.693 140.605 186.693C139.961 186.693 139.421 186.856 138.984 187.182C138.548 187.507 138.33 187.901 138.33 188.363L136.514 188.363C136.514 187.836 136.699 187.328 137.07 186.84C137.448 186.345 137.956 185.954 138.594 185.668C139.238 185.382 139.945 185.238 140.713 185.238C141.93 185.238 142.884 185.544 143.574 186.156C144.264 186.762 144.622 187.598 144.648 188.666L144.648 193.529C144.648 194.499 144.772 195.271 145.02 195.844L145.02 196L143.125 196ZM140.127 194.623C140.693 194.623 141.23 194.477 141.738 194.184C142.246 193.891 142.614 193.51 142.842 193.041L142.842 190.873L141.426 190.873C139.212 190.873 138.105 191.521 138.105 192.816C138.105 193.383 138.294 193.826 138.672 194.145C139.049 194.464 139.535 194.623 140.127 194.623ZM150.781 193.354L153.242 185.434L155.176 185.434L150.928 197.631C150.27 199.389 149.225 200.268 147.793 200.268L147.451 200.238L146.777 200.111L146.777 198.646L147.266 198.686C147.878 198.686 148.353 198.562 148.691 198.314C149.036 198.067 149.32 197.615 149.541 196.957L149.941 195.883L146.172 185.434L148.145 185.434L150.781 193.354ZM158.496 185.434L158.545 186.605C159.32 185.694 160.365 185.238 161.68 185.238C163.158 185.238 164.163 185.805 164.697 186.938C165.049 186.43 165.505 186.02 166.064 185.707C166.631 185.395 167.298 185.238 168.066 185.238C170.384 185.238 171.562 186.465 171.602 188.92L171.602 196L169.795 196L169.795 189.027C169.795 188.272 169.622 187.709 169.277 187.338C168.932 186.96 168.353 186.771 167.539 186.771C166.868 186.771 166.312 186.973 165.869 187.377C165.426 187.774 165.169 188.311 165.098 188.988L165.098 196L163.281 196L163.281 189.076C163.281 187.54 162.529 186.771 161.025 186.771C159.84 186.771 159.03 187.276 158.594 188.285L158.594 196L156.787 196L156.787 185.434L158.496 185.434ZM178.721 196.195C177.288 196.195 176.123 195.727 175.225 194.789C174.326 193.845 173.877 192.585 173.877 191.01L173.877 190.678C173.877 189.63 174.076 188.695 174.473 187.875C174.876 187.048 175.436 186.404 176.152 185.941C176.875 185.473 177.656 185.238 178.496 185.238C179.87 185.238 180.937 185.691 181.699 186.596C182.461 187.501 182.842 188.796 182.842 190.482L182.842 191.234L175.684 191.234C175.71 192.276 176.012 193.119 176.592 193.764C177.178 194.402 177.92 194.721 178.818 194.721C179.456 194.721 179.997 194.59 180.439 194.33C180.882 194.07 181.27 193.725 181.602 193.295L182.705 194.154C181.82 195.515 180.492 196.195 178.721 196.195ZM178.496 186.723C177.767 186.723 177.155 186.99 176.66 187.523C176.165 188.051 175.859 188.793 175.742 189.75L181.035 189.75L181.035 189.613C180.983 188.695 180.736 187.986 180.293 187.484C179.85 186.977 179.251 186.723 178.496 186.723ZM186.65 185.434L186.709 186.762C187.516 185.746 188.571 185.238 189.873 185.238C192.106 185.238 193.232 186.498 193.252 189.018L193.252 196L191.445 196L191.445 189.008C191.439 188.246 191.263 187.683 190.918 187.318C190.579 186.954 190.049 186.771 189.326 186.771C188.74 186.771 188.226 186.928 187.783 187.24C187.34 187.553 186.995 187.963 186.748 188.471L186.748 196L184.941 196L184.941 185.434L186.65 185.434ZM198.428 182.875L198.428 185.434L200.4 185.434L200.4 186.83L198.428 186.83L198.428 193.383C198.428 193.806 198.516 194.125 198.691 194.34C198.867 194.548 199.167 194.652 199.59 194.652C199.798 194.652 200.085 194.613 200.449 194.535L200.449 196C199.974 196.13 199.512 196.195 199.062 196.195C198.255 196.195 197.646 195.951 197.236 195.463C196.826 194.975 196.621 194.281 196.621 193.383L196.621 186.83L194.697 186.83L194.697 185.434L196.621 185.434L196.621 182.875L198.428 182.875ZM53.0664 208.434L53.1152 209.605C53.89 208.694 54.9349 208.238 56.25 208.238C57.7279 208.238 58.7337 208.805 59.2676 209.938C59.6191 209.43 60.0749 209.02 60.6348 208.707C61.2012 208.395 61.8685 208.238 62.6367 208.238C64.9544 208.238 66.1328 209.465 66.1719 211.92L66.1719 219L64.3652 219L64.3652 212.027C64.3652 211.272 64.1927 210.709 63.8477 210.338C63.5026 209.96 62.9232 209.771 62.1094 209.771C61.4388 209.771 60.8822 209.973 60.4395 210.377C59.9967 210.774 59.7396 211.311 59.668 211.988L59.668 219L57.8516 219L57.8516 212.076C57.8516 210.54 57.0996 209.771 55.5957 209.771C54.4108 209.771 53.6003 210.276 53.1641 211.285L53.1641 219L51.3574 219L51.3574 208.434L53.0664 208.434ZM73.291 219.195C71.8587 219.195 70.6934 218.727 69.7949 217.789C68.8965 216.845 68.4473 215.585 68.4473 214.01L68.4473 213.678C68.4473 212.63 68.6458 211.695 69.043 210.875C69.4466 210.048 70.0065 209.404 70.7227 208.941C71.4453 208.473 72.2266 208.238 73.0664 208.238C74.4401 208.238 75.5078 208.691 76.2695 209.596C77.0312 210.501 77.4121 211.796 77.4121 213.482L77.4121 214.234L70.2539 214.234C70.2799 215.276 70.5827 216.119 71.1621 216.764C71.748 217.402 72.4902 217.721 73.3887 217.721C74.0267 217.721 74.5671 217.59 75.0098 217.33C75.4525 217.07 75.8398 216.725 76.1719 216.295L77.2754 217.154C76.39 218.515 75.0618 219.195 73.291 219.195ZM73.0664 209.723C72.3372 209.723 71.7253 209.99 71.2305 210.523C70.7357 211.051 70.4297 211.793 70.3125 212.75L75.6055 212.75L75.6055 212.613C75.5534 211.695 75.306 210.986 74.8633 210.484C74.4206 209.977 73.8216 209.723 73.0664 209.723ZM81.9629 205.875L81.9629 208.434L83.9355 208.434L83.9355 209.83L81.9629 209.83L81.9629 216.383C81.9629 216.806 82.0508 217.125 82.2266 217.34C82.4023 217.548 82.7018 217.652 83.125 217.652C83.3333 217.652 83.6198 217.613 83.9844 217.535L83.9844 219C83.5091 219.13 83.0469 219.195 82.5977 219.195C81.7904 219.195 81.1816 218.951 80.7715 218.463C80.3613 217.975 80.1562 217.281 80.1562 216.383L80.1562 209.83L78.2324 209.83L78.2324 208.434L80.1562 208.434L80.1562 205.875L81.9629 205.875ZM87.8613 209.713C88.6621 208.73 89.7038 208.238 90.9863 208.238C93.2194 208.238 94.3457 209.498 94.3652 212.018L94.3652 219L92.5586 219L92.5586 212.008C92.5521 211.246 92.3763 210.683 92.0312 210.318C91.6927 209.954 91.1621 209.771 90.4395 209.771C89.8535 209.771 89.3392 209.928 88.8965 210.24C88.4538 210.553 88.1087 210.963 87.8613 211.471L87.8613 219L86.0547 219L86.0547 204L87.8613 204L87.8613 209.713ZM96.5918 213.619C96.5918 212.584 96.7936 211.653 97.1973 210.826C97.6074 209.999 98.1738 209.361 98.8965 208.912C99.6257 208.463 100.456 208.238 101.387 208.238C102.826 208.238 103.988 208.736 104.873 209.732C105.765 210.729 106.211 212.053 106.211 213.707L106.211 213.834C106.211 214.863 106.012 215.787 105.615 216.607C105.225 217.421 104.661 218.056 103.926 218.512C103.197 218.967 102.357 219.195 101.406 219.195C99.974 219.195 98.8118 218.697 97.9199 217.701C97.0345 216.705 96.5918 215.387 96.5918 213.746L96.5918 213.619ZM98.4082 213.834C98.4082 215.006 98.6784 215.947 99.2187 216.656C99.7656 217.366 100.495 217.721 101.406 217.721C102.324 217.721 103.053 217.363 103.594 216.646C104.134 215.924 104.404 214.915 104.404 213.619C104.404 212.46 104.128 211.523 103.574 210.807C103.027 210.084 102.298 209.723 101.387 209.723C100.495 209.723 99.7754 210.077 99.2285 210.787C98.6816 211.497 98.4082 212.512 98.4082 213.834ZM108.037 213.629C108.037 212.008 108.421 210.706 109.189 209.723C109.958 208.733 110.964 208.238 112.207 208.238C113.444 208.238 114.424 208.661 115.146 209.508L115.146 204L116.953 204L116.953 219L115.293 219L115.205 217.867C114.482 218.753 113.477 219.195 112.187 219.195C110.964 219.195 109.964 218.694 109.189 217.691C108.421 216.689 108.037 215.38 108.037 213.766L108.037 213.629ZM109.844 213.834C109.844 215.032 110.091 215.969 110.586 216.646C111.081 217.324 111.764 217.662 112.637 217.662C113.783 217.662 114.619 217.148 115.146 216.119L115.146 211.266C114.606 210.27 113.776 209.771 112.656 209.771C111.771 209.771 111.081 210.113 110.586 210.797C110.091 211.48 109.844 212.493 109.844 213.834ZM124.668 218.053C124.668 217.74 124.759 217.48 124.941 217.271C125.13 217.063 125.41 216.959 125.781 216.959C126.152 216.959 126.432 217.063 126.621 217.271C126.816 217.48 126.914 217.74 126.914 218.053C126.914 218.352 126.816 218.603 126.621 218.805C126.432 219.007 126.152 219.107 125.781 219.107C125.41 219.107 125.13 219.007 124.941 218.805C124.759 218.603 124.668 218.352 124.668 218.053ZM124.678 209.43C124.678 209.117 124.769 208.857 124.951 208.648C125.14 208.44 125.42 208.336 125.791 208.336C126.162 208.336 126.442 208.44 126.631 208.648C126.826 208.857 126.924 209.117 126.924 209.43C126.924 209.729 126.826 209.98 126.631 210.182C126.442 210.383 126.162 210.484 125.791 210.484C125.42 210.484 125.14 210.383 124.951 210.182C124.769 209.98 124.678 209.729 124.678 209.43Z" fill="black"/>
<rect x="53.0192" y="280" width="150" height="37" rx="18.5" fill="#FA8686"/>
<rect x="53.0385" y="235.078" width="150" height="37" rx="18.5" fill="#FA8686"/>
<path d="M79.6922 255.399C79.5516 256.602 79.1063 257.532 78.3563 258.188C77.6115 258.839 76.6193 259.165 75.3797 259.165C74.0359 259.165 72.9578 258.683 72.1453 257.719C71.338 256.756 70.9344 255.467 70.9344 253.852L70.9344 252.758C70.9344 251.701 71.1219 250.771 71.4969 249.969C71.8771 249.167 72.4136 248.553 73.1063 248.125C73.799 247.693 74.6011 247.477 75.5125 247.477C76.7208 247.477 77.6896 247.816 78.4188 248.493C79.1479 249.165 79.5724 250.097 79.6922 251.29L78.1844 251.29C78.0542 250.383 77.7703 249.727 77.3328 249.321C76.9005 248.915 76.2938 248.711 75.5125 248.711C74.5542 248.711 73.8016 249.066 73.2547 249.774C72.713 250.482 72.4422 251.49 72.4422 252.797L72.4422 253.899C72.4422 255.133 72.7 256.115 73.2156 256.844C73.7313 257.573 74.4526 257.938 75.3797 257.938C76.213 257.938 76.8511 257.75 77.2938 257.375C77.7417 256.995 78.0386 256.336 78.1844 255.399L79.6922 255.399ZM86.7391 259.008C86.6557 258.842 86.588 258.545 86.5359 258.118C85.8641 258.816 85.062 259.165 84.1297 259.165C83.2964 259.165 82.6115 258.93 82.075 258.461C81.5438 257.987 81.2781 257.389 81.2781 256.665C81.2781 255.784 81.6115 255.102 82.2781 254.618C82.95 254.128 83.8927 253.883 85.1063 253.883L86.5125 253.883L86.5125 253.219C86.5125 252.714 86.3615 252.313 86.0594 252.016C85.7573 251.714 85.312 251.563 84.7234 251.563C84.2078 251.563 83.7755 251.693 83.4266 251.954C83.0776 252.214 82.9031 252.529 82.9031 252.899L81.45 252.899C81.45 252.477 81.5984 252.071 81.8953 251.68C82.1974 251.284 82.6037 250.972 83.1141 250.743C83.6297 250.514 84.1948 250.399 84.8094 250.399C85.7833 250.399 86.5464 250.644 87.0984 251.133C87.6505 251.618 87.937 252.287 87.9578 253.141L87.9578 257.032C87.9578 257.808 88.0568 258.425 88.2547 258.883L88.2547 259.008L86.7391 259.008ZM84.3406 257.907C84.7938 257.907 85.2234 257.79 85.6297 257.555C86.0359 257.321 86.3302 257.016 86.5125 256.641L86.5125 254.907L85.3797 254.907C83.6089 254.907 82.7234 255.425 82.7234 256.461C82.7234 256.915 82.8745 257.269 83.1766 257.524C83.4787 257.779 83.8667 257.907 84.3406 257.907ZM95.1453 256.766C95.1453 256.375 94.9969 256.073 94.7 255.86C94.4083 255.641 93.8953 255.454 93.1609 255.297C92.4318 255.141 91.8511 254.954 91.4188 254.735C90.9917 254.516 90.674 254.256 90.4656 253.954C90.2625 253.652 90.1609 253.292 90.1609 252.875C90.1609 252.183 90.4526 251.597 91.0359 251.118C91.6245 250.639 92.3745 250.399 93.2859 250.399C94.2443 250.399 95.0203 250.646 95.6141 251.141C96.213 251.636 96.5125 252.269 96.5125 253.04L95.0594 253.04C95.0594 252.644 94.8901 252.303 94.5516 252.016C94.2182 251.73 93.7964 251.586 93.2859 251.586C92.7599 251.586 92.3484 251.701 92.0516 251.93C91.7547 252.159 91.6063 252.459 91.6063 252.829C91.6063 253.178 91.7443 253.441 92.0203 253.618C92.2964 253.795 92.7938 253.964 93.5125 254.125C94.2365 254.287 94.8224 254.48 95.2703 254.704C95.7182 254.928 96.049 255.198 96.2625 255.516C96.4813 255.829 96.5906 256.211 96.5906 256.665C96.5906 257.42 96.2886 258.027 95.6844 258.485C95.0802 258.938 94.2964 259.165 93.3328 259.165C92.6557 259.165 92.0568 259.045 91.5359 258.805C91.0151 258.566 90.6063 258.232 90.3094 257.805C90.0177 257.373 89.8719 256.907 89.8719 256.407L91.3172 256.407C91.3432 256.891 91.5359 257.277 91.8953 257.563C92.2599 257.844 92.7391 257.985 93.3328 257.985C93.8797 257.985 94.3172 257.875 94.6453 257.657C94.9787 257.433 95.1453 257.136 95.1453 256.766ZM99.9188 251.579C100.559 250.792 101.393 250.399 102.419 250.399C104.205 250.399 105.106 251.407 105.122 253.422L105.122 259.008L103.677 259.008L103.677 253.415C103.671 252.805 103.531 252.355 103.255 252.063C102.984 251.771 102.559 251.625 101.981 251.625C101.513 251.625 101.101 251.75 100.747 252C100.393 252.25 100.117 252.579 99.9188 252.985L99.9188 259.008L98.4734 259.008L98.4734 247.008L99.9188 247.008L99.9188 251.579ZM110.872 254.704C110.872 253.875 111.033 253.131 111.356 252.469C111.684 251.808 112.138 251.297 112.716 250.938C113.299 250.579 113.963 250.399 114.708 250.399C115.859 250.399 116.789 250.797 117.497 251.594C118.21 252.391 118.567 253.451 118.567 254.774L118.567 254.875C118.567 255.698 118.408 256.438 118.091 257.094C117.778 257.745 117.328 258.253 116.739 258.618C116.156 258.982 115.484 259.165 114.723 259.165C113.578 259.165 112.648 258.766 111.934 257.969C111.226 257.172 110.872 256.118 110.872 254.805L110.872 254.704ZM112.325 254.875C112.325 255.813 112.541 256.566 112.973 257.133C113.411 257.701 113.994 257.985 114.723 257.985C115.458 257.985 116.041 257.698 116.473 257.125C116.906 256.547 117.122 255.74 117.122 254.704C117.122 253.777 116.901 253.027 116.458 252.454C116.02 251.875 115.437 251.586 114.708 251.586C113.994 251.586 113.419 251.87 112.981 252.438C112.544 253.006 112.325 253.818 112.325 254.875ZM121.747 250.555L121.794 251.618C122.44 250.805 123.283 250.399 124.325 250.399C126.111 250.399 127.013 251.407 127.028 253.422L127.028 259.008L125.583 259.008L125.583 253.415C125.578 252.805 125.437 252.355 125.161 252.063C124.89 251.771 124.466 251.625 123.888 251.625C123.419 251.625 123.007 251.75 122.653 252C122.299 252.25 122.023 252.579 121.825 252.985L121.825 259.008L120.38 259.008L120.38 250.555L121.747 250.555ZM132.825 254.711C132.825 253.415 133.132 252.373 133.747 251.586C134.361 250.795 135.166 250.399 136.161 250.399C137.151 250.399 137.934 250.737 138.513 251.415L138.513 247.008L139.958 247.008L139.958 259.008L138.63 259.008L138.559 258.102C137.981 258.81 137.177 259.165 136.145 259.165C135.166 259.165 134.367 258.764 133.747 257.961C133.132 257.159 132.825 256.112 132.825 254.821L132.825 254.711ZM134.27 254.875C134.27 255.834 134.468 256.584 134.864 257.125C135.26 257.667 135.807 257.938 136.505 257.938C137.421 257.938 138.091 257.527 138.513 256.704L138.513 252.821C138.08 252.024 137.416 251.625 136.52 251.625C135.812 251.625 135.26 251.899 134.864 252.446C134.468 252.993 134.27 253.803 134.27 254.875ZM145.716 259.165C144.57 259.165 143.638 258.79 142.919 258.04C142.2 257.284 141.841 256.277 141.841 255.016L141.841 254.75C141.841 253.912 141.999 253.165 142.317 252.508C142.64 251.847 143.088 251.331 143.661 250.961C144.239 250.586 144.864 250.399 145.536 250.399C146.635 250.399 147.489 250.761 148.098 251.485C148.708 252.209 149.013 253.245 149.013 254.594L149.013 255.196L143.286 255.196C143.307 256.029 143.549 256.704 144.013 257.219C144.481 257.73 145.075 257.985 145.794 257.985C146.304 257.985 146.736 257.881 147.091 257.672C147.445 257.464 147.755 257.188 148.02 256.844L148.903 257.532C148.195 258.62 147.132 259.165 145.716 259.165ZM145.536 251.586C144.953 251.586 144.463 251.8 144.067 252.227C143.671 252.649 143.427 253.243 143.333 254.008L147.567 254.008L147.567 253.899C147.526 253.165 147.328 252.597 146.973 252.196C146.619 251.79 146.14 251.586 145.536 251.586ZM152.263 259.008L150.817 259.008L150.817 247.008L152.263 247.008L152.263 259.008ZM156.153 259.008L154.708 259.008L154.708 250.555L156.153 250.555L156.153 259.008ZM154.591 248.313C154.591 248.079 154.661 247.881 154.802 247.719C154.947 247.558 155.161 247.477 155.442 247.477C155.723 247.477 155.937 247.558 156.083 247.719C156.229 247.881 156.302 248.079 156.302 248.313C156.302 248.547 156.229 248.743 156.083 248.899C155.937 249.055 155.723 249.133 155.442 249.133C155.161 249.133 154.947 249.055 154.802 248.899C154.661 248.743 154.591 248.547 154.591 248.313ZM161.263 257.047L163.356 250.555L164.833 250.555L161.802 259.008L160.7 259.008L157.638 250.555L159.114 250.555L161.263 257.047ZM169.622 259.165C168.476 259.165 167.544 258.79 166.825 258.04C166.106 257.284 165.747 256.277 165.747 255.016L165.747 254.75C165.747 253.912 165.906 253.165 166.223 252.508C166.546 251.847 166.994 251.331 167.567 250.961C168.145 250.586 168.77 250.399 169.442 250.399C170.541 250.399 171.395 250.761 172.005 251.485C172.614 252.209 172.919 253.245 172.919 254.594L172.919 255.196L167.192 255.196C167.213 256.029 167.455 256.704 167.919 257.219C168.388 257.73 168.981 257.985 169.7 257.985C170.21 257.985 170.643 257.881 170.997 257.672C171.351 257.464 171.661 257.188 171.927 256.844L172.809 257.532C172.101 258.62 171.039 259.165 169.622 259.165ZM169.442 251.586C168.859 251.586 168.369 251.8 167.973 252.227C167.578 252.649 167.333 253.243 167.239 254.008L171.473 254.008L171.473 253.899C171.432 253.165 171.234 252.597 170.88 252.196C170.526 251.79 170.046 251.586 169.442 251.586ZM178.684 251.852C178.466 251.816 178.229 251.797 177.973 251.797C177.026 251.797 176.382 252.201 176.044 253.008L176.044 259.008L174.598 259.008L174.598 250.555L176.005 250.555L176.028 251.532C176.502 250.777 177.174 250.399 178.044 250.399C178.325 250.399 178.539 250.435 178.684 250.508L178.684 251.852ZM182.927 256.891L184.895 250.555L186.442 250.555L183.044 260.313C182.518 261.719 181.682 262.422 180.536 262.422L180.263 262.399L179.723 262.297L179.723 261.125L180.114 261.157C180.604 261.157 180.984 261.058 181.255 260.86C181.531 260.662 181.757 260.3 181.934 259.774L182.255 258.915L179.239 250.555L180.817 250.555L182.927 256.891Z" fill="black"/>
<path d="M97.6875 300.391C97.5469 301.594 97.1016 302.523 96.3516 303.18C95.6068 303.831 94.6146 304.156 93.375 304.156C92.0312 304.156 90.9531 303.674 90.1406 302.711C89.3333 301.747 88.9297 300.458 88.9297 298.844L88.9297 297.75C88.9297 296.693 89.1172 295.763 89.4922 294.961C89.8724 294.159 90.4089 293.544 91.1016 293.117C91.7943 292.685 92.5964 292.469 93.5078 292.469C94.7161 292.469 95.6849 292.807 96.4141 293.484C97.1432 294.156 97.5677 295.089 97.6875 296.281L96.1797 296.281C96.0495 295.375 95.7656 294.719 95.3281 294.312C94.8958 293.906 94.2891 293.703 93.5078 293.703C92.5495 293.703 91.7969 294.057 91.25 294.766C90.7083 295.474 90.4375 296.482 90.4375 297.789L90.4375 298.891C90.4375 300.125 90.6953 301.107 91.2109 301.836C91.7266 302.565 92.4479 302.93 93.375 302.93C94.2083 302.93 94.8464 302.742 95.2891 302.367C95.737 301.987 96.0339 301.328 96.1797 300.391L97.6875 300.391ZM103.602 296.844C103.383 296.807 103.146 296.789 102.891 296.789C101.943 296.789 101.299 297.193 100.961 298L100.961 304L99.5156 304L99.5156 295.547L100.922 295.547L100.945 296.523C101.419 295.768 102.091 295.391 102.961 295.391C103.242 295.391 103.456 295.427 103.602 295.5L103.602 296.844ZM108.289 304.156C107.143 304.156 106.211 303.781 105.492 303.031C104.773 302.276 104.414 301.268 104.414 300.008L104.414 299.742C104.414 298.904 104.573 298.156 104.891 297.5C105.214 296.839 105.661 296.323 106.234 295.953C106.812 295.578 107.437 295.391 108.109 295.391C109.208 295.391 110.062 295.753 110.672 296.477C111.281 297.201 111.586 298.237 111.586 299.586L111.586 300.187L105.859 300.187C105.88 301.021 106.122 301.695 106.586 302.211C107.055 302.721 107.648 302.977 108.367 302.977C108.878 302.977 109.31 302.872 109.664 302.664C110.018 302.456 110.328 302.18 110.594 301.836L111.477 302.523C110.768 303.612 109.706 304.156 108.289 304.156ZM108.109 296.578C107.526 296.578 107.036 296.792 106.641 297.219C106.245 297.641 106 298.234 105.906 299L110.141 299L110.141 298.891C110.099 298.156 109.901 297.589 109.547 297.187C109.193 296.781 108.714 296.578 108.109 296.578ZM112.914 299.703C112.914 298.406 113.221 297.365 113.836 296.578C114.451 295.786 115.255 295.391 116.25 295.391C117.24 295.391 118.023 295.729 118.602 296.406L118.602 292L120.047 292L120.047 304L118.719 304L118.648 303.094C118.07 303.802 117.266 304.156 116.234 304.156C115.255 304.156 114.456 303.755 113.836 302.953C113.221 302.151 112.914 301.104 112.914 299.812L112.914 299.703ZM114.359 299.867C114.359 300.826 114.557 301.576 114.953 302.117C115.349 302.659 115.896 302.93 116.594 302.93C117.51 302.93 118.18 302.518 118.602 301.695L118.602 297.812C118.169 297.016 117.505 296.617 116.609 296.617C115.901 296.617 115.349 296.891 114.953 297.437C114.557 297.984 114.359 298.794 114.359 299.867ZM123.867 304L122.422 304L122.422 295.547L123.867 295.547L123.867 304ZM122.305 293.305C122.305 293.07 122.375 292.872 122.516 292.711C122.661 292.549 122.875 292.469 123.156 292.469C123.437 292.469 123.651 292.549 123.797 292.711C123.943 292.872 124.016 293.07 124.016 293.305C124.016 293.539 123.943 293.734 123.797 293.891C123.651 294.047 123.437 294.125 123.156 294.125C122.875 294.125 122.661 294.047 122.516 293.891C122.375 293.734 122.305 293.539 122.305 293.305ZM128.148 293.5L128.148 295.547L129.727 295.547L129.727 296.664L128.148 296.664L128.148 301.906C128.148 302.245 128.219 302.5 128.359 302.672C128.5 302.839 128.74 302.922 129.078 302.922C129.245 302.922 129.474 302.891 129.766 302.828L129.766 304C129.385 304.104 129.016 304.156 128.656 304.156C128.01 304.156 127.523 303.961 127.195 303.57C126.867 303.18 126.703 302.625 126.703 301.906L126.703 296.664L125.164 296.664L125.164 295.547L126.703 295.547L126.703 293.5L128.148 293.5ZM143.984 300.391C143.844 301.594 143.398 302.523 142.648 303.18C141.904 303.831 140.911 304.156 139.672 304.156C138.328 304.156 137.25 303.674 136.437 302.711C135.63 301.747 135.227 300.458 135.227 298.844L135.227 297.75C135.227 296.693 135.414 295.763 135.789 294.961C136.169 294.159 136.706 293.544 137.398 293.117C138.091 292.685 138.893 292.469 139.805 292.469C141.013 292.469 141.982 292.807 142.711 293.484C143.44 294.156 143.865 295.089 143.984 296.281L142.477 296.281C142.346 295.375 142.062 294.719 141.625 294.312C141.193 293.906 140.586 293.703 139.805 293.703C138.846 293.703 138.094 294.057 137.547 294.766C137.005 295.474 136.734 296.482 136.734 297.789L136.734 298.891C136.734 300.125 136.992 301.107 137.508 301.836C138.023 302.565 138.745 302.93 139.672 302.93C140.505 302.93 141.143 302.742 141.586 302.367C142.034 301.987 142.331 301.328 142.477 300.391L143.984 300.391ZM151.031 304C150.948 303.833 150.88 303.536 150.828 303.109C150.156 303.807 149.354 304.156 148.422 304.156C147.589 304.156 146.904 303.922 146.367 303.453C145.836 302.979 145.57 302.38 145.57 301.656C145.57 300.776 145.904 300.094 146.57 299.609C147.242 299.12 148.185 298.875 149.398 298.875L150.805 298.875L150.805 298.211C150.805 297.706 150.654 297.305 150.352 297.008C150.049 296.706 149.604 296.555 149.016 296.555C148.5 296.555 148.068 296.685 147.719 296.945C147.37 297.206 147.195 297.521 147.195 297.891L145.742 297.891C145.742 297.469 145.891 297.062 146.187 296.672C146.49 296.276 146.896 295.964 147.406 295.734C147.922 295.505 148.487 295.391 149.102 295.391C150.076 295.391 150.839 295.635 151.391 296.125C151.943 296.609 152.229 297.279 152.25 298.133L152.25 302.023C152.25 302.799 152.349 303.417 152.547 303.875L152.547 304L151.031 304ZM148.633 302.898C149.086 302.898 149.516 302.781 149.922 302.547C150.328 302.312 150.622 302.008 150.805 301.633L150.805 299.898L149.672 299.898C147.901 299.898 147.016 300.417 147.016 301.453C147.016 301.906 147.167 302.26 147.469 302.516C147.771 302.771 148.159 302.898 148.633 302.898ZM158.602 296.844C158.383 296.807 158.146 296.789 157.891 296.789C156.943 296.789 156.299 297.193 155.961 298L155.961 304L154.516 304L154.516 295.547L155.922 295.547L155.945 296.523C156.419 295.768 157.091 295.391 157.961 295.391C158.242 295.391 158.456 295.427 158.602 295.5L158.602 296.844ZM159.43 299.703C159.43 298.406 159.737 297.365 160.352 296.578C160.966 295.786 161.771 295.391 162.766 295.391C163.755 295.391 164.539 295.729 165.117 296.406L165.117 292L166.562 292L166.562 304L165.234 304L165.164 303.094C164.586 303.802 163.781 304.156 162.75 304.156C161.771 304.156 160.971 303.755 160.352 302.953C159.737 302.151 159.43 301.104 159.43 299.812L159.43 299.703ZM160.875 299.867C160.875 300.826 161.073 301.576 161.469 302.117C161.865 302.659 162.411 302.93 163.109 302.93C164.026 302.93 164.695 302.518 165.117 301.695L165.117 297.812C164.685 297.016 164.021 296.617 163.125 296.617C162.417 296.617 161.865 296.891 161.469 297.437C161.073 297.984 160.875 298.794 160.875 299.867Z" fill="black"/>
<rect x="53.0192" y="325" width="150" height="37" rx="18.5" fill="#FA8686"/>
<path d="M79.3395 348L79.3395 336.625L83.0583 336.625C84.2927 336.625 85.2197 336.88 85.8395 337.391C86.4645 337.901 86.777 338.656 86.777 339.656C86.777 340.188 86.626 340.659 86.3239 341.07C86.0218 341.477 85.6104 341.792 85.0895 342.016C85.7041 342.188 86.1885 342.516 86.5427 343C86.902 343.479 87.0817 344.052 87.0817 344.719C87.0817 345.74 86.751 346.542 86.0895 347.125C85.4281 347.708 84.4932 348 83.2849 348L79.3395 348ZM80.8395 342.68L80.8395 346.773L83.3161 346.773C84.014 346.773 84.5635 346.594 84.9645 346.234C85.3708 345.87 85.5739 345.37 85.5739 344.734C85.5739 343.365 84.8291 342.68 83.3395 342.68L80.8395 342.68ZM80.8395 341.477L83.1052 341.477C83.7614 341.477 84.2849 341.313 84.6755 340.984C85.0713 340.656 85.2692 340.211 85.2692 339.648C85.2692 339.023 85.0869 338.57 84.7224 338.289C84.3578 338.003 83.8031 337.859 83.0583 337.859L80.8395 337.859L80.8395 341.477ZM94.3005 348C94.2171 347.833 94.1494 347.536 94.0974 347.109C93.4255 347.807 92.6234 348.156 91.6911 348.156C90.8578 348.156 90.1729 347.922 89.6364 347.453C89.1052 346.979 88.8395 346.38 88.8395 345.656C88.8395 344.776 89.1729 344.094 89.8395 343.609C90.5114 343.12 91.4541 342.875 92.6677 342.875L94.0739 342.875L94.0739 342.211C94.0739 341.706 93.9229 341.305 93.6208 341.008C93.3187 340.706 92.8734 340.555 92.2849 340.555C91.7692 340.555 91.3369 340.685 90.988 340.945C90.639 341.206 90.4645 341.521 90.4645 341.891L89.0114 341.891C89.0114 341.469 89.1599 341.063 89.4567 340.672C89.7588 340.276 90.1651 339.964 90.6755 339.734C91.1911 339.505 91.7562 339.391 92.3708 339.391C93.3447 339.391 94.1078 339.635 94.6599 340.125C95.2119 340.609 95.4984 341.279 95.5192 342.133L95.5192 346.023C95.5192 346.8 95.6182 347.417 95.8161 347.875L95.8161 348L94.3005 348ZM91.902 346.898C92.3552 346.898 92.7849 346.781 93.1911 346.547C93.5974 346.313 93.8916 346.008 94.0739 345.633L94.0739 343.898L92.9411 343.898C91.1703 343.898 90.2849 344.417 90.2849 345.453C90.2849 345.906 90.4359 346.26 90.738 346.516C91.0401 346.771 91.4281 346.898 91.902 346.898ZM99.152 339.547L99.1989 340.609C99.8447 339.797 100.688 339.391 101.73 339.391C103.517 339.391 104.418 340.398 104.433 342.414L104.433 348L102.988 348L102.988 342.406C102.983 341.797 102.842 341.346 102.566 341.055C102.295 340.763 101.871 340.617 101.293 340.617C100.824 340.617 100.412 340.742 100.058 340.992C99.7041 341.242 99.4281 341.57 99.2302 341.977L99.2302 348L97.7849 348L97.7849 339.547L99.152 339.547ZM108.972 344.086L108.066 345.031L108.066 348L106.621 348L106.621 336L108.066 336L108.066 343.258L108.84 342.328L111.472 339.547L113.23 339.547L109.941 343.078L113.613 348L111.918 348L108.972 344.086ZM126.465 337.859L122.808 337.859L122.808 348L121.316 348L121.316 337.859L117.668 337.859L117.668 336.625L126.465 336.625L126.465 337.859ZM131.418 340.844C131.199 340.807 130.962 340.789 130.707 340.789C129.759 340.789 129.116 341.193 128.777 342L128.777 348L127.332 348L127.332 339.547L128.738 339.547L128.761 340.523C129.235 339.768 129.907 339.391 130.777 339.391C131.058 339.391 131.272 339.427 131.418 339.5L131.418 340.844ZM137.66 348C137.577 347.833 137.509 347.536 137.457 347.109C136.785 347.807 135.983 348.156 135.05 348.156C134.217 348.156 133.532 347.922 132.996 347.453C132.465 346.979 132.199 346.38 132.199 345.656C132.199 344.776 132.532 344.094 133.199 343.609C133.871 343.12 134.813 342.875 136.027 342.875L137.433 342.875L137.433 342.211C137.433 341.706 137.282 341.305 136.98 341.008C136.678 340.706 136.233 340.555 135.644 340.555C135.129 340.555 134.696 340.685 134.347 340.945C133.998 341.206 133.824 341.521 133.824 341.891L132.371 341.891C132.371 341.469 132.519 341.063 132.816 340.672C133.118 340.276 133.524 339.964 134.035 339.734C134.55 339.505 135.116 339.391 135.73 339.391C136.704 339.391 137.467 339.635 138.019 340.125C138.571 340.609 138.858 341.279 138.879 342.133L138.879 346.023C138.879 346.8 138.978 347.417 139.175 347.875L139.175 348L137.66 348ZM135.261 346.898C135.715 346.898 136.144 346.781 136.55 346.547C136.957 346.313 137.251 346.008 137.433 345.633L137.433 343.898L136.3 343.898C134.53 343.898 133.644 344.417 133.644 345.453C133.644 345.906 133.795 346.26 134.097 346.516C134.399 346.771 134.787 346.898 135.261 346.898ZM142.511 339.547L142.558 340.609C143.204 339.797 144.048 339.391 145.09 339.391C146.876 339.391 147.777 340.398 147.793 342.414L147.793 348L146.347 348L146.347 342.406C146.342 341.797 146.202 341.346 145.925 341.055C145.655 340.763 145.23 340.617 144.652 340.617C144.183 340.617 143.772 340.742 143.418 340.992C143.063 341.242 142.787 341.57 142.59 341.977L142.59 348L141.144 348L141.144 339.547L142.511 339.547ZM154.894 345.758C154.894 345.367 154.746 345.065 154.449 344.852C154.157 344.633 153.644 344.445 152.91 344.289C152.181 344.133 151.6 343.945 151.168 343.727C150.741 343.508 150.423 343.247 150.215 342.945C150.011 342.643 149.91 342.284 149.91 341.867C149.91 341.175 150.202 340.589 150.785 340.109C151.373 339.63 152.123 339.391 153.035 339.391C153.993 339.391 154.769 339.638 155.363 340.133C155.962 340.628 156.261 341.26 156.261 342.031L154.808 342.031C154.808 341.635 154.639 341.294 154.3 341.008C153.967 340.721 153.545 340.578 153.035 340.578C152.509 340.578 152.097 340.693 151.8 340.922C151.504 341.151 151.355 341.451 151.355 341.82C151.355 342.169 151.493 342.432 151.769 342.609C152.045 342.786 152.543 342.956 153.261 343.117C153.985 343.279 154.571 343.471 155.019 343.695C155.467 343.919 155.798 344.19 156.011 344.508C156.23 344.82 156.34 345.203 156.34 345.656C156.34 346.411 156.037 347.018 155.433 347.477C154.829 347.93 154.045 348.156 153.082 348.156C152.405 348.156 151.806 348.036 151.285 347.797C150.764 347.557 150.355 347.224 150.058 346.797C149.767 346.365 149.621 345.898 149.621 345.398L151.066 345.398C151.092 345.883 151.285 346.268 151.644 346.555C152.009 346.836 152.488 346.977 153.082 346.977C153.629 346.977 154.066 346.867 154.394 346.648C154.728 346.425 154.894 346.128 154.894 345.758ZM158.933 348L158.933 340.664L157.597 340.664L157.597 339.547L158.933 339.547L158.933 338.68C158.933 337.773 159.175 337.073 159.66 336.578C160.144 336.083 160.829 335.836 161.715 335.836C162.048 335.836 162.379 335.88 162.707 335.969L162.629 337.141C162.384 337.094 162.123 337.07 161.847 337.07C161.379 337.07 161.017 337.208 160.761 337.484C160.506 337.755 160.379 338.146 160.379 338.656L160.379 339.547L162.183 339.547L162.183 340.664L160.379 340.664L160.379 348L158.933 348ZM167.105 348.156C165.959 348.156 165.027 347.781 164.308 347.031C163.59 346.276 163.23 345.268 163.23 344.008L163.23 343.742C163.23 342.904 163.389 342.156 163.707 341.5C164.03 340.839 164.478 340.323 165.05 339.953C165.629 339.578 166.254 339.391 166.925 339.391C168.024 339.391 168.879 339.753 169.488 340.477C170.097 341.201 170.402 342.237 170.402 343.586L170.402 344.188L164.675 344.188C164.696 345.021 164.938 345.695 165.402 346.211C165.871 346.721 166.465 346.977 167.183 346.977C167.694 346.977 168.126 346.872 168.48 346.664C168.834 346.456 169.144 346.18 169.41 345.836L170.293 346.523C169.584 347.612 168.522 348.156 167.105 348.156ZM166.925 340.578C166.342 340.578 165.853 340.792 165.457 341.219C165.061 341.641 164.816 342.234 164.722 343L168.957 343L168.957 342.891C168.915 342.156 168.717 341.589 168.363 341.188C168.009 340.781 167.53 340.578 166.925 340.578ZM176.168 340.844C175.949 340.807 175.712 340.789 175.457 340.789C174.509 340.789 173.866 341.193 173.527 342L173.527 348L172.082 348L172.082 339.547L173.488 339.547L173.511 340.523C173.985 339.768 174.657 339.391 175.527 339.391C175.808 339.391 176.022 339.427 176.168 339.5L176.168 340.844Z" fill="black"/>
<path d="M143.042 53.296C142.658 52.936 142.292 52.66 141.944 52.468C141.596 52.288 141.17 52.198 140.666 52.198C140.174 52.198 139.784 52.288 139.496 52.468C139.196 52.66 139.046 52.924 139.046 53.26C139.046 53.608 139.244 53.884 139.64 54.088C140.024 54.304 140.48 54.412 141.008 54.412C141.536 54.412 142.004 54.364 142.412 54.268C142.652 54.052 142.862 53.728 143.042 53.296ZM146.084 55.114C146.288 55.186 146.504 55.234 146.732 55.258C146.96 55.282 147.26 55.294 147.632 55.294C148.016 55.294 148.406 55.192 148.802 54.988C149.198 54.784 149.51 54.544 149.738 54.268C149.978 54.004 150.188 53.704 150.368 53.368C150.596 52.972 150.764 52.576 150.872 52.18L151.304 52.324C150.992 53.344 150.494 54.154 149.81 54.754C149.138 55.354 148.352 55.654 147.452 55.654C146.744 55.654 146.252 55.6 145.976 55.492C145.712 55.396 145.52 55.33 145.4 55.294C145.28 55.27 145.118 55.18 144.914 55.024C144.722 54.88 144.608 54.796 144.572 54.772C144.476 54.7 144.23 54.466 143.834 54.07C143.066 54.526 142.238 54.754 141.35 54.754C140.462 54.754 139.784 54.61 139.316 54.322C138.848 54.046 138.614 53.692 138.614 53.26C138.614 52.84 138.788 52.498 139.136 52.234C139.472 51.982 139.982 51.856 140.666 51.856C141.602 51.856 142.442 52.204 143.186 52.9C143.33 52.456 143.45 51.964 143.546 51.424L144.752 44.458C145.04 42.658 145.664 41.446 146.624 40.822C147.464 40.282 148.418 40.012 149.486 40.012C150.554 40.012 151.424 40.318 152.096 40.93C152.78 41.542 153.122 42.508 153.122 43.828L152.69 43.828C152.69 42.76 152.432 41.95 151.916 41.398C151.412 40.834 150.77 40.552 149.99 40.552C148.562 40.552 147.716 41.44 147.452 43.216C147.452 43.408 147.296 44.398 146.984 46.186C146.684 47.962 146.414 49.432 146.174 50.596C145.922 52 145.25 53.086 144.158 53.854C144.806 54.502 145.286 54.874 145.598 54.97C145.718 55.006 145.88 55.054 146.084 55.114ZM154.874 52.162C153.95 52.162 153.248 51.934 152.768 51.478C152.288 51.01 152.048 50.428 152.048 49.732C152.048 49.024 152.108 48.424 152.228 47.932C152.36 47.428 152.57 46.948 152.858 46.492C153.146 46.024 153.578 45.658 154.154 45.394C154.742 45.13 155.468 44.998 156.332 44.998C157.208 44.998 157.886 45.232 158.366 45.7C158.858 46.156 159.104 46.786 159.104 47.59C159.104 48.958 158.738 50.062 158.006 50.902C157.286 51.742 156.242 52.162 154.874 52.162ZM154.082 50.308C154.082 51.268 154.358 51.748 154.91 51.748C155.474 51.748 155.972 51.268 156.404 50.308C156.848 49.336 157.07 48.184 157.07 46.852C157.07 45.844 156.794 45.34 156.242 45.34C155.702 45.34 155.204 45.802 154.748 46.726C154.304 47.638 154.082 48.832 154.082 50.308ZM164.71 47.23C164.458 46.978 164.332 46.672 164.332 46.312C164.332 45.952 164.458 45.646 164.71 45.394C164.962 45.13 165.244 44.998 165.556 44.998C165.88 44.998 166.15 45.082 166.366 45.25C166.594 45.406 166.756 45.61 166.852 45.862C166.864 45.874 166.87 45.886 166.87 45.898L166.87 45.916C167.014 46.228 167.086 46.684 167.086 47.284C167.086 47.872 167.014 48.412 166.87 48.904C166.738 49.396 166.528 49.9 166.24 50.416C165.964 50.92 165.556 51.34 165.016 51.676C164.476 52 163.84 52.162 163.108 52.162C162.376 52.162 161.764 51.922 161.272 51.442C160.792 50.962 160.552 50.41 160.552 49.786C160.552 49.162 160.66 48.394 160.876 47.482C161.104 46.558 161.23 45.85 161.254 45.358C161.062 45.37 160.876 45.442 160.696 45.574C160.516 45.694 160.384 45.814 160.3 45.934L160.174 46.114L159.904 45.898C159.94 45.826 159.994 45.742 160.066 45.646C160.138 45.55 160.318 45.418 160.606 45.25C160.906 45.082 161.278 44.998 161.722 44.998C162.166 44.998 162.52 45.142 162.784 45.43C163.06 45.718 163.198 46.084 163.198 46.528C163.198 46.972 163.078 47.662 162.838 48.598C162.598 49.522 162.478 50.176 162.478 50.56C162.478 50.932 162.562 51.226 162.73 51.442C162.91 51.658 163.162 51.766 163.486 51.766C164.29 51.766 165.022 51.328 165.682 50.452C166.342 49.576 166.672 48.598 166.672 47.518C166.672 47.434 166.66 47.308 166.636 47.14C166.384 47.452 166.06 47.608 165.664 47.608C165.28 47.608 164.962 47.482 164.71 47.23ZM171.827 44.998C173.351 44.998 174.113 45.604 174.113 46.816C174.113 47.572 173.753 48.148 173.033 48.544C172.325 48.928 171.311 49.126 169.991 49.138C169.967 49.57 169.955 49.912 169.955 50.164C169.955 50.704 170.075 51.106 170.315 51.37C170.567 51.622 170.879 51.748 171.251 51.748C171.623 51.748 171.959 51.676 172.259 51.532C172.571 51.388 172.817 51.22 172.997 51.028C173.177 50.824 173.333 50.614 173.465 50.398C173.705 50.002 173.825 49.75 173.825 49.642L174.149 49.786C174.113 49.978 174.005 50.236 173.825 50.56C173.645 50.872 173.447 51.13 173.231 51.334C173.015 51.538 172.697 51.73 172.277 51.91C171.857 52.078 171.389 52.162 170.873 52.162C169.901 52.162 169.163 51.934 168.659 51.478C168.167 51.01 167.921 50.374 167.921 49.57C167.921 48.142 168.275 47.026 168.983 46.222C169.691 45.406 170.639 44.998 171.827 44.998ZM173.663 46.816C173.663 46.42 173.543 46.096 173.303 45.844C173.075 45.58 172.727 45.448 172.259 45.448C171.803 45.448 171.353 45.724 170.909 46.276C170.477 46.828 170.189 47.644 170.045 48.724C172.457 48.712 173.663 48.076 173.663 46.816ZM178.387 51.352C178.231 51.556 178.015 51.742 177.739 51.91C177.475 52.078 177.127 52.162 176.695 52.162C176.263 52.162 175.897 52.024 175.597 51.748C175.297 51.472 175.147 51.082 175.147 50.578C175.147 50.482 175.159 50.326 175.183 50.11L176.353 43.63C176.569 42.442 176.863 41.596 177.235 41.092C177.619 40.588 178.123 40.336 178.747 40.336C179.179 40.336 179.533 40.498 179.809 40.822C180.097 41.146 180.241 41.638 180.241 42.298C180.241 42.958 179.983 43.9 179.467 45.124C178.963 46.348 178.711 47.242 178.711 47.806L178.387 47.806C178.387 47.17 178.639 46.264 179.143 45.088C179.647 43.9 179.899 42.952 179.899 42.244C179.899 41.812 179.797 41.44 179.593 41.128C179.401 40.816 179.161 40.66 178.873 40.66C178.861 40.972 178.651 42.376 178.243 44.872C177.847 47.356 177.451 49.666 177.055 51.802C177.391 51.802 177.703 51.628 177.991 51.28C178.279 50.932 178.483 50.584 178.603 50.236L178.801 49.696L179.125 49.84C179.089 50.008 178.993 50.254 178.837 50.578C178.693 50.89 178.543 51.148 178.387 51.352ZM181.219 45.358C180.931 45.358 180.631 45.526 180.319 45.862L180.049 45.646C180.133 45.478 180.319 45.328 180.607 45.196C180.895 45.064 181.213 44.998 181.561 44.998C182.653 44.998 183.199 45.49 183.199 46.474C183.199 46.894 183.085 47.584 182.857 48.544C182.629 49.492 182.515 50.134 182.515 50.47C182.515 51.046 182.755 51.334 183.235 51.334C183.631 51.334 184.015 51.064 184.387 50.524C184.771 49.984 185.083 49.258 185.323 48.346L185.917 45.16C186.805 45.16 187.453 45.124 187.861 45.052L188.095 44.998L186.961 51.37C186.745 52.606 186.241 53.572 185.449 54.268C184.669 54.964 183.655 55.312 182.407 55.312C181.651 55.312 181.063 55.18 180.643 54.916C180.235 54.664 180.031 54.328 180.031 53.908C180.031 53.5 180.157 53.17 180.409 52.918C180.661 52.678 181.015 52.558 181.471 52.558C181.939 52.558 182.371 52.63 182.767 52.774C183.163 52.93 183.451 53.02 183.631 53.044L183.595 53.368C183.391 53.344 183.097 53.26 182.713 53.116C182.329 52.972 181.945 52.9 181.561 52.9C181.189 52.9 180.901 52.984 180.697 53.152C180.505 53.32 180.409 53.56 180.409 53.872C180.409 54.196 180.583 54.454 180.931 54.646C181.279 54.85 181.711 54.952 182.227 54.952C183.475 54.952 184.243 54.202 184.531 52.702L184.981 50.218C184.477 51.322 183.715 51.874 182.695 51.874C181.999 51.874 181.459 51.676 181.075 51.28C180.703 50.884 180.517 50.326 180.517 49.606C180.517 49.234 180.625 48.568 180.841 47.608C181.069 46.636 181.195 45.886 181.219 45.358ZM143.78 70.552C143.78 72.352 144.362 73.54 145.526 74.116C145.814 74.152 146.192 74.17 146.66 74.17C147.14 74.17 147.644 74.08 148.172 73.9C148.7 73.72 149.108 73.498 149.396 73.234C150.008 72.67 150.392 72.184 150.548 71.776L150.638 71.506L150.998 71.65C150.914 71.926 150.752 72.244 150.512 72.604C150.272 72.964 149.996 73.27 149.684 73.522C149.384 73.774 148.94 74.002 148.352 74.206C147.776 74.422 147.134 74.53 146.426 74.53C144.914 74.53 143.738 74.092 142.898 73.216C142.07 72.34 141.656 71.104 141.656 69.508C141.656 67.336 142.358 65.548 143.762 64.144C145.166 62.74 147.008 62.038 149.288 62.038C150.344 62.038 151.106 62.23 151.574 62.614C152.042 62.986 152.276 63.574 152.276 64.378C152.276 64.918 152.012 65.584 151.484 66.376C151.004 67.144 150.764 67.744 150.764 68.176L150.368 68.176C150.368 67.936 150.416 67.678 150.512 67.402C150.608 67.126 150.692 66.928 150.764 66.808C150.836 66.688 150.968 66.472 151.16 66.16C151.628 65.452 151.862 64.87 151.862 64.414C151.862 63.454 151.466 62.848 150.674 62.596C150.302 62.476 149.912 62.416 149.504 62.416C149.096 62.416 148.664 62.44 148.208 62.488C147.788 62.62 147.386 62.794 147.002 63.01C146.63 63.214 146.24 63.532 145.832 63.964C145.424 64.384 145.076 64.876 144.788 65.44C144.5 66.004 144.26 66.73 144.068 67.618C143.876 68.494 143.78 69.472 143.78 70.552ZM159 73.162C157.944 73.162 157.368 72.7 157.272 71.776C156.744 72.7 156.078 73.162 155.274 73.162C154.47 73.162 153.828 72.922 153.348 72.442C152.88 71.95 152.646 71.266 152.646 70.39C152.646 69.022 152.982 67.948 153.654 67.168C154.326 66.388 155.196 65.998 156.264 65.998C157.14 65.998 157.722 66.412 158.01 67.24C158.07 66.88 158.136 66.52 158.208 66.16C159.096 66.16 159.756 66.124 160.188 66.052L160.422 65.998L159.18 72.802C159.54 72.766 159.84 72.598 160.08 72.298L160.35 72.514C159.99 72.946 159.54 73.162 159 73.162ZM154.68 71.308C154.68 71.848 154.746 72.226 154.878 72.442C155.022 72.646 155.238 72.748 155.526 72.748C155.814 72.748 156.108 72.592 156.408 72.28C156.804 71.872 157.122 71.356 157.362 70.732C157.398 70.576 157.464 70.204 157.56 69.616C157.668 69.016 157.758 68.524 157.83 68.14C157.794 67.684 157.668 67.288 157.452 66.952C157.236 66.616 156.966 66.448 156.642 66.448C156.054 66.448 155.58 66.976 155.22 68.032C154.86 69.076 154.68 70.168 154.68 71.308ZM162.481 66.16L162.967 63.496C163.855 63.496 164.515 63.46 164.947 63.388L165.181 63.334C165.013 64.174 164.827 65.116 164.623 66.16L166.855 66.16L166.819 66.484L164.569 66.484C163.969 69.58 163.669 71.446 163.669 72.082C163.669 72.466 163.873 72.658 164.281 72.658C164.689 72.658 165.061 72.4 165.397 71.884C165.733 71.368 165.973 70.81 166.117 70.21L166.441 70.318C165.997 72.214 165.079 73.162 163.687 73.162C163.111 73.162 162.631 73.006 162.247 72.694C161.863 72.37 161.671 71.926 161.671 71.362C161.671 70.786 161.917 69.16 162.409 66.484L161.527 66.484L161.563 66.16L162.481 66.16ZM173.916 72.802C174.204 72.802 174.504 72.634 174.816 72.298L175.086 72.514C175.002 72.682 174.816 72.832 174.528 72.964C174.24 73.096 173.922 73.162 173.574 73.162C172.482 73.162 171.936 72.67 171.936 71.686C171.936 71.266 172.044 70.516 172.26 69.436C172.476 68.356 172.584 67.648 172.584 67.312C172.584 66.796 172.338 66.538 171.846 66.538C171.438 66.538 171.042 66.814 170.658 67.366C170.286 67.918 169.98 68.668 169.74 69.616L169.146 73L166.986 73L168.984 61.696C168.624 61.732 168.324 61.9 168.084 62.2L167.814 61.984C168.174 61.552 168.624 61.336 169.164 61.336C169.716 61.336 170.142 61.474 170.442 61.75C170.742 62.026 170.892 62.416 170.892 62.92C170.892 63.016 170.88 63.172 170.856 63.388L170.1 67.654C170.592 66.55 171.354 65.998 172.386 65.998C173.094 65.998 173.646 66.202 174.042 66.61C174.438 67.006 174.636 67.558 174.636 68.266C174.636 68.638 174.522 69.358 174.294 70.426C174.066 71.482 173.94 72.274 173.916 72.802ZM179.825 65.998C181.349 65.998 182.111 66.604 182.111 67.816C182.111 68.572 181.751 69.148 181.031 69.544C180.323 69.928 179.309 70.126 177.989 70.138C177.965 70.57 177.953 70.912 177.953 71.164C177.953 71.704 178.073 72.106 178.313 72.37C178.565 72.622 178.877 72.748 179.249 72.748C179.621 72.748 179.957 72.676 180.257 72.532C180.569 72.388 180.815 72.22 180.995 72.028C181.175 71.824 181.331 71.614 181.463 71.398C181.703 71.002 181.823 70.75 181.823 70.642L182.147 70.786C182.111 70.978 182.003 71.236 181.823 71.56C181.643 71.872 181.445 72.13 181.229 72.334C181.013 72.538 180.695 72.73 180.275 72.91C179.855 73.078 179.387 73.162 178.871 73.162C177.899 73.162 177.161 72.934 176.657 72.478C176.165 72.01 175.919 71.374 175.919 70.57C175.919 69.142 176.273 68.026 176.981 67.222C177.689 66.406 178.637 65.998 179.825 65.998ZM181.661 67.816C181.661 67.42 181.541 67.096 181.301 66.844C181.073 66.58 180.725 66.448 180.257 66.448C179.801 66.448 179.351 66.724 178.907 67.276C178.475 67.828 178.187 68.644 178.043 69.724C180.455 69.712 181.661 69.076 181.661 67.816ZM183.199 66.646C183.559 66.214 184.009 65.998 184.549 65.998C185.101 65.998 185.527 66.136 185.827 66.412C186.127 66.688 186.277 67.078 186.277 67.582L186.277 67.69C186.817 66.562 187.519 65.998 188.383 65.998C189.307 65.998 189.769 66.478 189.769 67.438C189.769 67.834 189.637 68.254 189.373 68.698C189.109 69.142 188.845 69.568 188.581 69.976C188.317 70.372 188.185 70.726 188.185 71.038L187.753 71.038C187.753 70.594 188.011 69.994 188.527 69.238C189.043 68.482 189.301 67.9 189.301 67.492C189.301 67.072 189.217 66.79 189.049 66.646C188.893 66.49 188.653 66.412 188.329 66.412C188.017 66.412 187.705 66.55 187.393 66.826C187.093 67.102 186.841 67.45 186.637 67.87C186.313 68.494 186.097 69.004 185.989 69.4L185.989 69.418L185.341 73L183.181 73L184.369 66.358C184.009 66.394 183.709 66.562 183.469 66.862L183.199 66.646ZM193.47 72.514C193.11 72.946 192.66 73.162 192.12 73.162C191.58 73.162 191.154 73.024 190.842 72.748C190.542 72.472 190.392 72.112 190.392 71.668C190.392 71.512 190.488 70.858 190.68 69.706L191.274 66.484L190.518 66.484L190.554 66.16L191.328 66.16C192.216 66.16 192.87 66.124 193.29 66.052L193.542 65.998L192.3 72.802C192.66 72.766 192.96 72.598 193.2 72.298L193.47 72.514ZM191.886 64.27C191.634 64.018 191.508 63.712 191.508 63.352C191.508 62.992 191.634 62.686 191.886 62.434C192.138 62.17 192.444 62.038 192.804 62.038C193.164 62.038 193.47 62.17 193.722 62.434C193.986 62.686 194.118 62.992 194.118 63.352C194.118 63.712 193.986 64.018 193.722 64.27C193.47 64.522 193.164 64.648 192.804 64.648C192.444 64.648 192.138 64.522 191.886 64.27ZM201.466 72.802C201.754 72.802 202.054 72.634 202.366 72.298L202.636 72.514C202.552 72.682 202.366 72.832 202.078 72.964C201.79 73.096 201.472 73.162 201.124 73.162C200.032 73.162 199.486 72.67 199.486 71.686C199.486 71.266 199.594 70.516 199.81 69.436C200.026 68.356 200.134 67.648 200.134 67.312C200.134 66.796 199.888 66.538 199.396 66.538C199 66.538 198.616 66.796 198.244 67.312C197.884 67.828 197.584 68.536 197.344 69.436L196.732 72.802C197.104 72.766 197.41 72.598 197.65 72.298L197.92 72.514C197.56 72.946 197.11 73.162 196.57 73.162C196.03 73.162 195.604 73.024 195.292 72.748C194.992 72.472 194.842 72.112 194.842 71.668C194.842 71.5 194.938 70.84 195.13 69.688L195.724 66.358C195.364 66.394 195.064 66.562 194.824 66.862L194.554 66.646C194.914 66.214 195.364 65.998 195.904 65.998C196.456 65.998 196.882 66.136 197.182 66.412C197.482 66.688 197.632 67.078 197.632 67.582L197.632 67.69C198.124 66.562 198.892 65.998 199.936 65.998C200.644 65.998 201.196 66.202 201.592 66.61C201.988 67.006 202.186 67.558 202.186 68.266C202.186 68.638 202.072 69.358 201.844 70.426C201.616 71.482 201.49 72.274 201.466 72.802ZM209.404 74.962C209.836 74.962 210.208 74.794 210.52 74.458L210.772 74.674C210.484 75.082 210.028 75.286 209.404 75.286C209.14 75.286 208.87 75.256 208.594 75.196C207.778 75.94 206.734 76.312 205.462 76.312C204.706 76.312 204.118 76.18 203.698 75.916C203.29 75.664 203.086 75.328 203.086 74.908C203.086 74.5 203.212 74.17 203.464 73.918C203.728 73.678 204.19 73.558 204.85 73.558C205.51 73.558 206.38 73.828 207.46 74.368L208.018 71.38C207.478 72.376 206.782 72.874 205.93 72.874C204.298 72.874 203.482 72.07 203.482 70.462C203.482 69.118 203.818 68.038 204.49 67.222C205.174 66.406 206.044 65.998 207.1 65.998C207.712 65.998 208.186 66.184 208.522 66.556C208.618 66.664 208.714 66.826 208.81 67.042L208.972 66.16C209.86 66.16 210.508 66.124 210.916 66.052L211.15 65.998L209.962 72.64C209.782 73.576 209.422 74.332 208.882 74.908C209.038 74.944 209.212 74.962 209.404 74.962ZM205.516 71.02C205.516 71.572 205.57 71.944 205.678 72.136C205.786 72.316 205.99 72.406 206.29 72.406C206.59 72.406 206.896 72.244 207.208 71.92C207.52 71.596 207.742 71.296 207.874 71.02C208.018 70.732 208.138 70.456 208.234 70.192L208.612 68.122L208.612 67.996C208.612 66.892 208.108 66.34 207.1 66.34C206.716 66.34 206.356 66.862 206.02 67.906C205.684 68.95 205.516 69.988 205.516 71.02ZM205.39 75.952C206.35 75.952 206.998 75.538 207.334 74.71L207.082 74.584C206.938 74.512 206.848 74.464 206.812 74.44C206.788 74.428 206.71 74.392 206.578 74.332C206.446 74.272 206.35 74.23 206.29 74.206C206.23 74.194 206.134 74.164 206.002 74.116C205.882 74.068 205.78 74.032 205.696 74.008C205.612 73.996 205.516 73.978 205.408 73.954C205.228 73.918 204.964 73.9 204.616 73.9C204.268 73.9 203.986 73.984 203.77 74.152C203.566 74.32 203.464 74.566 203.464 74.89C203.464 75.214 203.638 75.472 203.986 75.664C204.334 75.856 204.802 75.952 205.39 75.952Z" fill="black"/>
<path d="M48.9233 70.3423C48.9233 71.1086 48.7944 71.7782 48.5366 72.3511C48.2788 72.9204 47.9136 73.3555 47.4409 73.6563C46.9683 73.957 46.4168 74.1074 45.7866 74.1074C45.1707 74.1074 44.6247 73.957 44.1484 73.6563C43.6722 73.3519 43.3016 72.9204 43.0366 72.3618C42.7752 71.7996 42.641 71.1497 42.6338 70.4121L42.6338 69.8481C42.6338 69.0962 42.7645 68.432 43.0259 67.8555C43.2873 67.279 43.6561 66.8385 44.1323 66.5342C44.6121 66.2262 45.16 66.0723 45.7759 66.0723C46.4025 66.0723 46.9539 66.2244 47.4302 66.5288C47.91 66.8296 48.2788 67.2682 48.5366 67.8447C48.7944 68.4176 48.9233 69.0854 48.9233 69.8481L48.9233 70.3423ZM47.8975 69.8374C47.8975 68.91 47.7113 68.1992 47.3389 67.7051C46.9665 67.2074 46.4455 66.9585 45.7759 66.9585C45.1242 66.9585 44.6104 67.2074 44.2344 67.7051C43.862 68.1992 43.6704 68.8867 43.6597 69.7676L43.6597 70.3423C43.6597 71.241 43.8477 71.9482 44.2236 72.4639C44.6032 72.9759 45.1242 73.2319 45.7866 73.2319C46.4526 73.2319 46.9683 72.9902 47.3335 72.5068C47.6987 72.0199 47.8867 71.3234 47.8975 70.4175L47.8975 69.8374ZM53.1235 69.0801C52.9731 69.055 52.8102 69.0425 52.6348 69.0425C51.9831 69.0425 51.5409 69.32 51.3081 69.875L51.3081 74L50.3145 74L50.3145 68.1885L51.2812 68.1885L51.2974 68.8599C51.6232 68.3407 52.0851 68.0811 52.6831 68.0811C52.8765 68.0811 53.0233 68.1061 53.1235 68.1563L53.1235 69.0801ZM53.6929 71.0459C53.6929 70.1543 53.9041 69.4382 54.3267 68.8975C54.7492 68.3532 55.3024 68.0811 55.9863 68.0811C56.6667 68.0811 57.2056 68.3138 57.603 68.7793L57.603 65.75L58.5967 65.75L58.5967 74L57.6836 74L57.6353 73.377C57.2378 73.8639 56.6846 74.1074 55.9756 74.1074C55.3024 74.1074 54.7528 73.8317 54.3267 73.2803C53.9041 72.7288 53.6929 72.0091 53.6929 71.1211L53.6929 71.0459ZM54.6865 71.1587C54.6865 71.8175 54.8226 72.3332 55.0947 72.7056C55.3669 73.078 55.7428 73.2642 56.2227 73.2642C56.8529 73.2642 57.313 72.9813 57.603 72.4155L57.603 69.7461C57.3058 69.1982 56.8493 68.9243 56.2334 68.9243C55.7464 68.9243 55.3669 69.1123 55.0947 69.4883C54.8226 69.8643 54.6865 70.4211 54.6865 71.1587ZM62.5552 74.1074C61.7674 74.1074 61.1265 73.8496 60.6323 73.334C60.1382 72.8148 59.8911 72.1219 59.8911 71.2554L59.8911 71.0728C59.8911 70.4963 60.0003 69.9824 60.2187 69.5313C60.4408 69.0765 60.7487 68.722 61.1426 68.4678C61.54 68.21 61.9697 68.0811 62.4316 68.0811C63.1872 68.0811 63.7744 68.3299 64.1934 68.8276C64.6123 69.3254 64.8218 70.0379 64.8218 70.9653L64.8218 71.3789L60.8848 71.3789C60.8991 71.9518 61.0656 72.4155 61.3843 72.77C61.7065 73.1209 62.1147 73.2964 62.6089 73.2964C62.9598 73.2964 63.257 73.2248 63.5005 73.0815C63.744 72.9383 63.957 72.7485 64.1396 72.5122L64.7466 72.9849C64.2596 73.7332 63.5291 74.1074 62.5552 74.1074ZM62.4316 68.8975C62.0306 68.8975 61.694 69.0443 61.4219 69.3379C61.1497 69.6279 60.9814 70.0361 60.917 70.5625L63.8281 70.5625L63.8281 70.4873C63.7995 69.9824 63.6634 69.5921 63.4199 69.3164C63.1764 69.0371 62.847 68.8975 62.4316 68.8975ZM68.7856 69.0801C68.6353 69.055 68.4723 69.0425 68.2969 69.0425C67.6452 69.0425 67.203 69.32 66.9702 69.875L66.9702 74L65.9766 74L65.9766 68.1885L66.9434 68.1885L66.9595 68.8599C67.2853 68.3407 67.7472 68.0811 68.3452 68.0811C68.5386 68.0811 68.6854 68.1061 68.7856 68.1563L68.7856 69.0801ZM73.6948 74L72.6636 74L72.6636 66.1797L73.6948 66.1797L73.6948 74ZM75.5854 74L75.5854 66.1797L77.793 66.1797C78.4733 66.1797 79.0749 66.3301 79.5977 66.6309C80.1204 66.9316 80.5233 67.3595 80.8062 67.9146C81.0926 68.4696 81.2376 69.1069 81.2412 69.8267L81.2412 70.3262C81.2412 71.0638 81.098 71.7101 80.8115 72.2651C80.5286 72.8201 80.1222 73.2463 79.5923 73.5435C79.0659 73.8407 78.4518 73.9928 77.75 74L75.5854 74ZM76.6167 67.0283L76.6167 73.1567L77.7017 73.1567C78.4966 73.1567 79.1143 72.9097 79.5547 72.4155C79.9987 71.9214 80.2207 71.2178 80.2207 70.3047L80.2207 69.8481C80.2207 68.9601 80.0112 68.2708 79.5923 67.7803C79.1769 67.2861 78.5861 67.0355 77.8198 67.0283L76.6167 67.0283ZM85.3447 73.479C85.3447 73.3071 85.3949 73.1639 85.4951 73.0493C85.599 72.9347 85.7529 72.8774 85.957 72.8774C86.1611 72.8774 86.3151 72.9347 86.4189 73.0493C86.5264 73.1639 86.5801 73.3071 86.5801 73.479C86.5801 73.6437 86.5264 73.7816 86.4189 73.8926C86.3151 74.0036 86.1611 74.0591 85.957 74.0591C85.7529 74.0591 85.599 74.0036 85.4951 73.8926C85.3949 73.7816 85.3447 73.6437 85.3447 73.479ZM85.3501 68.7363C85.3501 68.5645 85.4002 68.4212 85.5005 68.3066C85.6043 68.1921 85.7583 68.1348 85.9624 68.1348C86.1665 68.1348 86.3205 68.1921 86.4243 68.3066C86.5317 68.4212 86.5854 68.5645 86.5854 68.7363C86.5854 68.901 86.5317 69.0389 86.4243 69.1499C86.3205 69.2609 86.1665 69.3164 85.9624 69.3164C85.7583 69.3164 85.6043 69.2609 85.5005 69.1499C85.4002 69.0389 85.3501 68.901 85.3501 68.7363ZM96.9409 70.3423C96.9409 71.1086 96.812 71.7782 96.5542 72.3511C96.2964 72.9204 95.9312 73.3555 95.4585 73.6563C94.9858 73.957 94.4344 74.1074 93.8042 74.1074C93.1883 74.1074 92.6423 73.957 92.166 73.6563C91.6898 73.3519 91.3192 72.9204 91.0542 72.3618C90.7928 71.7996 90.6585 71.1497 90.6514 70.4121L90.6514 69.8481C90.6514 69.0962 90.7821 68.432 91.0435 67.8555C91.3049 67.279 91.6737 66.8385 92.1499 66.5342C92.6297 66.2262 93.1776 66.0723 93.7935 66.0723C94.4201 66.0723 94.9715 66.2244 95.4478 66.5288C95.9276 66.8296 96.2964 67.2682 96.5542 67.8447C96.812 68.4176 96.9409 69.0854 96.9409 69.8481L96.9409 70.3423ZM95.915 69.8374C95.915 68.91 95.7288 68.1992 95.3564 67.7051C94.984 67.2074 94.4631 66.9585 93.7935 66.9585C93.1418 66.9585 92.6279 67.2074 92.252 67.7051C91.8796 68.1992 91.688 68.8867 91.6772 69.7676L91.6772 70.3423C91.6772 71.241 91.8652 71.9482 92.2412 72.4639C92.6208 72.9759 93.1418 73.2319 93.8042 73.2319C94.4702 73.2319 94.9858 72.9902 95.3511 72.5068C95.7163 72.0199 95.9043 71.3234 95.915 70.4175L95.915 69.8374ZM101.356 70.8364L99.519 70.8364L99.519 74L98.4824 74L98.4824 66.1797L101.071 66.1797C101.952 66.1797 102.629 66.3802 103.102 66.7813C103.578 67.1823 103.816 67.766 103.816 68.5322C103.816 69.0192 103.683 69.4435 103.418 69.8052C103.157 70.1668 102.792 70.4372 102.323 70.6162L104.16 73.9355L104.16 74L103.053 74L101.356 70.8364ZM99.519 69.9932L101.104 69.9932C101.616 69.9932 102.022 69.8607 102.323 69.5957C102.627 69.3307 102.779 68.9762 102.779 68.5322C102.779 68.0488 102.634 67.6782 102.344 67.4204C102.058 67.1626 101.642 67.0319 101.098 67.0283L99.519 67.0283L99.519 69.9932ZM109.912 70.6646C109.912 71.8283 109.713 72.693 109.316 73.2588C108.918 73.8245 108.297 74.1074 107.452 74.1074C106.618 74.1074 106 73.8317 105.599 73.2803C105.198 72.7253 104.99 71.8981 104.976 70.7988L104.976 69.4722C104.976 68.3228 105.175 67.4688 105.572 66.9102C105.97 66.3516 106.593 66.0723 107.441 66.0723C108.283 66.0723 108.902 66.3426 109.3 66.8833C109.697 67.4204 109.901 68.2511 109.912 69.3755L109.912 70.6646ZM108.918 69.3057C108.918 68.4642 108.8 67.8519 108.564 67.4688C108.328 67.082 107.953 66.8887 107.441 66.8887C106.933 66.8887 106.562 67.0802 106.33 67.4634C106.097 67.8465 105.977 68.4355 105.97 69.2305L105.97 70.8203C105.97 71.6654 106.091 72.2902 106.335 72.6948C106.582 73.0959 106.954 73.2964 107.452 73.2964C107.943 73.2964 108.306 73.1066 108.542 72.7271C108.782 72.3475 108.908 71.7495 108.918 70.9331L108.918 69.3057ZM116.089 70.6646C116.089 71.8283 115.89 72.693 115.493 73.2588C115.095 73.8245 114.474 74.1074 113.629 74.1074C112.795 74.1074 112.177 73.8317 111.776 73.2803C111.375 72.7253 111.167 71.8981 111.153 70.7988L111.153 69.4722C111.153 68.3228 111.352 67.4688 111.749 66.9102C112.146 66.3516 112.77 66.0723 113.618 66.0723C114.46 66.0723 115.079 66.3426 115.477 66.8833C115.874 67.4204 116.078 68.2511 116.089 69.3755L116.089 70.6646ZM115.095 69.3057C115.095 68.4642 114.977 67.8519 114.741 67.4688C114.504 67.082 114.13 66.8887 113.618 66.8887C113.11 66.8887 112.739 67.0802 112.506 67.4634C112.274 67.8465 112.154 68.4355 112.146 69.2305L112.146 70.8203C112.146 71.6654 112.268 72.2902 112.512 72.6948C112.759 73.0959 113.131 73.2964 113.629 73.2964C114.119 73.2964 114.483 73.1066 114.719 72.7271C114.959 72.3475 115.084 71.7495 115.095 70.9331L115.095 69.3057ZM120.627 74L119.628 74L119.628 67.3774L117.625 68.1133L117.625 67.2109L120.472 66.1421L120.627 66.1421L120.627 74Z" fill="black"/>
<path d="M55.9834 135L54.7119 135L54.7119 126.571L52.1621 127.508L52.1621 126.359L55.7852 124.999L55.9834 124.999L55.9834 135ZM65.9297 130.755C65.9297 132.236 65.6768 133.337 65.1709 134.057C64.665 134.777 63.8743 135.137 62.7988 135.137C61.737 135.137 60.9508 134.786 60.4404 134.084C59.93 133.378 59.6657 132.325 59.6475 130.926L59.6475 129.237C59.6475 127.774 59.9004 126.688 60.4062 125.977C60.9121 125.266 61.7051 124.91 62.7852 124.91C63.8561 124.91 64.6445 125.254 65.1504 125.942C65.6562 126.626 65.916 127.683 65.9297 129.114L65.9297 130.755ZM64.665 129.025C64.665 127.954 64.5146 127.175 64.2139 126.688C63.9131 126.195 63.4368 125.949 62.7852 125.949C62.138 125.949 61.6663 126.193 61.3701 126.681C61.0739 127.168 60.9212 127.918 60.9121 128.93L60.9121 130.953C60.9121 132.029 61.0671 132.824 61.377 133.339C61.6914 133.849 62.1654 134.104 62.7988 134.104C63.4232 134.104 63.8857 133.863 64.1865 133.38C64.4919 132.897 64.6514 132.136 64.665 131.097L64.665 129.025ZM67.9326 135.854L66.8457 135.854L71.002 125.047L72.082 125.047L67.9326 135.854ZM79.5605 130.755C79.5605 132.236 79.3076 133.337 78.8018 134.057C78.2959 134.777 77.5052 135.137 76.4297 135.137C75.3678 135.137 74.5817 134.786 74.0713 134.084C73.5609 133.378 73.2965 132.325 73.2783 130.926L73.2783 129.237C73.2783 127.774 73.5312 126.688 74.0371 125.977C74.543 125.266 75.3359 124.91 76.416 124.91C77.487 124.91 78.2754 125.254 78.7812 125.942C79.2871 126.626 79.5469 127.683 79.5605 129.114L79.5605 130.755ZM78.2959 129.025C78.2959 127.954 78.1455 127.175 77.8447 126.688C77.5439 126.195 77.0677 125.949 76.416 125.949C75.7689 125.949 75.2972 126.193 75.001 126.681C74.7048 127.168 74.5521 127.918 74.543 128.93L74.543 130.953C74.543 132.029 74.6979 132.824 75.0078 133.339C75.3223 133.849 75.7962 134.104 76.4297 134.104C77.054 134.104 77.5166 133.863 77.8174 133.38C78.1227 132.897 78.2822 132.136 78.2959 131.097L78.2959 129.025ZM86.1436 125.04L86.1436 126.113L85.9111 126.113C84.9268 126.132 84.1429 126.423 83.5596 126.988C82.9762 127.553 82.639 128.349 82.5479 129.374C83.0719 128.772 83.7874 128.472 84.6943 128.472C85.5602 128.472 86.2507 128.777 86.7656 129.388C87.2852 129.998 87.5449 130.787 87.5449 131.753C87.5449 132.778 87.2646 133.599 86.7041 134.214C86.1481 134.829 85.4007 135.137 84.4619 135.137C83.5094 135.137 82.737 134.772 82.1445 134.043C81.5521 133.309 81.2559 132.366 81.2559 131.213L81.2559 130.728C81.2559 128.896 81.6455 127.496 82.4248 126.53C83.2087 125.56 84.373 125.063 85.918 125.04L86.1436 125.04ZM84.4824 129.524C84.0495 129.524 83.6507 129.654 83.2861 129.914C82.9215 130.174 82.6686 130.5 82.5273 130.892L82.5273 131.356C82.5273 132.177 82.7119 132.838 83.0811 133.339C83.4502 133.84 83.9105 134.091 84.4619 134.091C85.0316 134.091 85.4782 133.881 85.8018 133.462C86.1299 133.043 86.2939 132.493 86.2939 131.814C86.2939 131.131 86.1276 130.579 85.7949 130.16C85.4668 129.736 85.0293 129.524 84.4824 129.524ZM89.4248 135.854L88.3379 135.854L92.4941 125.047L93.5742 125.047L89.4248 135.854ZM101.333 135L94.8115 135L94.8115 134.091L98.2568 130.263C98.7673 129.684 99.1182 129.215 99.3096 128.854C99.5055 128.49 99.6035 128.114 99.6035 127.727C99.6035 127.207 99.4463 126.781 99.1318 126.448C98.8174 126.116 98.3981 125.949 97.874 125.949C97.2451 125.949 96.7552 126.129 96.4043 126.489C96.0579 126.845 95.8848 127.341 95.8848 127.979L94.6201 127.979C94.6201 127.063 94.9141 126.323 95.502 125.758C96.0944 125.193 96.8851 124.91 97.874 124.91C98.7992 124.91 99.5306 125.154 100.068 125.642C100.606 126.125 100.875 126.77 100.875 127.576C100.875 128.556 100.251 129.723 99.002 131.076L96.3359 133.968L101.333 133.968L101.333 135ZM108.914 130.755C108.914 132.236 108.661 133.337 108.155 134.057C107.649 134.777 106.859 135.137 105.783 135.137C104.721 135.137 103.935 134.786 103.425 134.084C102.914 133.378 102.65 132.325 102.632 130.926L102.632 129.237C102.632 127.774 102.885 126.688 103.391 125.977C103.896 125.266 104.689 124.91 105.77 124.91C106.84 124.91 107.629 125.254 108.135 125.942C108.641 126.626 108.9 127.683 108.914 129.114L108.914 130.755ZM107.649 129.025C107.649 127.954 107.499 127.175 107.198 126.688C106.897 126.195 106.421 125.949 105.77 125.949C105.122 125.949 104.651 126.193 104.354 126.681C104.058 127.168 103.906 127.918 103.896 128.93L103.896 130.953C103.896 132.029 104.051 132.824 104.361 133.339C104.676 133.849 105.15 134.104 105.783 134.104C106.408 134.104 106.87 133.863 107.171 133.38C107.476 132.897 107.636 132.136 107.649 131.097L107.649 129.025ZM117.056 135L110.534 135L110.534 134.091L113.979 130.263C114.49 129.684 114.841 129.215 115.032 128.854C115.228 128.49 115.326 128.114 115.326 127.727C115.326 127.207 115.169 126.781 114.854 126.448C114.54 126.116 114.121 125.949 113.597 125.949C112.968 125.949 112.478 126.129 112.127 126.489C111.781 126.845 111.607 127.341 111.607 127.979L110.343 127.979C110.343 127.063 110.637 126.323 111.225 125.758C111.817 125.193 112.608 124.91 113.597 124.91C114.522 124.91 115.253 125.154 115.791 125.642C116.329 126.125 116.598 126.77 116.598 127.576C116.598 128.556 115.973 129.723 114.725 131.076L112.059 133.968L117.056 133.968L117.056 135ZM124.637 130.755C124.637 132.236 124.384 133.337 123.878 134.057C123.372 134.777 122.581 135.137 121.506 135.137C120.444 135.137 119.658 134.786 119.147 134.084C118.637 133.378 118.373 132.325 118.354 130.926L118.354 129.237C118.354 127.774 118.607 126.688 119.113 125.977C119.619 125.266 120.412 124.91 121.492 124.91C122.563 124.91 123.352 125.254 123.857 125.942C124.363 126.626 124.623 127.683 124.637 129.114L124.637 130.755ZM123.372 129.025C123.372 127.954 123.222 127.175 122.921 126.688C122.62 126.195 122.144 125.949 121.492 125.949C120.845 125.949 120.373 126.193 120.077 126.681C119.781 127.168 119.628 127.918 119.619 128.93L119.619 130.953C119.619 132.029 119.774 132.824 120.084 133.339C120.398 133.849 120.872 134.104 121.506 134.104C122.13 134.104 122.593 133.863 122.894 133.38C123.199 132.897 123.358 132.136 123.372 131.097L123.372 129.025Z" fill="black"/>
</g>
<defs>
<clipPath id="clip0">
<rect width="255.801" height="384.133" fill="white" transform="translate(0 0.132843) rotate(-0.0297571)"/>
</clipPath>
</defs>
</svg>
